<?xml version="1.0" encoding="utf-8" standalone="no"?>
<!DOCTYPE svg PUBLIC "-//W3C//DTD SVG 1.1//EN"
  "http://www.w3.org/Graphics/SVG/1.1/DTD/svg11.dtd">
<svg xmlns:xlink="http://www.w3.org/1999/xlink" width="896.821484pt" height="494.413931pt" viewBox="0 0 896.821484 494.413931" xmlns="http://www.w3.org/2000/svg" version="1.1">
 <metadata>
  <rdf:RDF xmlns:dc="http://purl.org/dc/elements/1.1/" xmlns:cc="http://creativecommons.org/ns#" xmlns:rdf="http://www.w3.org/1999/02/22-rdf-syntax-ns#">
   <cc:Work>
    <dc:type rdf:resource="http://purl.org/dc/dcmitype/StillImage"/>
    <dc:date>2026-07-15T15:01:39.114709</dc:date>
    <dc:format>image/svg+xml</dc:format>
    <dc:creator>
     <cc:Agent>
      <dc:title>Matplotlib v3.11.0, https://matplotlib.org/</dc:title>
     </cc:Agent>
    </dc:creator>
   </cc:Work>
  </rdf:RDF>
 </metadata>
 <defs>
  <style type="text/css">*{stroke-linejoin: round; stroke-linecap: butt}</style>
 </defs>
 <g id="figure_1">
  <g id="patch_1">
   <path d="M 0 494.413931 
L 896.821484 494.413931 
L 896.821484 -0 
L 0 -0 
z
" style="fill: #ffffff"/>
  </g>
  <g id="axes_1">
   <g id="patch_2">
    <path d="M 140.696875 414.957187 
L 866.096875 414.957187 
L 866.096875 26.877187 
L 140.696875 26.877187 
z
" style="fill: #ffffff"/>
   </g>
   <g id="patch_3">
    <path d="M -214606.677968 80.701803 
L 833.124148 80.701803 
L 833.124148 44.517187 
L -214606.677968 44.517187 
z
" clip-path="url(#p2faf70b427)" style="fill: #3d5a80; opacity: 0.88"/>
   </g>
   <g id="patch_4">
    <path d="M -214606.677968 125.932572 
L 725.226638 125.932572 
L 725.226638 89.747957 
L -214606.677968 89.747957 
z
" clip-path="url(#p2faf70b427)" style="fill: #3d5a80; opacity: 0.88"/>
   </g>
   <g id="patch_5">
    <path d="M -214606.677968 171.163341 
L 820.409144 171.163341 
L 820.409144 134.978726 
L -214606.677968 134.978726 
z
" clip-path="url(#p2faf70b427)" style="fill: #6b4e9b; opacity: 0.88"/>
   </g>
   <g id="patch_6">
    <path d="M -214606.677968 216.394111 
L 802.09306 216.394111 
L 802.09306 180.209495 
L -214606.677968 180.209495 
z
" clip-path="url(#p2faf70b427)" style="fill: #6b4e9b; opacity: 0.88"/>
   </g>
   <g id="patch_7">
    <path d="M -214606.677968 261.62488 
L 802.091897 261.62488 
L 802.091897 225.440264 
L -214606.677968 225.440264 
z
" clip-path="url(#p2faf70b427)" style="fill: #6b4e9b; opacity: 0.88"/>
   </g>
   <g id="patch_8">
    <path d="M -214606.677968 306.855649 
L 232.271485 306.855649 
L 232.271485 270.671034 
L -214606.677968 270.671034 
z
" clip-path="url(#p2faf70b427)" style="fill: #a43e3e; opacity: 0.88"/>
   </g>
   <g id="patch_9">
    <path d="M -214606.677968 352.086418 
L 173.669602 352.086418 
L 173.669602 315.901803 
L -214606.677968 315.901803 
z
" clip-path="url(#p2faf70b427)" style="fill: #a43e3e; opacity: 0.88"/>
   </g>
   <g id="patch_10">
    <path d="M -214606.677968 397.317187 
L 518.986928 397.317187 
L 518.986928 361.132572 
L -214606.677968 361.132572 
z
" clip-path="url(#p2faf70b427)" style="fill: #3a7d44; opacity: 0.88"/>
   </g>
   <g id="matplotlib.axis_1">
    <g id="xtick_1">
     <g id="line2d_1">
      <path d="M 329.709218 414.957187 
L 329.709218 26.877187 
" clip-path="url(#p2faf70b427)" style="fill: none; stroke: #b0b0b0; stroke-opacity: 0.25; stroke-width: 0.8; stroke-linecap: square"/>
     </g>
     <g id="line2d_2">
      <defs>
       <path id="m3e7786d73e" d="M 0 0 
L 0 3.5 
" style="stroke: #1f2933; stroke-width: 0.8"/>
      </defs>
      <g>
       <use xlink:href="#m3e7786d73e" x="329.709218" y="414.957187" style="fill: #1f2933; stroke: #1f2933; stroke-width: 0.8"/>
      </g>
     </g>
     <g id="text_1">
      <!-- $\mathdefault{10^{3}}$ -->
      <g style="fill: #1f2933" transform="translate(320.909218 431.357187) scale(0.1 -0.1)">
       <defs>
        <path id="DejaVuSans-14" d="M 794 531 
L 1825 531 
L 1825 4091 
L 703 3866 
L 703 4441 
L 1819 4666 
L 2450 4666 
L 2450 531 
L 3481 531 
L 3481 0 
L 794 0 
L 794 531 
z
" transform="scale(0.015625)"/>
        <path id="DejaVuSans-13" d="M 2034 4250 
Q 1547 4250 1301 3770 
Q 1056 3291 1056 2328 
Q 1056 1369 1301 889 
Q 1547 409 2034 409 
Q 2525 409 2770 889 
Q 3016 1369 3016 2328 
Q 3016 3291 2770 3770 
Q 2525 4250 2034 4250 
z
M 2034 4750 
Q 2819 4750 3233 4129 
Q 3647 3509 3647 2328 
Q 3647 1150 3233 529 
Q 2819 -91 2034 -91 
Q 1250 -91 836 529 
Q 422 1150 422 2328 
Q 422 3509 836 4129 
Q 1250 4750 2034 4750 
z
" transform="scale(0.015625)"/>
        <path id="DejaVuSans-16" d="M 2597 2516 
Q 3050 2419 3304 2112 
Q 3559 1806 3559 1356 
Q 3559 666 3084 287 
Q 2609 -91 1734 -91 
Q 1441 -91 1130 -33 
Q 819 25 488 141 
L 488 750 
Q 750 597 1062 519 
Q 1375 441 1716 441 
Q 2309 441 2620 675 
Q 2931 909 2931 1356 
Q 2931 1769 2642 2001 
Q 2353 2234 1838 2234 
L 1294 2234 
L 1294 2753 
L 1863 2753 
Q 2328 2753 2575 2939 
Q 2822 3125 2822 3475 
Q 2822 3834 2567 4026 
Q 2313 4219 1838 4219 
Q 1578 4219 1281 4162 
Q 984 4106 628 3988 
L 628 4550 
Q 988 4650 1302 4700 
Q 1616 4750 1894 4750 
Q 2613 4750 3031 4423 
Q 3450 4097 3450 3541 
Q 3450 3153 3228 2886 
Q 3006 2619 2597 2516 
z
" transform="scale(0.015625)"/>
       </defs>
       <use xlink:href="#DejaVuSans-14" transform="translate(0 0.746875)"/>
       <use xlink:href="#DejaVuSans-13" transform="translate(63.623047 0.746875)"/>
       <use xlink:href="#DejaVuSans-16" transform="translate(128.203125 42.046875) scale(0.7)"/>
      </g>
     </g>
    </g>
    <g id="xtick_2">
     <g id="line2d_3">
      <path d="M 544.002724 414.957187 
L 544.002724 26.877187 
" clip-path="url(#p2faf70b427)" style="fill: none; stroke: #b0b0b0; stroke-opacity: 0.25; stroke-width: 0.8; stroke-linecap: square"/>
     </g>
     <g id="line2d_4">
      <g>
       <use xlink:href="#m3e7786d73e" x="544.002724" y="414.957187" style="fill: #1f2933; stroke: #1f2933; stroke-width: 0.8"/>
      </g>
     </g>
     <g id="text_2">
      <!-- $\mathdefault{10^{4}}$ -->
      <g style="fill: #1f2933" transform="translate(535.202724 431.257187) scale(0.1 -0.1)">
       <defs>
        <path id="DejaVuSans-17" d="M 2419 4116 
L 825 1625 
L 2419 1625 
L 2419 4116 
z
M 2253 4666 
L 3047 4666 
L 3047 1625 
L 3713 1625 
L 3713 1100 
L 3047 1100 
L 3047 0 
L 2419 0 
L 2419 1100 
L 313 1100 
L 313 1709 
L 2253 4666 
z
" transform="scale(0.015625)"/>
       </defs>
       <use xlink:href="#DejaVuSans-14" transform="translate(0 0.665625)"/>
       <use xlink:href="#DejaVuSans-13" transform="translate(63.623047 0.665625)"/>
       <use xlink:href="#DejaVuSans-17" transform="translate(128.203125 41.965625) scale(0.7)"/>
      </g>
     </g>
    </g>
    <g id="xtick_3">
     <g id="line2d_5">
      <path d="M 758.296231 414.957187 
L 758.296231 26.877187 
" clip-path="url(#p2faf70b427)" style="fill: none; stroke: #b0b0b0; stroke-opacity: 0.25; stroke-width: 0.8; stroke-linecap: square"/>
     </g>
     <g id="line2d_6">
      <g>
       <use xlink:href="#m3e7786d73e" x="758.296231" y="414.957187" style="fill: #1f2933; stroke: #1f2933; stroke-width: 0.8"/>
      </g>
     </g>
     <g id="text_3">
      <!-- $\mathdefault{10^{5}}$ -->
      <g style="fill: #1f2933" transform="translate(749.496231 431.257187) scale(0.1 -0.1)">
       <defs>
        <path id="DejaVuSans-18" d="M 691 4666 
L 3169 4666 
L 3169 4134 
L 1269 4134 
L 1269 2991 
Q 1406 3038 1543 3061 
Q 1681 3084 1819 3084 
Q 2600 3084 3056 2656 
Q 3513 2228 3513 1497 
Q 3513 744 3044 326 
Q 2575 -91 1722 -91 
Q 1428 -91 1123 -41 
Q 819 9 494 109 
L 494 744 
Q 775 591 1075 516 
Q 1375 441 1709 441 
Q 2250 441 2565 725 
Q 2881 1009 2881 1497 
Q 2881 1984 2565 2268 
Q 2250 2553 1709 2553 
Q 1456 2553 1204 2497 
Q 953 2441 691 2322 
L 691 4666 
z
" transform="scale(0.015625)"/>
       </defs>
       <use xlink:href="#DejaVuSans-14" transform="translate(0 0.665625)"/>
       <use xlink:href="#DejaVuSans-13" transform="translate(63.623047 0.665625)"/>
       <use xlink:href="#DejaVuSans-18" transform="translate(128.203125 41.965625) scale(0.7)"/>
      </g>
     </g>
    </g>
    <g id="xtick_4">
     <g id="line2d_7">
      <defs>
       <path id="m1ab2c942cb" d="M 0 0 
L 0 2 
" style="stroke: #1f2933; stroke-width: 0.6"/>
      </defs>
      <g>
       <use xlink:href="#m1ab2c942cb" x="179.924485" y="414.957187" style="fill: #1f2933; stroke: #1f2933; stroke-width: 0.6"/>
      </g>
     </g>
    </g>
    <g id="xtick_5">
     <g id="line2d_8">
      <g>
       <use xlink:href="#m1ab2c942cb" x="217.659698" y="414.957187" style="fill: #1f2933; stroke: #1f2933; stroke-width: 0.6"/>
      </g>
     </g>
    </g>
    <g id="xtick_6">
     <g id="line2d_9">
      <g>
       <use xlink:href="#m1ab2c942cb" x="244.433258" y="414.957187" style="fill: #1f2933; stroke: #1f2933; stroke-width: 0.6"/>
      </g>
     </g>
    </g>
    <g id="xtick_7">
     <g id="line2d_10">
      <g>
       <use xlink:href="#m1ab2c942cb" x="265.200444" y="414.957187" style="fill: #1f2933; stroke: #1f2933; stroke-width: 0.6"/>
      </g>
     </g>
    </g>
    <g id="xtick_8">
     <g id="line2d_11">
      <g>
       <use xlink:href="#m1ab2c942cb" x="282.168471" y="414.957187" style="fill: #1f2933; stroke: #1f2933; stroke-width: 0.6"/>
      </g>
     </g>
    </g>
    <g id="xtick_9">
     <g id="line2d_12">
      <g>
       <use xlink:href="#m1ab2c942cb" x="296.514734" y="414.957187" style="fill: #1f2933; stroke: #1f2933; stroke-width: 0.6"/>
      </g>
     </g>
    </g>
    <g id="xtick_10">
     <g id="line2d_13">
      <g>
       <use xlink:href="#m1ab2c942cb" x="308.942031" y="414.957187" style="fill: #1f2933; stroke: #1f2933; stroke-width: 0.6"/>
      </g>
     </g>
    </g>
    <g id="xtick_11">
     <g id="line2d_14">
      <g>
       <use xlink:href="#m1ab2c942cb" x="319.903685" y="414.957187" style="fill: #1f2933; stroke: #1f2933; stroke-width: 0.6"/>
      </g>
     </g>
    </g>
    <g id="xtick_12">
     <g id="line2d_15">
      <g>
       <use xlink:href="#m1ab2c942cb" x="394.217991" y="414.957187" style="fill: #1f2933; stroke: #1f2933; stroke-width: 0.6"/>
      </g>
     </g>
    </g>
    <g id="xtick_13">
     <g id="line2d_16">
      <g>
       <use xlink:href="#m1ab2c942cb" x="431.953205" y="414.957187" style="fill: #1f2933; stroke: #1f2933; stroke-width: 0.6"/>
      </g>
     </g>
    </g>
    <g id="xtick_14">
     <g id="line2d_17">
      <g>
       <use xlink:href="#m1ab2c942cb" x="458.726765" y="414.957187" style="fill: #1f2933; stroke: #1f2933; stroke-width: 0.6"/>
      </g>
     </g>
    </g>
    <g id="xtick_15">
     <g id="line2d_18">
      <g>
       <use xlink:href="#m1ab2c942cb" x="479.493951" y="414.957187" style="fill: #1f2933; stroke: #1f2933; stroke-width: 0.6"/>
      </g>
     </g>
    </g>
    <g id="xtick_16">
     <g id="line2d_19">
      <g>
       <use xlink:href="#m1ab2c942cb" x="496.461978" y="414.957187" style="fill: #1f2933; stroke: #1f2933; stroke-width: 0.6"/>
      </g>
     </g>
    </g>
    <g id="xtick_17">
     <g id="line2d_20">
      <g>
       <use xlink:href="#m1ab2c942cb" x="510.80824" y="414.957187" style="fill: #1f2933; stroke: #1f2933; stroke-width: 0.6"/>
      </g>
     </g>
    </g>
    <g id="xtick_18">
     <g id="line2d_21">
      <g>
       <use xlink:href="#m1ab2c942cb" x="523.235538" y="414.957187" style="fill: #1f2933; stroke: #1f2933; stroke-width: 0.6"/>
      </g>
     </g>
    </g>
    <g id="xtick_19">
     <g id="line2d_22">
      <g>
       <use xlink:href="#m1ab2c942cb" x="534.197191" y="414.957187" style="fill: #1f2933; stroke: #1f2933; stroke-width: 0.6"/>
      </g>
     </g>
    </g>
    <g id="xtick_20">
     <g id="line2d_23">
      <g>
       <use xlink:href="#m1ab2c942cb" x="608.511498" y="414.957187" style="fill: #1f2933; stroke: #1f2933; stroke-width: 0.6"/>
      </g>
     </g>
    </g>
    <g id="xtick_21">
     <g id="line2d_24">
      <g>
       <use xlink:href="#m1ab2c942cb" x="646.246711" y="414.957187" style="fill: #1f2933; stroke: #1f2933; stroke-width: 0.6"/>
      </g>
     </g>
    </g>
    <g id="xtick_22">
     <g id="line2d_25">
      <g>
       <use xlink:href="#m1ab2c942cb" x="673.020271" y="414.957187" style="fill: #1f2933; stroke: #1f2933; stroke-width: 0.6"/>
      </g>
     </g>
    </g>
    <g id="xtick_23">
     <g id="line2d_26">
      <g>
       <use xlink:href="#m1ab2c942cb" x="693.787458" y="414.957187" style="fill: #1f2933; stroke: #1f2933; stroke-width: 0.6"/>
      </g>
     </g>
    </g>
    <g id="xtick_24">
     <g id="line2d_27">
      <g>
       <use xlink:href="#m1ab2c942cb" x="710.755485" y="414.957187" style="fill: #1f2933; stroke: #1f2933; stroke-width: 0.6"/>
      </g>
     </g>
    </g>
    <g id="xtick_25">
     <g id="line2d_28">
      <g>
       <use xlink:href="#m1ab2c942cb" x="725.101747" y="414.957187" style="fill: #1f2933; stroke: #1f2933; stroke-width: 0.6"/>
      </g>
     </g>
    </g>
    <g id="xtick_26">
     <g id="line2d_29">
      <g>
       <use xlink:href="#m1ab2c942cb" x="737.529045" y="414.957187" style="fill: #1f2933; stroke: #1f2933; stroke-width: 0.6"/>
      </g>
     </g>
    </g>
    <g id="xtick_27">
     <g id="line2d_30">
      <g>
       <use xlink:href="#m1ab2c942cb" x="748.490698" y="414.957187" style="fill: #1f2933; stroke: #1f2933; stroke-width: 0.6"/>
      </g>
     </g>
    </g>
    <g id="xtick_28">
     <g id="line2d_31">
      <g>
       <use xlink:href="#m1ab2c942cb" x="822.805005" y="414.957187" style="fill: #1f2933; stroke: #1f2933; stroke-width: 0.6"/>
      </g>
     </g>
    </g>
    <g id="xtick_29">
     <g id="line2d_32">
      <g>
       <use xlink:href="#m1ab2c942cb" x="860.540218" y="414.957187" style="fill: #1f2933; stroke: #1f2933; stroke-width: 0.6"/>
      </g>
     </g>
    </g>
    <g id="text_4">
     <!-- Count, log scale -->
     <g style="fill: #1f2933" transform="translate(455.250625 446.877656) scale(0.12 -0.12)">
      <defs>
       <path id="DejaVuSans-26" d="M 4122 4306 
L 4122 3641 
Q 3803 3938 3442 4084 
Q 3081 4231 2675 4231 
Q 1875 4231 1450 3742 
Q 1025 3253 1025 2328 
Q 1025 1406 1450 917 
Q 1875 428 2675 428 
Q 3081 428 3442 575 
Q 3803 722 4122 1019 
L 4122 359 
Q 3791 134 3420 21 
Q 3050 -91 2638 -91 
Q 1578 -91 968 557 
Q 359 1206 359 2328 
Q 359 3453 968 4101 
Q 1578 4750 2638 4750 
Q 3056 4750 3426 4639 
Q 3797 4528 4122 4306 
z
" transform="scale(0.015625)"/>
       <path id="DejaVuSans-52" d="M 1959 3097 
Q 1497 3097 1228 2736 
Q 959 2375 959 1747 
Q 959 1119 1226 758 
Q 1494 397 1959 397 
Q 2419 397 2687 759 
Q 2956 1122 2956 1747 
Q 2956 2369 2687 2733 
Q 2419 3097 1959 3097 
z
M 1959 3584 
Q 2709 3584 3137 3096 
Q 3566 2609 3566 1747 
Q 3566 888 3137 398 
Q 2709 -91 1959 -91 
Q 1206 -91 779 398 
Q 353 888 353 1747 
Q 353 2609 779 3096 
Q 1206 3584 1959 3584 
z
" transform="scale(0.015625)"/>
       <path id="DejaVuSans-58" d="M 544 1381 
L 544 3500 
L 1119 3500 
L 1119 1403 
Q 1119 906 1312 657 
Q 1506 409 1894 409 
Q 2359 409 2629 706 
Q 2900 1003 2900 1516 
L 2900 3500 
L 3475 3500 
L 3475 0 
L 2900 0 
L 2900 538 
Q 2691 219 2414 64 
Q 2138 -91 1772 -91 
Q 1169 -91 856 284 
Q 544 659 544 1381 
z
M 1991 3584 
L 1991 3584 
z
" transform="scale(0.015625)"/>
       <path id="DejaVuSans-51" d="M 3513 2113 
L 3513 0 
L 2938 0 
L 2938 2094 
Q 2938 2591 2744 2837 
Q 2550 3084 2163 3084 
Q 1697 3084 1428 2787 
Q 1159 2491 1159 1978 
L 1159 0 
L 581 0 
L 581 3500 
L 1159 3500 
L 1159 2956 
Q 1366 3272 1645 3428 
Q 1925 3584 2291 3584 
Q 2894 3584 3203 3211 
Q 3513 2838 3513 2113 
z
" transform="scale(0.015625)"/>
       <path id="DejaVuSans-57" d="M 1172 4494 
L 1172 3500 
L 2356 3500 
L 2356 3053 
L 1172 3053 
L 1172 1153 
Q 1172 725 1289 603 
Q 1406 481 1766 481 
L 2356 481 
L 2356 0 
L 1766 0 
Q 1100 0 847 248 
Q 594 497 594 1153 
L 594 3053 
L 172 3053 
L 172 3500 
L 594 3500 
L 594 4494 
L 1172 4494 
z
" transform="scale(0.015625)"/>
       <path id="DejaVuSans-f" d="M 750 794 
L 1409 794 
L 1409 256 
L 897 -744 
L 494 -744 
L 750 256 
L 750 794 
z
" transform="scale(0.015625)"/>
       <path id="DejaVuSans-3" transform="scale(0.015625)"/>
       <path id="DejaVuSans-4f" d="M 603 4863 
L 1178 4863 
L 1178 0 
L 603 0 
L 603 4863 
z
" transform="scale(0.015625)"/>
       <path id="DejaVuSans-4a" d="M 2906 1791 
Q 2906 2416 2648 2759 
Q 2391 3103 1925 3103 
Q 1463 3103 1205 2759 
Q 947 2416 947 1791 
Q 947 1169 1205 825 
Q 1463 481 1925 481 
Q 2391 481 2648 825 
Q 2906 1169 2906 1791 
z
M 3481 434 
Q 3481 -459 3084 -895 
Q 2688 -1331 1869 -1331 
Q 1566 -1331 1297 -1286 
Q 1028 -1241 775 -1147 
L 775 -588 
Q 1028 -725 1275 -790 
Q 1522 -856 1778 -856 
Q 2344 -856 2625 -561 
Q 2906 -266 2906 331 
L 2906 616 
Q 2728 306 2450 153 
Q 2172 0 1784 0 
Q 1141 0 747 490 
Q 353 981 353 1791 
Q 353 2603 747 3093 
Q 1141 3584 1784 3584 
Q 2172 3584 2450 3431 
Q 2728 3278 2906 2969 
L 2906 3500 
L 3481 3500 
L 3481 434 
z
" transform="scale(0.015625)"/>
       <path id="DejaVuSans-56" d="M 2834 3397 
L 2834 2853 
Q 2591 2978 2328 3040 
Q 2066 3103 1784 3103 
Q 1356 3103 1142 2972 
Q 928 2841 928 2578 
Q 928 2378 1081 2264 
Q 1234 2150 1697 2047 
L 1894 2003 
Q 2506 1872 2764 1633 
Q 3022 1394 3022 966 
Q 3022 478 2636 193 
Q 2250 -91 1575 -91 
Q 1294 -91 989 -36 
Q 684 19 347 128 
L 347 722 
Q 666 556 975 473 
Q 1284 391 1588 391 
Q 1994 391 2212 530 
Q 2431 669 2431 922 
Q 2431 1156 2273 1281 
Q 2116 1406 1581 1522 
L 1381 1569 
Q 847 1681 609 1914 
Q 372 2147 372 2553 
Q 372 3047 722 3315 
Q 1072 3584 1716 3584 
Q 2034 3584 2315 3537 
Q 2597 3491 2834 3397 
z
" transform="scale(0.015625)"/>
       <path id="DejaVuSans-46" d="M 3122 3366 
L 3122 2828 
Q 2878 2963 2633 3030 
Q 2388 3097 2138 3097 
Q 1578 3097 1268 2742 
Q 959 2388 959 1747 
Q 959 1106 1268 751 
Q 1578 397 2138 397 
Q 2388 397 2633 464 
Q 2878 531 3122 666 
L 3122 134 
Q 2881 22 2623 -34 
Q 2366 -91 2075 -91 
Q 1284 -91 818 406 
Q 353 903 353 1747 
Q 353 2603 823 3093 
Q 1294 3584 2113 3584 
Q 2378 3584 2631 3529 
Q 2884 3475 3122 3366 
z
" transform="scale(0.015625)"/>
       <path id="DejaVuSans-44" d="M 2194 1759 
Q 1497 1759 1228 1600 
Q 959 1441 959 1056 
Q 959 750 1161 570 
Q 1363 391 1709 391 
Q 2188 391 2477 730 
Q 2766 1069 2766 1631 
L 2766 1759 
L 2194 1759 
z
M 3341 1997 
L 3341 0 
L 2766 0 
L 2766 531 
Q 2569 213 2275 61 
Q 1981 -91 1556 -91 
Q 1019 -91 701 211 
Q 384 513 384 1019 
Q 384 1609 779 1909 
Q 1175 2209 1959 2209 
L 2766 2209 
L 2766 2266 
Q 2766 2663 2505 2880 
Q 2244 3097 1772 3097 
Q 1472 3097 1187 3025 
Q 903 2953 641 2809 
L 641 3341 
Q 956 3463 1253 3523 
Q 1550 3584 1831 3584 
Q 2591 3584 2966 3190 
Q 3341 2797 3341 1997 
z
" transform="scale(0.015625)"/>
       <path id="DejaVuSans-48" d="M 3597 1894 
L 3597 1613 
L 953 1613 
Q 991 1019 1311 708 
Q 1631 397 2203 397 
Q 2534 397 2845 478 
Q 3156 559 3463 722 
L 3463 178 
Q 3153 47 2828 -22 
Q 2503 -91 2169 -91 
Q 1331 -91 842 396 
Q 353 884 353 1716 
Q 353 2575 817 3079 
Q 1281 3584 2069 3584 
Q 2775 3584 3186 3129 
Q 3597 2675 3597 1894 
z
M 3022 2063 
Q 3016 2534 2758 2815 
Q 2500 3097 2075 3097 
Q 1594 3097 1305 2825 
Q 1016 2553 972 2059 
L 3022 2063 
z
" transform="scale(0.015625)"/>
      </defs>
      <use xlink:href="#DejaVuSans-26"/>
      <use xlink:href="#DejaVuSans-52" transform="translate(69.828125 0)"/>
      <use xlink:href="#DejaVuSans-58" transform="translate(131.015625 0)"/>
      <use xlink:href="#DejaVuSans-51" transform="translate(194.390625 0)"/>
      <use xlink:href="#DejaVuSans-57" transform="translate(257.765625 0)"/>
      <use xlink:href="#DejaVuSans-f" transform="translate(296.96875 0)"/>
      <use xlink:href="#DejaVuSans-3" transform="translate(328.75 0)"/>
      <use xlink:href="#DejaVuSans-4f" transform="translate(360.53125 0)"/>
      <use xlink:href="#DejaVuSans-52" transform="translate(388.3125 0)"/>
      <use xlink:href="#DejaVuSans-4a" transform="translate(449.5 0)"/>
      <use xlink:href="#DejaVuSans-3" transform="translate(512.984375 0)"/>
      <use xlink:href="#DejaVuSans-56" transform="translate(544.765625 0)"/>
      <use xlink:href="#DejaVuSans-46" transform="translate(596.859375 0)"/>
      <use xlink:href="#DejaVuSans-44" transform="translate(651.84375 0)"/>
      <use xlink:href="#DejaVuSans-4f" transform="translate(713.125 0)"/>
      <use xlink:href="#DejaVuSans-48" transform="translate(740.90625 0)"/>
     </g>
    </g>
   </g>
   <g id="matplotlib.axis_2">
    <g id="ytick_1">
     <g id="line2d_33">
      <defs>
       <path id="mec71298e5f" d="M 0 0 
L -3.5 0 
" style="stroke: #1f2933; stroke-width: 0.8"/>
      </defs>
      <g>
       <use xlink:href="#mec71298e5f" x="140.696875" y="62.609495" style="fill: #1f2933; stroke: #1f2933; stroke-width: 0.8"/>
      </g>
     </g>
     <g id="text_5">
      <!-- Adult ICD model spine -->
      <g style="fill: #1f2933" transform="translate(22.514062 66.408714) scale(0.1 -0.1)">
       <defs>
        <path id="DejaVuSans-24" d="M 2188 4044 
L 1331 1722 
L 3047 1722 
L 2188 4044 
z
M 1831 4666 
L 2547 4666 
L 4325 0 
L 3669 0 
L 3244 1197 
L 1141 1197 
L 716 0 
L 50 0 
L 1831 4666 
z
" transform="scale(0.015625)"/>
        <path id="DejaVuSans-47" d="M 2906 2969 
L 2906 4863 
L 3481 4863 
L 3481 0 
L 2906 0 
L 2906 525 
Q 2725 213 2448 61 
Q 2172 -91 1784 -91 
Q 1150 -91 751 415 
Q 353 922 353 1747 
Q 353 2572 751 3078 
Q 1150 3584 1784 3584 
Q 2172 3584 2448 3432 
Q 2725 3281 2906 2969 
z
M 947 1747 
Q 947 1113 1208 752 
Q 1469 391 1925 391 
Q 2381 391 2643 752 
Q 2906 1113 2906 1747 
Q 2906 2381 2643 2742 
Q 2381 3103 1925 3103 
Q 1469 3103 1208 2742 
Q 947 2381 947 1747 
z
" transform="scale(0.015625)"/>
        <path id="DejaVuSans-2c" d="M 628 4666 
L 1259 4666 
L 1259 0 
L 628 0 
L 628 4666 
z
" transform="scale(0.015625)"/>
        <path id="DejaVuSans-27" d="M 1259 4147 
L 1259 519 
L 2022 519 
Q 2988 519 3436 956 
Q 3884 1394 3884 2338 
Q 3884 3275 3436 3711 
Q 2988 4147 2022 4147 
L 1259 4147 
z
M 628 4666 
L 1925 4666 
Q 3281 4666 3915 4102 
Q 4550 3538 4550 2338 
Q 4550 1131 3912 565 
Q 3275 0 1925 0 
L 628 0 
L 628 4666 
z
" transform="scale(0.015625)"/>
        <path id="DejaVuSans-50" d="M 3328 2828 
Q 3544 3216 3844 3400 
Q 4144 3584 4550 3584 
Q 5097 3584 5394 3201 
Q 5691 2819 5691 2113 
L 5691 0 
L 5113 0 
L 5113 2094 
Q 5113 2597 4934 2840 
Q 4756 3084 4391 3084 
Q 3944 3084 3684 2787 
Q 3425 2491 3425 1978 
L 3425 0 
L 2847 0 
L 2847 2094 
Q 2847 2600 2669 2842 
Q 2491 3084 2119 3084 
Q 1678 3084 1418 2786 
Q 1159 2488 1159 1978 
L 1159 0 
L 581 0 
L 581 3500 
L 1159 3500 
L 1159 2956 
Q 1356 3278 1631 3431 
Q 1906 3584 2284 3584 
Q 2666 3584 2933 3390 
Q 3200 3197 3328 2828 
z
" transform="scale(0.015625)"/>
        <path id="DejaVuSans-53" d="M 1159 525 
L 1159 -1331 
L 581 -1331 
L 581 3500 
L 1159 3500 
L 1159 2969 
Q 1341 3281 1617 3432 
Q 1894 3584 2278 3584 
Q 2916 3584 3314 3078 
Q 3713 2572 3713 1747 
Q 3713 922 3314 415 
Q 2916 -91 2278 -91 
Q 1894 -91 1617 61 
Q 1341 213 1159 525 
z
M 3116 1747 
Q 3116 2381 2855 2742 
Q 2594 3103 2138 3103 
Q 1681 3103 1420 2742 
Q 1159 2381 1159 1747 
Q 1159 1113 1420 752 
Q 1681 391 2138 391 
Q 2594 391 2855 752 
Q 3116 1113 3116 1747 
z
" transform="scale(0.015625)"/>
        <path id="DejaVuSans-4c" d="M 603 3500 
L 1178 3500 
L 1178 0 
L 603 0 
L 603 3500 
z
M 603 4863 
L 1178 4863 
L 1178 4134 
L 603 4134 
L 603 4863 
z
" transform="scale(0.015625)"/>
       </defs>
       <use xlink:href="#DejaVuSans-24"/>
       <use xlink:href="#DejaVuSans-47" transform="translate(66.65625 0)"/>
       <use xlink:href="#DejaVuSans-58" transform="translate(130.140625 0)"/>
       <use xlink:href="#DejaVuSans-4f" transform="translate(193.515625 0)"/>
       <use xlink:href="#DejaVuSans-57" transform="translate(221.296875 0)"/>
       <use xlink:href="#DejaVuSans-3" transform="translate(260.5 0)"/>
       <use xlink:href="#DejaVuSans-2c" transform="translate(292.28125 0)"/>
       <use xlink:href="#DejaVuSans-26" transform="translate(321.78125 0)"/>
       <use xlink:href="#DejaVuSans-27" transform="translate(391.609375 0)"/>
       <use xlink:href="#DejaVuSans-3" transform="translate(468.609375 0)"/>
       <use xlink:href="#DejaVuSans-50" transform="translate(500.390625 0)"/>
       <use xlink:href="#DejaVuSans-52" transform="translate(597.796875 0)"/>
       <use xlink:href="#DejaVuSans-47" transform="translate(658.984375 0)"/>
       <use xlink:href="#DejaVuSans-48" transform="translate(722.46875 0)"/>
       <use xlink:href="#DejaVuSans-4f" transform="translate(784 0)"/>
       <use xlink:href="#DejaVuSans-3" transform="translate(811.78125 0)"/>
       <use xlink:href="#DejaVuSans-56" transform="translate(843.5625 0)"/>
       <use xlink:href="#DejaVuSans-53" transform="translate(895.65625 0)"/>
       <use xlink:href="#DejaVuSans-4c" transform="translate(959.140625 0)"/>
       <use xlink:href="#DejaVuSans-51" transform="translate(986.921875 0)"/>
       <use xlink:href="#DejaVuSans-48" transform="translate(1050.296875 0)"/>
      </g>
     </g>
    </g>
    <g id="ytick_2">
     <g id="line2d_34">
      <g>
       <use xlink:href="#mec71298e5f" x="140.696875" y="107.840264" style="fill: #1f2933; stroke: #1f2933; stroke-width: 0.8"/>
      </g>
     </g>
     <g id="text_6">
      <!-- ECG-complete ICD model -->
      <g style="fill: #1f2933" transform="translate(7.2 111.639483) scale(0.1 -0.1)">
       <defs>
        <path id="DejaVuSans-28" d="M 628 4666 
L 3578 4666 
L 3578 4134 
L 1259 4134 
L 1259 2753 
L 3481 2753 
L 3481 2222 
L 1259 2222 
L 1259 531 
L 3634 531 
L 3634 0 
L 628 0 
L 628 4666 
z
" transform="scale(0.015625)"/>
        <path id="DejaVuSans-2a" d="M 3809 666 
L 3809 1919 
L 2778 1919 
L 2778 2438 
L 4434 2438 
L 4434 434 
Q 4069 175 3628 42 
Q 3188 -91 2688 -91 
Q 1594 -91 976 548 
Q 359 1188 359 2328 
Q 359 3472 976 4111 
Q 1594 4750 2688 4750 
Q 3144 4750 3555 4637 
Q 3966 4525 4313 4306 
L 4313 3634 
Q 3963 3931 3569 4081 
Q 3175 4231 2741 4231 
Q 1884 4231 1454 3753 
Q 1025 3275 1025 2328 
Q 1025 1384 1454 906 
Q 1884 428 2741 428 
Q 3075 428 3337 486 
Q 3600 544 3809 666 
z
" transform="scale(0.015625)"/>
        <path id="DejaVuSans-10" d="M 313 2009 
L 1997 2009 
L 1997 1497 
L 313 1497 
L 313 2009 
z
" transform="scale(0.015625)"/>
       </defs>
       <use xlink:href="#DejaVuSans-28"/>
       <use xlink:href="#DejaVuSans-26" transform="translate(63.1875 0)"/>
       <use xlink:href="#DejaVuSans-2a" transform="translate(133.015625 0)"/>
       <use xlink:href="#DejaVuSans-10" transform="translate(210.5 0)"/>
       <use xlink:href="#DejaVuSans-46" transform="translate(246.578125 0)"/>
       <use xlink:href="#DejaVuSans-52" transform="translate(301.5625 0)"/>
       <use xlink:href="#DejaVuSans-50" transform="translate(362.75 0)"/>
       <use xlink:href="#DejaVuSans-53" transform="translate(460.15625 0)"/>
       <use xlink:href="#DejaVuSans-4f" transform="translate(523.640625 0)"/>
       <use xlink:href="#DejaVuSans-48" transform="translate(551.421875 0)"/>
       <use xlink:href="#DejaVuSans-57" transform="translate(612.953125 0)"/>
       <use xlink:href="#DejaVuSans-48" transform="translate(652.15625 0)"/>
       <use xlink:href="#DejaVuSans-3" transform="translate(713.6875 0)"/>
       <use xlink:href="#DejaVuSans-2c" transform="translate(745.46875 0)"/>
       <use xlink:href="#DejaVuSans-26" transform="translate(774.96875 0)"/>
       <use xlink:href="#DejaVuSans-27" transform="translate(844.796875 0)"/>
       <use xlink:href="#DejaVuSans-3" transform="translate(921.796875 0)"/>
       <use xlink:href="#DejaVuSans-50" transform="translate(953.578125 0)"/>
       <use xlink:href="#DejaVuSans-52" transform="translate(1050.984375 0)"/>
       <use xlink:href="#DejaVuSans-47" transform="translate(1112.171875 0)"/>
       <use xlink:href="#DejaVuSans-48" transform="translate(1175.65625 0)"/>
       <use xlink:href="#DejaVuSans-4f" transform="translate(1237.1875 0)"/>
      </g>
     </g>
    </g>
    <g id="ytick_3">
     <g id="line2d_35">
      <g>
       <use xlink:href="#mec71298e5f" x="140.696875" y="153.071034" style="fill: #1f2933; stroke: #1f2933; stroke-width: 0.8"/>
      </g>
     </g>
     <g id="text_7">
      <!-- ECG-qualified visits -->
      <g style="fill: #1f2933" transform="translate(36.876563 156.870252) scale(0.1 -0.1)">
       <defs>
        <path id="DejaVuSans-54" d="M 947 1747 
Q 947 1113 1208 752 
Q 1469 391 1925 391 
Q 2381 391 2643 752 
Q 2906 1113 2906 1747 
Q 2906 2381 2643 2742 
Q 2381 3103 1925 3103 
Q 1469 3103 1208 2742 
Q 947 2381 947 1747 
z
M 2906 525 
Q 2725 213 2448 61 
Q 2172 -91 1784 -91 
Q 1150 -91 751 415 
Q 353 922 353 1747 
Q 353 2572 751 3078 
Q 1150 3584 1784 3584 
Q 2172 3584 2448 3432 
Q 2725 3281 2906 2969 
L 2906 3500 
L 3481 3500 
L 3481 -1331 
L 2906 -1331 
L 2906 525 
z
" transform="scale(0.015625)"/>
        <path id="DejaVuSans-13af" d="M 3431 3500 
L 3431 0 
L 2853 0 
L 2853 3053 
L 1275 3053 
L 1275 0 
L 697 0 
L 697 3053 
L 147 3053 
L 147 3500 
L 697 3500 
L 697 3744 
Q 697 4316 967 4589 
Q 1238 4863 1797 4863 
L 2375 4863 
L 2375 4384 
L 1825 4384 
Q 1516 4384 1395 4259 
Q 1275 4134 1275 3809 
L 1275 3500 
L 3431 3500 
z
M 2853 4856 
L 3431 4856 
L 3431 4128 
L 2853 4128 
L 2853 4856 
z
" transform="scale(0.015625)"/>
        <path id="DejaVuSans-59" d="M 191 3500 
L 800 3500 
L 1894 563 
L 2988 3500 
L 3597 3500 
L 2284 0 
L 1503 0 
L 191 3500 
z
" transform="scale(0.015625)"/>
       </defs>
       <use xlink:href="#DejaVuSans-28"/>
       <use xlink:href="#DejaVuSans-26" transform="translate(63.1875 0)"/>
       <use xlink:href="#DejaVuSans-2a" transform="translate(133.015625 0)"/>
       <use xlink:href="#DejaVuSans-10" transform="translate(210.5 0)"/>
       <use xlink:href="#DejaVuSans-54" transform="translate(246.578125 0)"/>
       <use xlink:href="#DejaVuSans-58" transform="translate(310.0625 0)"/>
       <use xlink:href="#DejaVuSans-44" transform="translate(373.4375 0)"/>
       <use xlink:href="#DejaVuSans-4f" transform="translate(434.71875 0)"/>
       <use xlink:href="#DejaVuSans-4c" transform="translate(462.5 0)"/>
       <use xlink:href="#DejaVuSans-13af" transform="translate(490.28125 0)"/>
       <use xlink:href="#DejaVuSans-48" transform="translate(553.265625 0)"/>
       <use xlink:href="#DejaVuSans-47" transform="translate(614.796875 0)"/>
       <use xlink:href="#DejaVuSans-3" transform="translate(678.28125 0)"/>
       <use xlink:href="#DejaVuSans-59" transform="translate(710.0625 0)"/>
       <use xlink:href="#DejaVuSans-4c" transform="translate(769.25 0)"/>
       <use xlink:href="#DejaVuSans-56" transform="translate(797.03125 0)"/>
       <use xlink:href="#DejaVuSans-4c" transform="translate(849.125 0)"/>
       <use xlink:href="#DejaVuSans-57" transform="translate(876.90625 0)"/>
       <use xlink:href="#DejaVuSans-56" transform="translate(916.109375 0)"/>
      </g>
     </g>
    </g>
    <g id="ytick_4">
     <g id="line2d_36">
      <g>
       <use xlink:href="#mec71298e5f" x="140.696875" y="198.301803" style="fill: #1f2933; stroke: #1f2933; stroke-width: 0.8"/>
      </g>
     </g>
     <g id="text_8">
      <!-- With discharge notes -->
      <g style="fill: #1f2933" transform="translate(28.160938 202.101022) scale(0.1 -0.1)">
       <defs>
        <path id="DejaVuSans-3a" d="M 213 4666 
L 850 4666 
L 1831 722 
L 2809 4666 
L 3519 4666 
L 4500 722 
L 5478 4666 
L 6119 4666 
L 4947 0 
L 4153 0 
L 3169 4050 
L 2175 0 
L 1381 0 
L 213 4666 
z
" transform="scale(0.015625)"/>
        <path id="DejaVuSans-4b" d="M 3513 2113 
L 3513 0 
L 2938 0 
L 2938 2094 
Q 2938 2591 2744 2837 
Q 2550 3084 2163 3084 
Q 1697 3084 1428 2787 
Q 1159 2491 1159 1978 
L 1159 0 
L 581 0 
L 581 4863 
L 1159 4863 
L 1159 2956 
Q 1366 3272 1645 3428 
Q 1925 3584 2291 3584 
Q 2894 3584 3203 3211 
Q 3513 2838 3513 2113 
z
" transform="scale(0.015625)"/>
        <path id="DejaVuSans-55" d="M 2631 2963 
Q 2534 3019 2420 3045 
Q 2306 3072 2169 3072 
Q 1681 3072 1420 2755 
Q 1159 2438 1159 1844 
L 1159 0 
L 581 0 
L 581 3500 
L 1159 3500 
L 1159 2956 
Q 1341 3275 1631 3429 
Q 1922 3584 2338 3584 
Q 2397 3584 2469 3576 
Q 2541 3569 2628 3553 
L 2631 2963 
z
" transform="scale(0.015625)"/>
       </defs>
       <use xlink:href="#DejaVuSans-3a"/>
       <use xlink:href="#DejaVuSans-4c" transform="translate(96.671875 0)"/>
       <use xlink:href="#DejaVuSans-57" transform="translate(124.453125 0)"/>
       <use xlink:href="#DejaVuSans-4b" transform="translate(163.65625 0)"/>
       <use xlink:href="#DejaVuSans-3" transform="translate(227.03125 0)"/>
       <use xlink:href="#DejaVuSans-47" transform="translate(258.8125 0)"/>
       <use xlink:href="#DejaVuSans-4c" transform="translate(322.296875 0)"/>
       <use xlink:href="#DejaVuSans-56" transform="translate(350.078125 0)"/>
       <use xlink:href="#DejaVuSans-46" transform="translate(402.171875 0)"/>
       <use xlink:href="#DejaVuSans-4b" transform="translate(457.15625 0)"/>
       <use xlink:href="#DejaVuSans-44" transform="translate(520.53125 0)"/>
       <use xlink:href="#DejaVuSans-55" transform="translate(581.8125 0)"/>
       <use xlink:href="#DejaVuSans-4a" transform="translate(621.171875 0)"/>
       <use xlink:href="#DejaVuSans-48" transform="translate(684.65625 0)"/>
       <use xlink:href="#DejaVuSans-3" transform="translate(746.1875 0)"/>
       <use xlink:href="#DejaVuSans-51" transform="translate(777.96875 0)"/>
       <use xlink:href="#DejaVuSans-52" transform="translate(841.34375 0)"/>
       <use xlink:href="#DejaVuSans-57" transform="translate(902.53125 0)"/>
       <use xlink:href="#DejaVuSans-48" transform="translate(941.734375 0)"/>
       <use xlink:href="#DejaVuSans-56" transform="translate(1003.265625 0)"/>
      </g>
     </g>
    </g>
    <g id="ytick_5">
     <g id="line2d_37">
      <g>
       <use xlink:href="#mec71298e5f" x="140.696875" y="243.532572" style="fill: #1f2933; stroke: #1f2933; stroke-width: 0.8"/>
      </g>
     </g>
     <g id="text_9">
      <!-- Successful parses -->
      <g style="fill: #1f2933" transform="translate(44.46875 247.331791) scale(0.1 -0.1)">
       <defs>
        <path id="DejaVuSans-36" d="M 3425 4513 
L 3425 3897 
Q 3066 4069 2747 4153 
Q 2428 4238 2131 4238 
Q 1616 4238 1336 4038 
Q 1056 3838 1056 3469 
Q 1056 3159 1242 3001 
Q 1428 2844 1947 2747 
L 2328 2669 
Q 3034 2534 3370 2195 
Q 3706 1856 3706 1288 
Q 3706 609 3251 259 
Q 2797 -91 1919 -91 
Q 1588 -91 1214 -16 
Q 841 59 441 206 
L 441 856 
Q 825 641 1194 531 
Q 1563 422 1919 422 
Q 2459 422 2753 634 
Q 3047 847 3047 1241 
Q 3047 1584 2836 1778 
Q 2625 1972 2144 2069 
L 1759 2144 
Q 1053 2284 737 2584 
Q 422 2884 422 3419 
Q 422 4038 858 4394 
Q 1294 4750 2059 4750 
Q 2388 4750 2728 4690 
Q 3069 4631 3425 4513 
z
" transform="scale(0.015625)"/>
        <path id="DejaVuSans-49" d="M 2375 4863 
L 2375 4384 
L 1825 4384 
Q 1516 4384 1395 4259 
Q 1275 4134 1275 3809 
L 1275 3500 
L 2222 3500 
L 2222 3053 
L 1275 3053 
L 1275 0 
L 697 0 
L 697 3053 
L 147 3053 
L 147 3500 
L 697 3500 
L 697 3744 
Q 697 4328 969 4595 
Q 1241 4863 1831 4863 
L 2375 4863 
z
" transform="scale(0.015625)"/>
       </defs>
       <use xlink:href="#DejaVuSans-36"/>
       <use xlink:href="#DejaVuSans-58" transform="translate(63.484375 0)"/>
       <use xlink:href="#DejaVuSans-46" transform="translate(126.859375 0)"/>
       <use xlink:href="#DejaVuSans-46" transform="translate(181.84375 0)"/>
       <use xlink:href="#DejaVuSans-48" transform="translate(236.828125 0)"/>
       <use xlink:href="#DejaVuSans-56" transform="translate(298.359375 0)"/>
       <use xlink:href="#DejaVuSans-56" transform="translate(350.453125 0)"/>
       <use xlink:href="#DejaVuSans-49" transform="translate(402.546875 0)"/>
       <use xlink:href="#DejaVuSans-58" transform="translate(437.75 0)"/>
       <use xlink:href="#DejaVuSans-4f" transform="translate(501.125 0)"/>
       <use xlink:href="#DejaVuSans-3" transform="translate(528.90625 0)"/>
       <use xlink:href="#DejaVuSans-53" transform="translate(560.6875 0)"/>
       <use xlink:href="#DejaVuSans-44" transform="translate(624.171875 0)"/>
       <use xlink:href="#DejaVuSans-55" transform="translate(685.453125 0)"/>
       <use xlink:href="#DejaVuSans-56" transform="translate(726.5625 0)"/>
       <use xlink:href="#DejaVuSans-48" transform="translate(778.65625 0)"/>
       <use xlink:href="#DejaVuSans-56" transform="translate(840.1875 0)"/>
      </g>
     </g>
    </g>
    <g id="ytick_6">
     <g id="line2d_38">
      <g>
       <use xlink:href="#mec71298e5f" x="140.696875" y="288.763341" style="fill: #1f2933; stroke: #1f2933; stroke-width: 0.8"/>
      </g>
     </g>
     <g id="text_10">
      <!-- Base LLM targets -->
      <g style="fill: #1f2933" transform="translate(47.601562 292.562169) scale(0.1 -0.1)">
       <defs>
        <path id="DejaVuSans-25" d="M 1259 2228 
L 1259 519 
L 2272 519 
Q 2781 519 3026 730 
Q 3272 941 3272 1375 
Q 3272 1813 3026 2020 
Q 2781 2228 2272 2228 
L 1259 2228 
z
M 1259 4147 
L 1259 2741 
L 2194 2741 
Q 2656 2741 2882 2914 
Q 3109 3088 3109 3444 
Q 3109 3797 2882 3972 
Q 2656 4147 2194 4147 
L 1259 4147 
z
M 628 4666 
L 2241 4666 
Q 2963 4666 3353 4366 
Q 3744 4066 3744 3513 
Q 3744 3084 3544 2831 
Q 3344 2578 2956 2516 
Q 3422 2416 3680 2098 
Q 3938 1781 3938 1306 
Q 3938 681 3513 340 
Q 3088 0 2303 0 
L 628 0 
L 628 4666 
z
" transform="scale(0.015625)"/>
        <path id="DejaVuSans-2f" d="M 628 4666 
L 1259 4666 
L 1259 531 
L 3531 531 
L 3531 0 
L 628 0 
L 628 4666 
z
" transform="scale(0.015625)"/>
        <path id="DejaVuSans-30" d="M 628 4666 
L 1569 4666 
L 2759 1491 
L 3956 4666 
L 4897 4666 
L 4897 0 
L 4281 0 
L 4281 4097 
L 3078 897 
L 2444 897 
L 1241 4097 
L 1241 0 
L 628 0 
L 628 4666 
z
" transform="scale(0.015625)"/>
       </defs>
       <use xlink:href="#DejaVuSans-25"/>
       <use xlink:href="#DejaVuSans-44" transform="translate(68.609375 0)"/>
       <use xlink:href="#DejaVuSans-56" transform="translate(129.890625 0)"/>
       <use xlink:href="#DejaVuSans-48" transform="translate(181.984375 0)"/>
       <use xlink:href="#DejaVuSans-3" transform="translate(243.515625 0)"/>
       <use xlink:href="#DejaVuSans-2f" transform="translate(275.296875 0)"/>
       <use xlink:href="#DejaVuSans-2f" transform="translate(331.015625 0)"/>
       <use xlink:href="#DejaVuSans-30" transform="translate(386.734375 0)"/>
       <use xlink:href="#DejaVuSans-3" transform="translate(473.015625 0)"/>
       <use xlink:href="#DejaVuSans-57" transform="translate(504.796875 0)"/>
       <use xlink:href="#DejaVuSans-44" transform="translate(544 0)"/>
       <use xlink:href="#DejaVuSans-55" transform="translate(605.28125 0)"/>
       <use xlink:href="#DejaVuSans-4a" transform="translate(644.640625 0)"/>
       <use xlink:href="#DejaVuSans-48" transform="translate(708.125 0)"/>
       <use xlink:href="#DejaVuSans-57" transform="translate(769.65625 0)"/>
       <use xlink:href="#DejaVuSans-56" transform="translate(808.859375 0)"/>
      </g>
     </g>
    </g>
    <g id="ytick_7">
     <g id="line2d_39">
      <g>
       <use xlink:href="#mec71298e5f" x="140.696875" y="333.994111" style="fill: #1f2933; stroke: #1f2933; stroke-width: 0.8"/>
      </g>
     </g>
     <g id="text_11">
      <!-- Final LLM targets -->
      <g style="fill: #1f2933" transform="translate(48.907813 337.793329) scale(0.1 -0.1)">
       <defs>
        <path id="DejaVuSans-29" d="M 628 4666 
L 3309 4666 
L 3309 4134 
L 1259 4134 
L 1259 2759 
L 3109 2759 
L 3109 2228 
L 1259 2228 
L 1259 0 
L 628 0 
L 628 4666 
z
" transform="scale(0.015625)"/>
       </defs>
       <use xlink:href="#DejaVuSans-29"/>
       <use xlink:href="#DejaVuSans-4c" transform="translate(50.234375 0)"/>
       <use xlink:href="#DejaVuSans-51" transform="translate(78.015625 0)"/>
       <use xlink:href="#DejaVuSans-44" transform="translate(141.390625 0)"/>
       <use xlink:href="#DejaVuSans-4f" transform="translate(202.671875 0)"/>
       <use xlink:href="#DejaVuSans-3" transform="translate(230.453125 0)"/>
       <use xlink:href="#DejaVuSans-2f" transform="translate(262.234375 0)"/>
       <use xlink:href="#DejaVuSans-2f" transform="translate(317.953125 0)"/>
       <use xlink:href="#DejaVuSans-30" transform="translate(373.671875 0)"/>
       <use xlink:href="#DejaVuSans-3" transform="translate(459.953125 0)"/>
       <use xlink:href="#DejaVuSans-57" transform="translate(491.734375 0)"/>
       <use xlink:href="#DejaVuSans-44" transform="translate(530.9375 0)"/>
       <use xlink:href="#DejaVuSans-55" transform="translate(592.21875 0)"/>
       <use xlink:href="#DejaVuSans-4a" transform="translate(631.578125 0)"/>
       <use xlink:href="#DejaVuSans-48" transform="translate(695.0625 0)"/>
       <use xlink:href="#DejaVuSans-57" transform="translate(756.59375 0)"/>
       <use xlink:href="#DejaVuSans-56" transform="translate(795.796875 0)"/>
      </g>
     </g>
    </g>
    <g id="ytick_8">
     <g id="line2d_40">
      <g>
       <use xlink:href="#mec71298e5f" x="140.696875" y="379.22488" style="fill: #1f2933; stroke: #1f2933; stroke-width: 0.8"/>
      </g>
     </g>
     <g id="text_12">
      <!-- Final LLM controls -->
      <g style="fill: #1f2933" transform="translate(44.651562 383.024099) scale(0.1 -0.1)">
       <use xlink:href="#DejaVuSans-29"/>
       <use xlink:href="#DejaVuSans-4c" transform="translate(50.234375 0)"/>
       <use xlink:href="#DejaVuSans-51" transform="translate(78.015625 0)"/>
       <use xlink:href="#DejaVuSans-44" transform="translate(141.390625 0)"/>
       <use xlink:href="#DejaVuSans-4f" transform="translate(202.671875 0)"/>
       <use xlink:href="#DejaVuSans-3" transform="translate(230.453125 0)"/>
       <use xlink:href="#DejaVuSans-2f" transform="translate(262.234375 0)"/>
       <use xlink:href="#DejaVuSans-2f" transform="translate(317.953125 0)"/>
       <use xlink:href="#DejaVuSans-30" transform="translate(373.671875 0)"/>
       <use xlink:href="#DejaVuSans-3" transform="translate(459.953125 0)"/>
       <use xlink:href="#DejaVuSans-46" transform="translate(491.734375 0)"/>
       <use xlink:href="#DejaVuSans-52" transform="translate(546.71875 0)"/>
       <use xlink:href="#DejaVuSans-51" transform="translate(607.90625 0)"/>
       <use xlink:href="#DejaVuSans-57" transform="translate(671.28125 0)"/>
       <use xlink:href="#DejaVuSans-55" transform="translate(710.484375 0)"/>
       <use xlink:href="#DejaVuSans-52" transform="translate(749.390625 0)"/>
       <use xlink:href="#DejaVuSans-4f" transform="translate(810.578125 0)"/>
       <use xlink:href="#DejaVuSans-56" transform="translate(838.359375 0)"/>
      </g>
     </g>
    </g>
   </g>
   <g id="patch_11">
    <path d="M 140.696875 414.957187 
L 140.696875 26.877187 
" style="fill: none; stroke: #b7c3cf; stroke-width: 0.8; stroke-linejoin: miter; stroke-linecap: square"/>
   </g>
   <g id="patch_12">
    <path d="M 866.096875 414.957187 
L 866.096875 26.877187 
" style="fill: none; stroke: #b7c3cf; stroke-width: 0.8; stroke-linejoin: miter; stroke-linecap: square"/>
   </g>
   <g id="patch_13">
    <path d="M 140.696875 414.957187 
L 866.096875 414.957187 
" style="fill: none; stroke: #b7c3cf; stroke-width: 0.8; stroke-linejoin: miter; stroke-linecap: square"/>
   </g>
   <g id="patch_14">
    <path d="M 140.696875 26.877187 
L 866.096875 26.877187 
" style="fill: none; stroke: #b7c3cf; stroke-width: 0.8; stroke-linejoin: miter; stroke-linecap: square"/>
   </g>
   <g id="text_13">
    <!-- 223,452 -->
    <g style="fill: #1f2933" transform="translate(834.967109 65.726683) scale(0.12 -0.12)">
     <defs>
      <path id="DejaVuSans-Bold-15" d="M 1844 884 
L 3897 884 
L 3897 0 
L 506 0 
L 506 884 
L 2209 2388 
Q 2438 2594 2547 2791 
Q 2656 2988 2656 3200 
Q 2656 3528 2436 3728 
Q 2216 3928 1850 3928 
Q 1569 3928 1234 3808 
Q 900 3688 519 3450 
L 519 4475 
Q 925 4609 1322 4679 
Q 1719 4750 2100 4750 
Q 2938 4750 3402 4381 
Q 3866 4013 3866 3353 
Q 3866 2972 3669 2642 
Q 3472 2313 2841 1759 
L 1844 884 
z
" transform="scale(0.015625)"/>
      <path id="DejaVuSans-Bold-16" d="M 2981 2516 
Q 3453 2394 3698 2092 
Q 3944 1791 3944 1325 
Q 3944 631 3412 270 
Q 2881 -91 1863 -91 
Q 1503 -91 1142 -33 
Q 781 25 428 141 
L 428 1069 
Q 766 900 1098 814 
Q 1431 728 1753 728 
Q 2231 728 2486 893 
Q 2741 1059 2741 1369 
Q 2741 1688 2480 1852 
Q 2219 2016 1709 2016 
L 1228 2016 
L 1228 2791 
L 1734 2791 
Q 2188 2791 2409 2933 
Q 2631 3075 2631 3366 
Q 2631 3634 2415 3781 
Q 2200 3928 1806 3928 
Q 1516 3928 1219 3862 
Q 922 3797 628 3669 
L 628 4550 
Q 984 4650 1334 4700 
Q 1684 4750 2022 4750 
Q 2931 4750 3382 4451 
Q 3834 4153 3834 3553 
Q 3834 3144 3618 2883 
Q 3403 2622 2981 2516 
z
" transform="scale(0.015625)"/>
      <path id="DejaVuSans-Bold-f" d="M 653 1209 
L 1778 1209 
L 1778 256 
L 1006 -909 
L 341 -909 
L 653 256 
L 653 1209 
z
" transform="scale(0.015625)"/>
      <path id="DejaVuSans-Bold-17" d="M 2356 3675 
L 1038 1722 
L 2356 1722 
L 2356 3675 
z
M 2156 4666 
L 3494 4666 
L 3494 1722 
L 4159 1722 
L 4159 850 
L 3494 850 
L 3494 0 
L 2356 0 
L 2356 850 
L 288 850 
L 288 1881 
L 2156 4666 
z
" transform="scale(0.015625)"/>
      <path id="DejaVuSans-Bold-18" d="M 678 4666 
L 3669 4666 
L 3669 3781 
L 1638 3781 
L 1638 3059 
Q 1775 3097 1914 3117 
Q 2053 3138 2203 3138 
Q 3056 3138 3531 2711 
Q 4006 2284 4006 1522 
Q 4006 766 3489 337 
Q 2972 -91 2053 -91 
Q 1656 -91 1267 -14 
Q 878 63 494 219 
L 494 1166 
Q 875 947 1217 837 
Q 1559 728 1863 728 
Q 2300 728 2551 942 
Q 2803 1156 2803 1522 
Q 2803 1891 2551 2103 
Q 2300 2316 1863 2316 
Q 1603 2316 1309 2248 
Q 1016 2181 678 2041 
L 678 4666 
z
" transform="scale(0.015625)"/>
     </defs>
     <use xlink:href="#DejaVuSans-Bold-15"/>
     <use xlink:href="#DejaVuSans-Bold-15" transform="translate(69.578125 0)"/>
     <use xlink:href="#DejaVuSans-Bold-16" transform="translate(139.15625 0)"/>
     <use xlink:href="#DejaVuSans-Bold-f" transform="translate(208.734375 0)"/>
     <use xlink:href="#DejaVuSans-Bold-17" transform="translate(246.71875 0)"/>
     <use xlink:href="#DejaVuSans-Bold-18" transform="translate(316.296875 0)"/>
     <use xlink:href="#DejaVuSans-Bold-15" transform="translate(385.875 0)"/>
    </g>
   </g>
   <g id="text_14">
    <!-- 70,094 -->
    <g style="fill: #1f2933" transform="translate(727.069599 110.957452) scale(0.12 -0.12)">
     <defs>
      <path id="DejaVuSans-Bold-1a" d="M 428 4666 
L 3944 4666 
L 3944 3988 
L 2125 0 
L 953 0 
L 2675 3781 
L 428 3781 
L 428 4666 
z
" transform="scale(0.015625)"/>
      <path id="DejaVuSans-Bold-13" d="M 2944 2338 
Q 2944 3213 2780 3570 
Q 2616 3928 2228 3928 
Q 1841 3928 1675 3570 
Q 1509 3213 1509 2338 
Q 1509 1453 1675 1090 
Q 1841 728 2228 728 
Q 2613 728 2778 1090 
Q 2944 1453 2944 2338 
z
M 4147 2328 
Q 4147 1169 3647 539 
Q 3147 -91 2228 -91 
Q 1306 -91 806 539 
Q 306 1169 306 2328 
Q 306 3491 806 4120 
Q 1306 4750 2228 4750 
Q 3147 4750 3647 4120 
Q 4147 3491 4147 2328 
z
" transform="scale(0.015625)"/>
      <path id="DejaVuSans-Bold-1c" d="M 641 103 
L 641 966 
Q 928 831 1190 764 
Q 1453 697 1709 697 
Q 2247 697 2547 995 
Q 2847 1294 2900 1881 
Q 2688 1725 2447 1647 
Q 2206 1569 1925 1569 
Q 1209 1569 770 1986 
Q 331 2403 331 3084 
Q 331 3838 820 4291 
Q 1309 4744 2131 4744 
Q 3044 4744 3544 4128 
Q 4044 3513 4044 2388 
Q 4044 1231 3459 570 
Q 2875 -91 1856 -91 
Q 1528 -91 1228 -42 
Q 928 6 641 103 
z
M 2125 2350 
Q 2441 2350 2600 2554 
Q 2759 2759 2759 3169 
Q 2759 3575 2600 3781 
Q 2441 3988 2125 3988 
Q 1809 3988 1650 3781 
Q 1491 3575 1491 3169 
Q 1491 2759 1650 2554 
Q 1809 2350 2125 2350 
z
" transform="scale(0.015625)"/>
     </defs>
     <use xlink:href="#DejaVuSans-Bold-1a"/>
     <use xlink:href="#DejaVuSans-Bold-13" transform="translate(69.578125 0)"/>
     <use xlink:href="#DejaVuSans-Bold-f" transform="translate(139.15625 0)"/>
     <use xlink:href="#DejaVuSans-Bold-13" transform="translate(177.140625 0)"/>
     <use xlink:href="#DejaVuSans-Bold-1c" transform="translate(246.71875 0)"/>
     <use xlink:href="#DejaVuSans-Bold-17" transform="translate(316.296875 0)"/>
    </g>
   </g>
   <g id="text_15">
    <!-- 194,917 -->
    <g style="fill: #1f2933" transform="translate(822.252105 156.188221) scale(0.12 -0.12)">
     <defs>
      <path id="DejaVuSans-Bold-14" d="M 750 831 
L 1813 831 
L 1813 3847 
L 722 3622 
L 722 4441 
L 1806 4666 
L 2950 4666 
L 2950 831 
L 4013 831 
L 4013 0 
L 750 0 
L 750 831 
z
" transform="scale(0.015625)"/>
     </defs>
     <use xlink:href="#DejaVuSans-Bold-14"/>
     <use xlink:href="#DejaVuSans-Bold-1c" transform="translate(69.578125 0)"/>
     <use xlink:href="#DejaVuSans-Bold-17" transform="translate(139.15625 0)"/>
     <use xlink:href="#DejaVuSans-Bold-f" transform="translate(208.734375 0)"/>
     <use xlink:href="#DejaVuSans-Bold-1c" transform="translate(246.71875 0)"/>
     <use xlink:href="#DejaVuSans-Bold-14" transform="translate(316.296875 0)"/>
     <use xlink:href="#DejaVuSans-Bold-1a" transform="translate(385.875 0)"/>
    </g>
   </g>
   <g id="text_16">
    <!-- 160,095 -->
    <g style="fill: #1f2933" transform="translate(803.936021 201.41899) scale(0.12 -0.12)">
     <defs>
      <path id="DejaVuSans-Bold-19" d="M 2316 2303 
Q 2000 2303 1842 2098 
Q 1684 1894 1684 1484 
Q 1684 1075 1842 870 
Q 2000 666 2316 666 
Q 2634 666 2792 870 
Q 2950 1075 2950 1484 
Q 2950 1894 2792 2098 
Q 2634 2303 2316 2303 
z
M 3803 4544 
L 3803 3681 
Q 3506 3822 3243 3889 
Q 2981 3956 2731 3956 
Q 2194 3956 1894 3657 
Q 1594 3359 1544 2772 
Q 1750 2925 1990 3001 
Q 2231 3078 2516 3078 
Q 3231 3078 3670 2659 
Q 4109 2241 4109 1563 
Q 4109 813 3618 361 
Q 3128 -91 2303 -91 
Q 1394 -91 895 523 
Q 397 1138 397 2266 
Q 397 3422 980 4083 
Q 1563 4744 2578 4744 
Q 2900 4744 3203 4694 
Q 3506 4644 3803 4544 
z
" transform="scale(0.015625)"/>
     </defs>
     <use xlink:href="#DejaVuSans-Bold-14"/>
     <use xlink:href="#DejaVuSans-Bold-19" transform="translate(69.578125 0)"/>
     <use xlink:href="#DejaVuSans-Bold-13" transform="translate(139.15625 0)"/>
     <use xlink:href="#DejaVuSans-Bold-f" transform="translate(208.734375 0)"/>
     <use xlink:href="#DejaVuSans-Bold-13" transform="translate(246.71875 0)"/>
     <use xlink:href="#DejaVuSans-Bold-1c" transform="translate(316.296875 0)"/>
     <use xlink:href="#DejaVuSans-Bold-18" transform="translate(385.875 0)"/>
    </g>
   </g>
   <g id="text_17">
    <!-- 160,093 -->
    <g style="fill: #1f2933" transform="translate(803.934858 246.64976) scale(0.12 -0.12)">
     <use xlink:href="#DejaVuSans-Bold-14"/>
     <use xlink:href="#DejaVuSans-Bold-19" transform="translate(69.578125 0)"/>
     <use xlink:href="#DejaVuSans-Bold-13" transform="translate(139.15625 0)"/>
     <use xlink:href="#DejaVuSans-Bold-f" transform="translate(208.734375 0)"/>
     <use xlink:href="#DejaVuSans-Bold-13" transform="translate(246.71875 0)"/>
     <use xlink:href="#DejaVuSans-Bold-1c" transform="translate(316.296875 0)"/>
     <use xlink:href="#DejaVuSans-Bold-16" transform="translate(385.875 0)"/>
    </g>
   </g>
   <g id="text_18">
    <!-- 351 -->
    <g style="fill: #1f2933" transform="translate(234.114446 291.880529) scale(0.12 -0.12)">
     <use xlink:href="#DejaVuSans-Bold-16"/>
     <use xlink:href="#DejaVuSans-Bold-18" transform="translate(69.578125 0)"/>
     <use xlink:href="#DejaVuSans-Bold-14" transform="translate(139.15625 0)"/>
    </g>
   </g>
   <g id="text_19">
    <!-- 187 -->
    <g style="fill: #1f2933" transform="translate(175.512563 337.111298) scale(0.12 -0.12)">
     <defs>
      <path id="DejaVuSans-Bold-1b" d="M 2228 2088 
Q 1891 2088 1709 1903 
Q 1528 1719 1528 1375 
Q 1528 1031 1709 848 
Q 1891 666 2228 666 
Q 2563 666 2741 848 
Q 2919 1031 2919 1375 
Q 2919 1722 2741 1905 
Q 2563 2088 2228 2088 
z
M 1350 2484 
Q 925 2613 709 2878 
Q 494 3144 494 3541 
Q 494 4131 934 4440 
Q 1375 4750 2228 4750 
Q 3075 4750 3515 4442 
Q 3956 4134 3956 3541 
Q 3956 3144 3739 2878 
Q 3522 2613 3097 2484 
Q 3572 2353 3814 2058 
Q 4056 1763 4056 1313 
Q 4056 619 3595 264 
Q 3134 -91 2228 -91 
Q 1319 -91 855 264 
Q 391 619 391 1313 
Q 391 1763 633 2058 
Q 875 2353 1350 2484 
z
M 1631 3419 
Q 1631 3141 1786 2991 
Q 1941 2841 2228 2841 
Q 2509 2841 2662 2991 
Q 2816 3141 2816 3419 
Q 2816 3697 2662 3845 
Q 2509 3994 2228 3994 
Q 1941 3994 1786 3844 
Q 1631 3694 1631 3419 
z
" transform="scale(0.015625)"/>
     </defs>
     <use xlink:href="#DejaVuSans-Bold-14"/>
     <use xlink:href="#DejaVuSans-Bold-1b" transform="translate(69.578125 0)"/>
     <use xlink:href="#DejaVuSans-Bold-1a" transform="translate(139.15625 0)"/>
    </g>
   </g>
   <g id="text_20">
    <!-- 7,643 -->
    <g style="fill: #1f2933" transform="translate(520.829889 382.342067) scale(0.12 -0.12)">
     <use xlink:href="#DejaVuSans-Bold-1a"/>
     <use xlink:href="#DejaVuSans-Bold-f" transform="translate(69.578125 0)"/>
     <use xlink:href="#DejaVuSans-Bold-19" transform="translate(107.5625 0)"/>
     <use xlink:href="#DejaVuSans-Bold-17" transform="translate(177.140625 0)"/>
     <use xlink:href="#DejaVuSans-Bold-16" transform="translate(246.71875 0)"/>
    </g>
   </g>
   <g id="text_21">
    <!-- Note: standard model and LLM parser starts are related but not identical denominators. -->
    <g style="fill: #5f7182" transform="translate(140.696875 484.811587) scale(0.1 -0.1)">
     <defs>
      <path id="DejaVuSans-31" d="M 628 4666 
L 1478 4666 
L 3547 763 
L 3547 4666 
L 4159 4666 
L 4159 0 
L 3309 0 
L 1241 3903 
L 1241 0 
L 628 0 
L 628 4666 
z
" transform="scale(0.015625)"/>
      <path id="DejaVuSans-1d" d="M 750 794 
L 1409 794 
L 1409 0 
L 750 0 
L 750 794 
z
M 750 3309 
L 1409 3309 
L 1409 2516 
L 750 2516 
L 750 3309 
z
" transform="scale(0.015625)"/>
      <path id="DejaVuSans-45" d="M 3116 1747 
Q 3116 2381 2855 2742 
Q 2594 3103 2138 3103 
Q 1681 3103 1420 2742 
Q 1159 2381 1159 1747 
Q 1159 1113 1420 752 
Q 1681 391 2138 391 
Q 2594 391 2855 752 
Q 3116 1113 3116 1747 
z
M 1159 2969 
Q 1341 3281 1617 3432 
Q 1894 3584 2278 3584 
Q 2916 3584 3314 3078 
Q 3713 2572 3713 1747 
Q 3713 922 3314 415 
Q 2916 -91 2278 -91 
Q 1894 -91 1617 61 
Q 1341 213 1159 525 
L 1159 0 
L 581 0 
L 581 4863 
L 1159 4863 
L 1159 2969 
z
" transform="scale(0.015625)"/>
      <path id="DejaVuSans-11" d="M 684 794 
L 1344 794 
L 1344 0 
L 684 0 
L 684 794 
z
" transform="scale(0.015625)"/>
     </defs>
     <use xlink:href="#DejaVuSans-31"/>
     <use xlink:href="#DejaVuSans-52" transform="translate(74.8125 0)"/>
     <use xlink:href="#DejaVuSans-57" transform="translate(136 0)"/>
     <use xlink:href="#DejaVuSans-48" transform="translate(175.203125 0)"/>
     <use xlink:href="#DejaVuSans-1d" transform="translate(236.734375 0)"/>
     <use xlink:href="#DejaVuSans-3" transform="translate(270.421875 0)"/>
     <use xlink:href="#DejaVuSans-56" transform="translate(302.203125 0)"/>
     <use xlink:href="#DejaVuSans-57" transform="translate(354.296875 0)"/>
     <use xlink:href="#DejaVuSans-44" transform="translate(393.5 0)"/>
     <use xlink:href="#DejaVuSans-51" transform="translate(454.78125 0)"/>
     <use xlink:href="#DejaVuSans-47" transform="translate(518.15625 0)"/>
     <use xlink:href="#DejaVuSans-44" transform="translate(581.640625 0)"/>
     <use xlink:href="#DejaVuSans-55" transform="translate(642.921875 0)"/>
     <use xlink:href="#DejaVuSans-47" transform="translate(682.28125 0)"/>
     <use xlink:href="#DejaVuSans-3" transform="translate(745.765625 0)"/>
     <use xlink:href="#DejaVuSans-50" transform="translate(777.546875 0)"/>
     <use xlink:href="#DejaVuSans-52" transform="translate(874.953125 0)"/>
     <use xlink:href="#DejaVuSans-47" transform="translate(936.140625 0)"/>
     <use xlink:href="#DejaVuSans-48" transform="translate(999.625 0)"/>
     <use xlink:href="#DejaVuSans-4f" transform="translate(1061.15625 0)"/>
     <use xlink:href="#DejaVuSans-3" transform="translate(1088.9375 0)"/>
     <use xlink:href="#DejaVuSans-44" transform="translate(1120.71875 0)"/>
     <use xlink:href="#DejaVuSans-51" transform="translate(1182 0)"/>
     <use xlink:href="#DejaVuSans-47" transform="translate(1245.375 0)"/>
     <use xlink:href="#DejaVuSans-3" transform="translate(1308.859375 0)"/>
     <use xlink:href="#DejaVuSans-2f" transform="translate(1340.640625 0)"/>
     <use xlink:href="#DejaVuSans-2f" transform="translate(1396.359375 0)"/>
     <use xlink:href="#DejaVuSans-30" transform="translate(1452.078125 0)"/>
     <use xlink:href="#DejaVuSans-3" transform="translate(1538.359375 0)"/>
     <use xlink:href="#DejaVuSans-53" transform="translate(1570.140625 0)"/>
     <use xlink:href="#DejaVuSans-44" transform="translate(1633.625 0)"/>
     <use xlink:href="#DejaVuSans-55" transform="translate(1694.90625 0)"/>
     <use xlink:href="#DejaVuSans-56" transform="translate(1736.015625 0)"/>
     <use xlink:href="#DejaVuSans-48" transform="translate(1788.109375 0)"/>
     <use xlink:href="#DejaVuSans-55" transform="translate(1849.640625 0)"/>
     <use xlink:href="#DejaVuSans-3" transform="translate(1890.75 0)"/>
     <use xlink:href="#DejaVuSans-56" transform="translate(1922.53125 0)"/>
     <use xlink:href="#DejaVuSans-57" transform="translate(1974.625 0)"/>
     <use xlink:href="#DejaVuSans-44" transform="translate(2013.828125 0)"/>
     <use xlink:href="#DejaVuSans-55" transform="translate(2075.109375 0)"/>
     <use xlink:href="#DejaVuSans-57" transform="translate(2116.21875 0)"/>
     <use xlink:href="#DejaVuSans-56" transform="translate(2155.421875 0)"/>
     <use xlink:href="#DejaVuSans-3" transform="translate(2207.515625 0)"/>
     <use xlink:href="#DejaVuSans-44" transform="translate(2239.296875 0)"/>
     <use xlink:href="#DejaVuSans-55" transform="translate(2300.578125 0)"/>
     <use xlink:href="#DejaVuSans-48" transform="translate(2339.484375 0)"/>
     <use xlink:href="#DejaVuSans-3" transform="translate(2401.015625 0)"/>
     <use xlink:href="#DejaVuSans-55" transform="translate(2432.796875 0)"/>
     <use xlink:href="#DejaVuSans-48" transform="translate(2471.703125 0)"/>
     <use xlink:href="#DejaVuSans-4f" transform="translate(2533.234375 0)"/>
     <use xlink:href="#DejaVuSans-44" transform="translate(2561.015625 0)"/>
     <use xlink:href="#DejaVuSans-57" transform="translate(2622.296875 0)"/>
     <use xlink:href="#DejaVuSans-48" transform="translate(2661.5 0)"/>
     <use xlink:href="#DejaVuSans-47" transform="translate(2723.03125 0)"/>
     <use xlink:href="#DejaVuSans-3" transform="translate(2786.515625 0)"/>
     <use xlink:href="#DejaVuSans-45" transform="translate(2818.296875 0)"/>
     <use xlink:href="#DejaVuSans-58" transform="translate(2881.78125 0)"/>
     <use xlink:href="#DejaVuSans-57" transform="translate(2945.15625 0)"/>
     <use xlink:href="#DejaVuSans-3" transform="translate(2984.359375 0)"/>
     <use xlink:href="#DejaVuSans-51" transform="translate(3016.140625 0)"/>
     <use xlink:href="#DejaVuSans-52" transform="translate(3079.515625 0)"/>
     <use xlink:href="#DejaVuSans-57" transform="translate(3140.703125 0)"/>
     <use xlink:href="#DejaVuSans-3" transform="translate(3179.90625 0)"/>
     <use xlink:href="#DejaVuSans-4c" transform="translate(3211.6875 0)"/>
     <use xlink:href="#DejaVuSans-47" transform="translate(3239.46875 0)"/>
     <use xlink:href="#DejaVuSans-48" transform="translate(3302.953125 0)"/>
     <use xlink:href="#DejaVuSans-51" transform="translate(3364.484375 0)"/>
     <use xlink:href="#DejaVuSans-57" transform="translate(3427.859375 0)"/>
     <use xlink:href="#DejaVuSans-4c" transform="translate(3467.0625 0)"/>
     <use xlink:href="#DejaVuSans-46" transform="translate(3494.84375 0)"/>
     <use xlink:href="#DejaVuSans-44" transform="translate(3549.828125 0)"/>
     <use xlink:href="#DejaVuSans-4f" transform="translate(3611.109375 0)"/>
     <use xlink:href="#DejaVuSans-3" transform="translate(3638.890625 0)"/>
     <use xlink:href="#DejaVuSans-47" transform="translate(3670.671875 0)"/>
     <use xlink:href="#DejaVuSans-48" transform="translate(3734.15625 0)"/>
     <use xlink:href="#DejaVuSans-51" transform="translate(3795.6875 0)"/>
     <use xlink:href="#DejaVuSans-52" transform="translate(3859.0625 0)"/>
     <use xlink:href="#DejaVuSans-50" transform="translate(3920.25 0)"/>
     <use xlink:href="#DejaVuSans-4c" transform="translate(4017.65625 0)"/>
     <use xlink:href="#DejaVuSans-51" transform="translate(4045.4375 0)"/>
     <use xlink:href="#DejaVuSans-44" transform="translate(4108.8125 0)"/>
     <use xlink:href="#DejaVuSans-57" transform="translate(4170.09375 0)"/>
     <use xlink:href="#DejaVuSans-52" transform="translate(4209.296875 0)"/>
     <use xlink:href="#DejaVuSans-55" transform="translate(4270.484375 0)"/>
     <use xlink:href="#DejaVuSans-56" transform="translate(4311.59375 0)"/>
     <use xlink:href="#DejaVuSans-11" transform="translate(4363.6875 0)"/>
    </g>
   </g>
   <g id="text_22">
    <!-- Cohort attrition and derived cohort yield -->
    <g style="fill: #1f2933" transform="translate(296.596563 20.877187) scale(0.18 -0.18)">
     <defs>
      <path id="DejaVuSans-Bold-26" d="M 4288 256 
Q 3956 84 3597 -3 
Q 3238 -91 2847 -91 
Q 1681 -91 1000 561 
Q 319 1213 319 2328 
Q 319 3447 1000 4098 
Q 1681 4750 2847 4750 
Q 3238 4750 3597 4662 
Q 3956 4575 4288 4403 
L 4288 3438 
Q 3953 3666 3628 3772 
Q 3303 3878 2944 3878 
Q 2300 3878 1931 3465 
Q 1563 3053 1563 2328 
Q 1563 1606 1931 1193 
Q 2300 781 2944 781 
Q 3303 781 3628 887 
Q 3953 994 4288 1222 
L 4288 256 
z
" transform="scale(0.015625)"/>
      <path id="DejaVuSans-Bold-52" d="M 2203 2784 
Q 1831 2784 1636 2517 
Q 1441 2250 1441 1747 
Q 1441 1244 1636 976 
Q 1831 709 2203 709 
Q 2569 709 2762 976 
Q 2956 1244 2956 1747 
Q 2956 2250 2762 2517 
Q 2569 2784 2203 2784 
z
M 2203 3584 
Q 3106 3584 3614 3096 
Q 4122 2609 4122 1747 
Q 4122 884 3614 396 
Q 3106 -91 2203 -91 
Q 1297 -91 786 396 
Q 275 884 275 1747 
Q 275 2609 786 3096 
Q 1297 3584 2203 3584 
z
" transform="scale(0.015625)"/>
      <path id="DejaVuSans-Bold-4b" d="M 4056 2131 
L 4056 0 
L 2931 0 
L 2931 347 
L 2931 1625 
Q 2931 2084 2911 2256 
Q 2891 2428 2841 2509 
Q 2775 2619 2662 2680 
Q 2550 2741 2406 2741 
Q 2056 2741 1856 2470 
Q 1656 2200 1656 1722 
L 1656 0 
L 538 0 
L 538 4863 
L 1656 4863 
L 1656 2988 
Q 1909 3294 2193 3439 
Q 2478 3584 2822 3584 
Q 3428 3584 3742 3212 
Q 4056 2841 4056 2131 
z
" transform="scale(0.015625)"/>
      <path id="DejaVuSans-Bold-55" d="M 3138 2547 
Q 2991 2616 2845 2648 
Q 2700 2681 2553 2681 
Q 2122 2681 1889 2404 
Q 1656 2128 1656 1613 
L 1656 0 
L 538 0 
L 538 3500 
L 1656 3500 
L 1656 2925 
Q 1872 3269 2151 3426 
Q 2431 3584 2822 3584 
Q 2878 3584 2943 3579 
Q 3009 3575 3134 3559 
L 3138 2547 
z
" transform="scale(0.015625)"/>
      <path id="DejaVuSans-Bold-57" d="M 1759 4494 
L 1759 3500 
L 2913 3500 
L 2913 2700 
L 1759 2700 
L 1759 1216 
Q 1759 972 1856 886 
Q 1953 800 2241 800 
L 2816 800 
L 2816 0 
L 1856 0 
Q 1194 0 917 276 
Q 641 553 641 1216 
L 641 2700 
L 84 2700 
L 84 3500 
L 641 3500 
L 641 4494 
L 1759 4494 
z
" transform="scale(0.015625)"/>
      <path id="DejaVuSans-Bold-3" transform="scale(0.015625)"/>
      <path id="DejaVuSans-Bold-44" d="M 2106 1575 
Q 1756 1575 1579 1456 
Q 1403 1338 1403 1106 
Q 1403 894 1545 773 
Q 1688 653 1941 653 
Q 2256 653 2472 879 
Q 2688 1106 2688 1447 
L 2688 1575 
L 2106 1575 
z
M 3816 1997 
L 3816 0 
L 2688 0 
L 2688 519 
Q 2463 200 2181 54 
Q 1900 -91 1497 -91 
Q 953 -91 614 226 
Q 275 544 275 1050 
Q 275 1666 698 1953 
Q 1122 2241 2028 2241 
L 2688 2241 
L 2688 2328 
Q 2688 2594 2478 2717 
Q 2269 2841 1825 2841 
Q 1466 2841 1156 2769 
Q 847 2697 581 2553 
L 581 3406 
Q 941 3494 1303 3539 
Q 1666 3584 2028 3584 
Q 2975 3584 3395 3211 
Q 3816 2838 3816 1997 
z
" transform="scale(0.015625)"/>
      <path id="DejaVuSans-Bold-4c" d="M 538 3500 
L 1656 3500 
L 1656 0 
L 538 0 
L 538 3500 
z
M 538 4863 
L 1656 4863 
L 1656 3950 
L 538 3950 
L 538 4863 
z
" transform="scale(0.015625)"/>
      <path id="DejaVuSans-Bold-51" d="M 4056 2131 
L 4056 0 
L 2931 0 
L 2931 347 
L 2931 1631 
Q 2931 2084 2911 2256 
Q 2891 2428 2841 2509 
Q 2775 2619 2662 2680 
Q 2550 2741 2406 2741 
Q 2056 2741 1856 2470 
Q 1656 2200 1656 1722 
L 1656 0 
L 538 0 
L 538 3500 
L 1656 3500 
L 1656 2988 
Q 1909 3294 2193 3439 
Q 2478 3584 2822 3584 
Q 3428 3584 3742 3212 
Q 4056 2841 4056 2131 
z
" transform="scale(0.015625)"/>
      <path id="DejaVuSans-Bold-47" d="M 2919 2988 
L 2919 4863 
L 4044 4863 
L 4044 0 
L 2919 0 
L 2919 506 
Q 2688 197 2409 53 
Q 2131 -91 1766 -91 
Q 1119 -91 703 423 
Q 288 938 288 1747 
Q 288 2556 703 3070 
Q 1119 3584 1766 3584 
Q 2128 3584 2408 3439 
Q 2688 3294 2919 2988 
z
M 2181 722 
Q 2541 722 2730 984 
Q 2919 1247 2919 1747 
Q 2919 2247 2730 2509 
Q 2541 2772 2181 2772 
Q 1825 2772 1636 2509 
Q 1447 2247 1447 1747 
Q 1447 1247 1636 984 
Q 1825 722 2181 722 
z
" transform="scale(0.015625)"/>
      <path id="DejaVuSans-Bold-48" d="M 4031 1759 
L 4031 1441 
L 1416 1441 
Q 1456 1047 1700 850 
Q 1944 653 2381 653 
Q 2734 653 3104 758 
Q 3475 863 3866 1075 
L 3866 213 
Q 3469 63 3072 -14 
Q 2675 -91 2278 -91 
Q 1328 -91 801 392 
Q 275 875 275 1747 
Q 275 2603 792 3093 
Q 1309 3584 2216 3584 
Q 3041 3584 3536 3087 
Q 4031 2591 4031 1759 
z
M 2881 2131 
Q 2881 2450 2695 2645 
Q 2509 2841 2209 2841 
Q 1884 2841 1681 2658 
Q 1478 2475 1428 2131 
L 2881 2131 
z
" transform="scale(0.015625)"/>
      <path id="DejaVuSans-Bold-59" d="M 97 3500 
L 1216 3500 
L 2088 1081 
L 2956 3500 
L 4078 3500 
L 2700 0 
L 1472 0 
L 97 3500 
z
" transform="scale(0.015625)"/>
      <path id="DejaVuSans-Bold-46" d="M 3366 3391 
L 3366 2478 
Q 3138 2634 2908 2709 
Q 2678 2784 2431 2784 
Q 1963 2784 1702 2511 
Q 1441 2238 1441 1747 
Q 1441 1256 1702 982 
Q 1963 709 2431 709 
Q 2694 709 2930 787 
Q 3166 866 3366 1019 
L 3366 103 
Q 3103 6 2833 -42 
Q 2563 -91 2291 -91 
Q 1344 -91 809 395 
Q 275 881 275 1747 
Q 275 2613 809 3098 
Q 1344 3584 2291 3584 
Q 2566 3584 2833 3536 
Q 3100 3488 3366 3391 
z
" transform="scale(0.015625)"/>
      <path id="DejaVuSans-Bold-5c" d="M 78 3500 
L 1197 3500 
L 2138 1125 
L 2938 3500 
L 4056 3500 
L 2584 -331 
Q 2363 -916 2067 -1148 
Q 1772 -1381 1288 -1381 
L 641 -1381 
L 641 -647 
L 991 -647 
Q 1275 -647 1404 -556 
Q 1534 -466 1606 -231 
L 1638 -134 
L 78 3500 
z
" transform="scale(0.015625)"/>
      <path id="DejaVuSans-Bold-4f" d="M 538 4863 
L 1656 4863 
L 1656 0 
L 538 0 
L 538 4863 
z
" transform="scale(0.015625)"/>
     </defs>
     <use xlink:href="#DejaVuSans-Bold-26"/>
     <use xlink:href="#DejaVuSans-Bold-52" transform="translate(73.390625 0)"/>
     <use xlink:href="#DejaVuSans-Bold-4b" transform="translate(142.09375 0)"/>
     <use xlink:href="#DejaVuSans-Bold-52" transform="translate(213.28125 0)"/>
     <use xlink:href="#DejaVuSans-Bold-55" transform="translate(281.984375 0)"/>
     <use xlink:href="#DejaVuSans-Bold-57" transform="translate(331.296875 0)"/>
     <use xlink:href="#DejaVuSans-Bold-3" transform="translate(379.09375 0)"/>
     <use xlink:href="#DejaVuSans-Bold-44" transform="translate(413.90625 0)"/>
     <use xlink:href="#DejaVuSans-Bold-57" transform="translate(481.390625 0)"/>
     <use xlink:href="#DejaVuSans-Bold-57" transform="translate(529.1875 0)"/>
     <use xlink:href="#DejaVuSans-Bold-55" transform="translate(576.984375 0)"/>
     <use xlink:href="#DejaVuSans-Bold-4c" transform="translate(626.296875 0)"/>
     <use xlink:href="#DejaVuSans-Bold-57" transform="translate(660.578125 0)"/>
     <use xlink:href="#DejaVuSans-Bold-4c" transform="translate(708.375 0)"/>
     <use xlink:href="#DejaVuSans-Bold-52" transform="translate(742.65625 0)"/>
     <use xlink:href="#DejaVuSans-Bold-51" transform="translate(811.359375 0)"/>
     <use xlink:href="#DejaVuSans-Bold-3" transform="translate(882.546875 0)"/>
     <use xlink:href="#DejaVuSans-Bold-44" transform="translate(917.359375 0)"/>
     <use xlink:href="#DejaVuSans-Bold-51" transform="translate(984.84375 0)"/>
     <use xlink:href="#DejaVuSans-Bold-47" transform="translate(1056.03125 0)"/>
     <use xlink:href="#DejaVuSans-Bold-3" transform="translate(1127.609375 0)"/>
     <use xlink:href="#DejaVuSans-Bold-47" transform="translate(1162.421875 0)"/>
     <use xlink:href="#DejaVuSans-Bold-48" transform="translate(1234 0)"/>
     <use xlink:href="#DejaVuSans-Bold-55" transform="translate(1301.828125 0)"/>
     <use xlink:href="#DejaVuSans-Bold-4c" transform="translate(1351.140625 0)"/>
     <use xlink:href="#DejaVuSans-Bold-59" transform="translate(1385.421875 0)"/>
     <use xlink:href="#DejaVuSans-Bold-48" transform="translate(1450.609375 0)"/>
     <use xlink:href="#DejaVuSans-Bold-47" transform="translate(1518.4375 0)"/>
     <use xlink:href="#DejaVuSans-Bold-3" transform="translate(1590.015625 0)"/>
     <use xlink:href="#DejaVuSans-Bold-46" transform="translate(1624.828125 0)"/>
     <use xlink:href="#DejaVuSans-Bold-52" transform="translate(1684.109375 0)"/>
     <use xlink:href="#DejaVuSans-Bold-4b" transform="translate(1752.8125 0)"/>
     <use xlink:href="#DejaVuSans-Bold-52" transform="translate(1824 0)"/>
     <use xlink:href="#DejaVuSans-Bold-55" transform="translate(1892.703125 0)"/>
     <use xlink:href="#DejaVuSans-Bold-57" transform="translate(1942.015625 0)"/>
     <use xlink:href="#DejaVuSans-Bold-3" transform="translate(1989.8125 0)"/>
     <use xlink:href="#DejaVuSans-Bold-5c" transform="translate(2024.625 0)"/>
     <use xlink:href="#DejaVuSans-Bold-4c" transform="translate(2089.8125 0)"/>
     <use xlink:href="#DejaVuSans-Bold-48" transform="translate(2124.09375 0)"/>
     <use xlink:href="#DejaVuSans-Bold-4f" transform="translate(2191.921875 0)"/>
     <use xlink:href="#DejaVuSans-Bold-47" transform="translate(2226.203125 0)"/>
    </g>
   </g>
   <g id="legend_1">
    <g id="patch_15">
     <path d="M 723.359375 358.5525 
L 743.359375 358.5525 
L 743.359375 351.5525 
L 723.359375 351.5525 
z
" style="fill: #3d5a80; opacity: 0.88; stroke: #3d5a80; stroke-linejoin: miter"/>
    </g>
    <g id="text_23">
     <!-- standard model -->
     <g style="fill: #1f2933" transform="translate(751.359375 358.5525) scale(0.1 -0.1)">
      <use xlink:href="#DejaVuSans-56"/>
      <use xlink:href="#DejaVuSans-57" transform="translate(52.09375 0)"/>
      <use xlink:href="#DejaVuSans-44" transform="translate(91.296875 0)"/>
      <use xlink:href="#DejaVuSans-51" transform="translate(152.578125 0)"/>
      <use xlink:href="#DejaVuSans-47" transform="translate(215.953125 0)"/>
      <use xlink:href="#DejaVuSans-44" transform="translate(279.4375 0)"/>
      <use xlink:href="#DejaVuSans-55" transform="translate(340.71875 0)"/>
      <use xlink:href="#DejaVuSans-47" transform="translate(380.078125 0)"/>
      <use xlink:href="#DejaVuSans-3" transform="translate(443.5625 0)"/>
      <use xlink:href="#DejaVuSans-50" transform="translate(475.34375 0)"/>
      <use xlink:href="#DejaVuSans-52" transform="translate(572.75 0)"/>
      <use xlink:href="#DejaVuSans-47" transform="translate(633.9375 0)"/>
      <use xlink:href="#DejaVuSans-48" transform="translate(697.421875 0)"/>
      <use xlink:href="#DejaVuSans-4f" transform="translate(758.953125 0)"/>
     </g>
    </g>
    <g id="patch_16">
     <path d="M 723.359375 373.553281 
L 743.359375 373.553281 
L 743.359375 366.553281 
L 723.359375 366.553281 
z
" style="fill: #6b4e9b; opacity: 0.88; stroke: #6b4e9b; stroke-linejoin: miter"/>
    </g>
    <g id="text_24">
     <!-- LLM parser -->
     <g style="fill: #1f2933" transform="translate(751.359375 373.553281) scale(0.1 -0.1)">
      <use xlink:href="#DejaVuSans-2f"/>
      <use xlink:href="#DejaVuSans-2f" transform="translate(55.71875 0)"/>
      <use xlink:href="#DejaVuSans-30" transform="translate(111.4375 0)"/>
      <use xlink:href="#DejaVuSans-3" transform="translate(197.71875 0)"/>
      <use xlink:href="#DejaVuSans-53" transform="translate(229.5 0)"/>
      <use xlink:href="#DejaVuSans-44" transform="translate(292.984375 0)"/>
      <use xlink:href="#DejaVuSans-55" transform="translate(354.265625 0)"/>
      <use xlink:href="#DejaVuSans-56" transform="translate(395.375 0)"/>
      <use xlink:href="#DejaVuSans-48" transform="translate(447.46875 0)"/>
      <use xlink:href="#DejaVuSans-55" transform="translate(509 0)"/>
     </g>
    </g>
    <g id="patch_17">
     <path d="M 723.359375 388.554062 
L 743.359375 388.554062 
L 743.359375 381.554062 
L 723.359375 381.554062 
z
" style="fill: #a43e3e; opacity: 0.88; stroke: #a43e3e; stroke-linejoin: miter"/>
    </g>
    <g id="text_25">
     <!-- LLM target cleanup -->
     <g style="fill: #1f2933" transform="translate(751.359375 388.554062) scale(0.1 -0.1)">
      <use xlink:href="#DejaVuSans-2f"/>
      <use xlink:href="#DejaVuSans-2f" transform="translate(55.71875 0)"/>
      <use xlink:href="#DejaVuSans-30" transform="translate(111.4375 0)"/>
      <use xlink:href="#DejaVuSans-3" transform="translate(197.71875 0)"/>
      <use xlink:href="#DejaVuSans-57" transform="translate(229.5 0)"/>
      <use xlink:href="#DejaVuSans-44" transform="translate(268.703125 0)"/>
      <use xlink:href="#DejaVuSans-55" transform="translate(329.984375 0)"/>
      <use xlink:href="#DejaVuSans-4a" transform="translate(369.34375 0)"/>
      <use xlink:href="#DejaVuSans-48" transform="translate(432.828125 0)"/>
      <use xlink:href="#DejaVuSans-57" transform="translate(494.359375 0)"/>
      <use xlink:href="#DejaVuSans-3" transform="translate(533.5625 0)"/>
      <use xlink:href="#DejaVuSans-46" transform="translate(565.34375 0)"/>
      <use xlink:href="#DejaVuSans-4f" transform="translate(620.328125 0)"/>
      <use xlink:href="#DejaVuSans-48" transform="translate(648.109375 0)"/>
      <use xlink:href="#DejaVuSans-44" transform="translate(709.640625 0)"/>
      <use xlink:href="#DejaVuSans-51" transform="translate(770.921875 0)"/>
      <use xlink:href="#DejaVuSans-58" transform="translate(834.296875 0)"/>
      <use xlink:href="#DejaVuSans-53" transform="translate(897.671875 0)"/>
     </g>
    </g>
    <g id="patch_18">
     <path d="M 723.359375 403.554844 
L 743.359375 403.554844 
L 743.359375 396.554844 
L 723.359375 396.554844 
z
" style="fill: #3a7d44; opacity: 0.88; stroke: #3a7d44; stroke-linejoin: miter"/>
    </g>
    <g id="text_26">
     <!-- LLM control selection -->
     <g style="fill: #1f2933" transform="translate(751.359375 403.554844) scale(0.1 -0.1)">
      <use xlink:href="#DejaVuSans-2f"/>
      <use xlink:href="#DejaVuSans-2f" transform="translate(55.71875 0)"/>
      <use xlink:href="#DejaVuSans-30" transform="translate(111.4375 0)"/>
      <use xlink:href="#DejaVuSans-3" transform="translate(197.71875 0)"/>
      <use xlink:href="#DejaVuSans-46" transform="translate(229.5 0)"/>
      <use xlink:href="#DejaVuSans-52" transform="translate(284.484375 0)"/>
      <use xlink:href="#DejaVuSans-51" transform="translate(345.671875 0)"/>
      <use xlink:href="#DejaVuSans-57" transform="translate(409.046875 0)"/>
      <use xlink:href="#DejaVuSans-55" transform="translate(448.25 0)"/>
      <use xlink:href="#DejaVuSans-52" transform="translate(487.15625 0)"/>
      <use xlink:href="#DejaVuSans-4f" transform="translate(548.34375 0)"/>
      <use xlink:href="#DejaVuSans-3" transform="translate(576.125 0)"/>
      <use xlink:href="#DejaVuSans-56" transform="translate(607.90625 0)"/>
      <use xlink:href="#DejaVuSans-48" transform="translate(660 0)"/>
      <use xlink:href="#DejaVuSans-4f" transform="translate(721.53125 0)"/>
      <use xlink:href="#DejaVuSans-48" transform="translate(749.3125 0)"/>
      <use xlink:href="#DejaVuSans-46" transform="translate(810.84375 0)"/>
      <use xlink:href="#DejaVuSans-57" transform="translate(865.828125 0)"/>
      <use xlink:href="#DejaVuSans-4c" transform="translate(905.03125 0)"/>
      <use xlink:href="#DejaVuSans-52" transform="translate(932.8125 0)"/>
      <use xlink:href="#DejaVuSans-51" transform="translate(994 0)"/>
     </g>
    </g>
   </g>
  </g>
 </g>
 <defs>
  <clipPath id="p2faf70b427">
   <rect x="140.696875" y="26.877187" width="725.4" height="388.08"/>
  </clipPath>
 </defs>
</svg>
