<?xml version="1.0" encoding="utf-8" standalone="no"?>
<!DOCTYPE svg PUBLIC "-//W3C//DTD SVG 1.1//EN"
  "http://www.w3.org/Graphics/SVG/1.1/DTD/svg11.dtd">
<svg xmlns:xlink="http://www.w3.org/1999/xlink" width="619.68375pt" height="399.718125pt" viewBox="0 0 619.68375 399.718125" xmlns="http://www.w3.org/2000/svg" version="1.1">
 <metadata>
  <rdf:RDF xmlns:dc="http://purl.org/dc/elements/1.1/" xmlns:cc="http://creativecommons.org/ns#" xmlns:rdf="http://www.w3.org/1999/02/22-rdf-syntax-ns#">
   <cc:Work>
    <dc:type rdf:resource="http://purl.org/dc/dcmitype/StillImage"/>
    <dc:date>2026-07-15T15:01:41.051712</dc:date>
    <dc:format>image/svg+xml</dc:format>
    <dc:creator>
     <cc:Agent>
      <dc:title>Matplotlib v3.11.0, https://matplotlib.org/</dc:title>
     </cc:Agent>
    </dc:creator>
   </cc:Work>
  </rdf:RDF>
 </metadata>
 <defs>
  <style type="text/css">*{stroke-linejoin: round; stroke-linecap: butt}</style>
 </defs>
 <g id="figure_1">
  <g id="patch_1">
   <path d="M 0 399.718125 
L 619.68375 399.718125 
L 619.68375 0 
L 0 0 
z
" style="fill: #ffffff"/>
  </g>
  <g id="axes_1">
   <g id="patch_2">
    <path d="M 54.48375 359.517187 
L 612.48375 359.517187 
L 612.48375 26.877187 
L 54.48375 26.877187 
z
" style="fill: #ffffff"/>
   </g>
   <g id="matplotlib.axis_1">
    <g id="xtick_1">
     <g id="line2d_1">
      <path d="M 69.494882 359.517187 
L 69.494882 26.877187 
" clip-path="url(#pebc3a2b5fe)" style="fill: none; stroke: #b0b0b0; stroke-opacity: 0.25; stroke-width: 0.8; stroke-linecap: square"/>
     </g>
     <g id="line2d_2">
      <defs>
       <path id="m69f452050b" d="M 0 0 
L 0 3.5 
" style="stroke: #1f2933; stroke-width: 0.8"/>
      </defs>
      <g>
       <use xlink:href="#m69f452050b" x="69.494882" y="359.517187" style="fill: #1f2933; stroke: #1f2933; stroke-width: 0.8"/>
      </g>
     </g>
     <g id="text_1">
      <!-- 0.0 -->
      <g style="fill: #1f2933" transform="translate(61.543319 374.114844) scale(0.1 -0.1)">
       <defs>
        <path id="DejaVuSans-13" d="M 2034 4250 
Q 1547 4250 1301 3770 
Q 1056 3291 1056 2328 
Q 1056 1369 1301 889 
Q 1547 409 2034 409 
Q 2525 409 2770 889 
Q 3016 1369 3016 2328 
Q 3016 3291 2770 3770 
Q 2525 4250 2034 4250 
z
M 2034 4750 
Q 2819 4750 3233 4129 
Q 3647 3509 3647 2328 
Q 3647 1150 3233 529 
Q 2819 -91 2034 -91 
Q 1250 -91 836 529 
Q 422 1150 422 2328 
Q 422 3509 836 4129 
Q 1250 4750 2034 4750 
z
" transform="scale(0.015625)"/>
        <path id="DejaVuSans-11" d="M 684 794 
L 1344 794 
L 1344 0 
L 684 0 
L 684 794 
z
" transform="scale(0.015625)"/>
       </defs>
       <use xlink:href="#DejaVuSans-13"/>
       <use xlink:href="#DejaVuSans-11" transform="translate(63.625 0)"/>
       <use xlink:href="#DejaVuSans-13" transform="translate(95.40625 0)"/>
      </g>
     </g>
    </g>
    <g id="xtick_2">
     <g id="line2d_3">
      <path d="M 173.019928 359.517187 
L 173.019928 26.877187 
" clip-path="url(#pebc3a2b5fe)" style="fill: none; stroke: #b0b0b0; stroke-opacity: 0.25; stroke-width: 0.8; stroke-linecap: square"/>
     </g>
     <g id="line2d_4">
      <g>
       <use xlink:href="#m69f452050b" x="173.019928" y="359.517187" style="fill: #1f2933; stroke: #1f2933; stroke-width: 0.8"/>
      </g>
     </g>
     <g id="text_2">
      <!-- 0.1 -->
      <g style="fill: #1f2933" transform="translate(165.068366 374.114844) scale(0.1 -0.1)">
       <defs>
        <path id="DejaVuSans-14" d="M 794 531 
L 1825 531 
L 1825 4091 
L 703 3866 
L 703 4441 
L 1819 4666 
L 2450 4666 
L 2450 531 
L 3481 531 
L 3481 0 
L 794 0 
L 794 531 
z
" transform="scale(0.015625)"/>
       </defs>
       <use xlink:href="#DejaVuSans-13"/>
       <use xlink:href="#DejaVuSans-11" transform="translate(63.625 0)"/>
       <use xlink:href="#DejaVuSans-14" transform="translate(95.40625 0)"/>
      </g>
     </g>
    </g>
    <g id="xtick_3">
     <g id="line2d_5">
      <path d="M 276.544974 359.517187 
L 276.544974 26.877187 
" clip-path="url(#pebc3a2b5fe)" style="fill: none; stroke: #b0b0b0; stroke-opacity: 0.25; stroke-width: 0.8; stroke-linecap: square"/>
     </g>
     <g id="line2d_6">
      <g>
       <use xlink:href="#m69f452050b" x="276.544974" y="359.517187" style="fill: #1f2933; stroke: #1f2933; stroke-width: 0.8"/>
      </g>
     </g>
     <g id="text_3">
      <!-- 0.2 -->
      <g style="fill: #1f2933" transform="translate(268.593412 374.114844) scale(0.1 -0.1)">
       <defs>
        <path id="DejaVuSans-15" d="M 1228 531 
L 3431 531 
L 3431 0 
L 469 0 
L 469 531 
Q 828 903 1448 1529 
Q 2069 2156 2228 2338 
Q 2531 2678 2651 2914 
Q 2772 3150 2772 3378 
Q 2772 3750 2511 3984 
Q 2250 4219 1831 4219 
Q 1534 4219 1204 4116 
Q 875 4013 500 3803 
L 500 4441 
Q 881 4594 1212 4672 
Q 1544 4750 1819 4750 
Q 2544 4750 2975 4387 
Q 3406 4025 3406 3419 
Q 3406 3131 3298 2873 
Q 3191 2616 2906 2266 
Q 2828 2175 2409 1742 
Q 1991 1309 1228 531 
z
" transform="scale(0.015625)"/>
       </defs>
       <use xlink:href="#DejaVuSans-13"/>
       <use xlink:href="#DejaVuSans-11" transform="translate(63.625 0)"/>
       <use xlink:href="#DejaVuSans-15" transform="translate(95.40625 0)"/>
      </g>
     </g>
    </g>
    <g id="xtick_4">
     <g id="line2d_7">
      <path d="M 380.070021 359.517187 
L 380.070021 26.877187 
" clip-path="url(#pebc3a2b5fe)" style="fill: none; stroke: #b0b0b0; stroke-opacity: 0.25; stroke-width: 0.8; stroke-linecap: square"/>
     </g>
     <g id="line2d_8">
      <g>
       <use xlink:href="#m69f452050b" x="380.070021" y="359.517187" style="fill: #1f2933; stroke: #1f2933; stroke-width: 0.8"/>
      </g>
     </g>
     <g id="text_4">
      <!-- 0.3 -->
      <g style="fill: #1f2933" transform="translate(372.118458 374.114844) scale(0.1 -0.1)">
       <defs>
        <path id="DejaVuSans-16" d="M 2597 2516 
Q 3050 2419 3304 2112 
Q 3559 1806 3559 1356 
Q 3559 666 3084 287 
Q 2609 -91 1734 -91 
Q 1441 -91 1130 -33 
Q 819 25 488 141 
L 488 750 
Q 750 597 1062 519 
Q 1375 441 1716 441 
Q 2309 441 2620 675 
Q 2931 909 2931 1356 
Q 2931 1769 2642 2001 
Q 2353 2234 1838 2234 
L 1294 2234 
L 1294 2753 
L 1863 2753 
Q 2328 2753 2575 2939 
Q 2822 3125 2822 3475 
Q 2822 3834 2567 4026 
Q 2313 4219 1838 4219 
Q 1578 4219 1281 4162 
Q 984 4106 628 3988 
L 628 4550 
Q 988 4650 1302 4700 
Q 1616 4750 1894 4750 
Q 2613 4750 3031 4423 
Q 3450 4097 3450 3541 
Q 3450 3153 3228 2886 
Q 3006 2619 2597 2516 
z
" transform="scale(0.015625)"/>
       </defs>
       <use xlink:href="#DejaVuSans-13"/>
       <use xlink:href="#DejaVuSans-11" transform="translate(63.625 0)"/>
       <use xlink:href="#DejaVuSans-16" transform="translate(95.40625 0)"/>
      </g>
     </g>
    </g>
    <g id="xtick_5">
     <g id="line2d_9">
      <path d="M 483.595067 359.517187 
L 483.595067 26.877187 
" clip-path="url(#pebc3a2b5fe)" style="fill: none; stroke: #b0b0b0; stroke-opacity: 0.25; stroke-width: 0.8; stroke-linecap: square"/>
     </g>
     <g id="line2d_10">
      <g>
       <use xlink:href="#m69f452050b" x="483.595067" y="359.517187" style="fill: #1f2933; stroke: #1f2933; stroke-width: 0.8"/>
      </g>
     </g>
     <g id="text_5">
      <!-- 0.4 -->
      <g style="fill: #1f2933" transform="translate(475.643505 374.114844) scale(0.1 -0.1)">
       <defs>
        <path id="DejaVuSans-17" d="M 2419 4116 
L 825 1625 
L 2419 1625 
L 2419 4116 
z
M 2253 4666 
L 3047 4666 
L 3047 1625 
L 3713 1625 
L 3713 1100 
L 3047 1100 
L 3047 0 
L 2419 0 
L 2419 1100 
L 313 1100 
L 313 1709 
L 2253 4666 
z
" transform="scale(0.015625)"/>
       </defs>
       <use xlink:href="#DejaVuSans-13"/>
       <use xlink:href="#DejaVuSans-11" transform="translate(63.625 0)"/>
       <use xlink:href="#DejaVuSans-17" transform="translate(95.40625 0)"/>
      </g>
     </g>
    </g>
    <g id="xtick_6">
     <g id="line2d_11">
      <path d="M 587.120114 359.517187 
L 587.120114 26.877187 
" clip-path="url(#pebc3a2b5fe)" style="fill: none; stroke: #b0b0b0; stroke-opacity: 0.25; stroke-width: 0.8; stroke-linecap: square"/>
     </g>
     <g id="line2d_12">
      <g>
       <use xlink:href="#m69f452050b" x="587.120114" y="359.517187" style="fill: #1f2933; stroke: #1f2933; stroke-width: 0.8"/>
      </g>
     </g>
     <g id="text_6">
      <!-- 0.5 -->
      <g style="fill: #1f2933" transform="translate(579.168551 374.114844) scale(0.1 -0.1)">
       <defs>
        <path id="DejaVuSans-18" d="M 691 4666 
L 3169 4666 
L 3169 4134 
L 1269 4134 
L 1269 2991 
Q 1406 3038 1543 3061 
Q 1681 3084 1819 3084 
Q 2600 3084 3056 2656 
Q 3513 2228 3513 1497 
Q 3513 744 3044 326 
Q 2575 -91 1722 -91 
Q 1428 -91 1123 -41 
Q 819 9 494 109 
L 494 744 
Q 775 591 1075 516 
Q 1375 441 1709 441 
Q 2250 441 2565 725 
Q 2881 1009 2881 1497 
Q 2881 1984 2565 2268 
Q 2250 2553 1709 2553 
Q 1456 2553 1204 2497 
Q 953 2441 691 2322 
L 691 4666 
z
" transform="scale(0.015625)"/>
       </defs>
       <use xlink:href="#DejaVuSans-13"/>
       <use xlink:href="#DejaVuSans-11" transform="translate(63.625 0)"/>
       <use xlink:href="#DejaVuSans-18" transform="translate(95.40625 0)"/>
      </g>
     </g>
    </g>
    <g id="text_7">
     <!-- Risk threshold -->
     <g style="fill: #1f2933" transform="translate(290.884687 389.635312) scale(0.12 -0.12)">
      <defs>
       <path id="DejaVuSans-35" d="M 2841 2188 
Q 3044 2119 3236 1894 
Q 3428 1669 3622 1275 
L 4263 0 
L 3584 0 
L 2988 1197 
Q 2756 1666 2539 1819 
Q 2322 1972 1947 1972 
L 1259 1972 
L 1259 0 
L 628 0 
L 628 4666 
L 2053 4666 
Q 2853 4666 3247 4331 
Q 3641 3997 3641 3322 
Q 3641 2881 3436 2590 
Q 3231 2300 2841 2188 
z
M 1259 4147 
L 1259 2491 
L 2053 2491 
Q 2509 2491 2742 2702 
Q 2975 2913 2975 3322 
Q 2975 3731 2742 3939 
Q 2509 4147 2053 4147 
L 1259 4147 
z
" transform="scale(0.015625)"/>
       <path id="DejaVuSans-4c" d="M 603 3500 
L 1178 3500 
L 1178 0 
L 603 0 
L 603 3500 
z
M 603 4863 
L 1178 4863 
L 1178 4134 
L 603 4134 
L 603 4863 
z
" transform="scale(0.015625)"/>
       <path id="DejaVuSans-56" d="M 2834 3397 
L 2834 2853 
Q 2591 2978 2328 3040 
Q 2066 3103 1784 3103 
Q 1356 3103 1142 2972 
Q 928 2841 928 2578 
Q 928 2378 1081 2264 
Q 1234 2150 1697 2047 
L 1894 2003 
Q 2506 1872 2764 1633 
Q 3022 1394 3022 966 
Q 3022 478 2636 193 
Q 2250 -91 1575 -91 
Q 1294 -91 989 -36 
Q 684 19 347 128 
L 347 722 
Q 666 556 975 473 
Q 1284 391 1588 391 
Q 1994 391 2212 530 
Q 2431 669 2431 922 
Q 2431 1156 2273 1281 
Q 2116 1406 1581 1522 
L 1381 1569 
Q 847 1681 609 1914 
Q 372 2147 372 2553 
Q 372 3047 722 3315 
Q 1072 3584 1716 3584 
Q 2034 3584 2315 3537 
Q 2597 3491 2834 3397 
z
" transform="scale(0.015625)"/>
       <path id="DejaVuSans-4e" d="M 581 4863 
L 1159 4863 
L 1159 1991 
L 2875 3500 
L 3609 3500 
L 1753 1863 
L 3688 0 
L 2938 0 
L 1159 1709 
L 1159 0 
L 581 0 
L 581 4863 
z
" transform="scale(0.015625)"/>
       <path id="DejaVuSans-3" transform="scale(0.015625)"/>
       <path id="DejaVuSans-57" d="M 1172 4494 
L 1172 3500 
L 2356 3500 
L 2356 3053 
L 1172 3053 
L 1172 1153 
Q 1172 725 1289 603 
Q 1406 481 1766 481 
L 2356 481 
L 2356 0 
L 1766 0 
Q 1100 0 847 248 
Q 594 497 594 1153 
L 594 3053 
L 172 3053 
L 172 3500 
L 594 3500 
L 594 4494 
L 1172 4494 
z
" transform="scale(0.015625)"/>
       <path id="DejaVuSans-4b" d="M 3513 2113 
L 3513 0 
L 2938 0 
L 2938 2094 
Q 2938 2591 2744 2837 
Q 2550 3084 2163 3084 
Q 1697 3084 1428 2787 
Q 1159 2491 1159 1978 
L 1159 0 
L 581 0 
L 581 4863 
L 1159 4863 
L 1159 2956 
Q 1366 3272 1645 3428 
Q 1925 3584 2291 3584 
Q 2894 3584 3203 3211 
Q 3513 2838 3513 2113 
z
" transform="scale(0.015625)"/>
       <path id="DejaVuSans-55" d="M 2631 2963 
Q 2534 3019 2420 3045 
Q 2306 3072 2169 3072 
Q 1681 3072 1420 2755 
Q 1159 2438 1159 1844 
L 1159 0 
L 581 0 
L 581 3500 
L 1159 3500 
L 1159 2956 
Q 1341 3275 1631 3429 
Q 1922 3584 2338 3584 
Q 2397 3584 2469 3576 
Q 2541 3569 2628 3553 
L 2631 2963 
z
" transform="scale(0.015625)"/>
       <path id="DejaVuSans-48" d="M 3597 1894 
L 3597 1613 
L 953 1613 
Q 991 1019 1311 708 
Q 1631 397 2203 397 
Q 2534 397 2845 478 
Q 3156 559 3463 722 
L 3463 178 
Q 3153 47 2828 -22 
Q 2503 -91 2169 -91 
Q 1331 -91 842 396 
Q 353 884 353 1716 
Q 353 2575 817 3079 
Q 1281 3584 2069 3584 
Q 2775 3584 3186 3129 
Q 3597 2675 3597 1894 
z
M 3022 2063 
Q 3016 2534 2758 2815 
Q 2500 3097 2075 3097 
Q 1594 3097 1305 2825 
Q 1016 2553 972 2059 
L 3022 2063 
z
" transform="scale(0.015625)"/>
       <path id="DejaVuSans-52" d="M 1959 3097 
Q 1497 3097 1228 2736 
Q 959 2375 959 1747 
Q 959 1119 1226 758 
Q 1494 397 1959 397 
Q 2419 397 2687 759 
Q 2956 1122 2956 1747 
Q 2956 2369 2687 2733 
Q 2419 3097 1959 3097 
z
M 1959 3584 
Q 2709 3584 3137 3096 
Q 3566 2609 3566 1747 
Q 3566 888 3137 398 
Q 2709 -91 1959 -91 
Q 1206 -91 779 398 
Q 353 888 353 1747 
Q 353 2609 779 3096 
Q 1206 3584 1959 3584 
z
" transform="scale(0.015625)"/>
       <path id="DejaVuSans-4f" d="M 603 4863 
L 1178 4863 
L 1178 0 
L 603 0 
L 603 4863 
z
" transform="scale(0.015625)"/>
       <path id="DejaVuSans-47" d="M 2906 2969 
L 2906 4863 
L 3481 4863 
L 3481 0 
L 2906 0 
L 2906 525 
Q 2725 213 2448 61 
Q 2172 -91 1784 -91 
Q 1150 -91 751 415 
Q 353 922 353 1747 
Q 353 2572 751 3078 
Q 1150 3584 1784 3584 
Q 2172 3584 2448 3432 
Q 2725 3281 2906 2969 
z
M 947 1747 
Q 947 1113 1208 752 
Q 1469 391 1925 391 
Q 2381 391 2643 752 
Q 2906 1113 2906 1747 
Q 2906 2381 2643 2742 
Q 2381 3103 1925 3103 
Q 1469 3103 1208 2742 
Q 947 2381 947 1747 
z
" transform="scale(0.015625)"/>
      </defs>
      <use xlink:href="#DejaVuSans-35"/>
      <use xlink:href="#DejaVuSans-4c" transform="translate(69.484375 0)"/>
      <use xlink:href="#DejaVuSans-56" transform="translate(97.265625 0)"/>
      <use xlink:href="#DejaVuSans-4e" transform="translate(149.359375 0)"/>
      <use xlink:href="#DejaVuSans-3" transform="translate(207.265625 0)"/>
      <use xlink:href="#DejaVuSans-57" transform="translate(239.046875 0)"/>
      <use xlink:href="#DejaVuSans-4b" transform="translate(278.25 0)"/>
      <use xlink:href="#DejaVuSans-55" transform="translate(341.625 0)"/>
      <use xlink:href="#DejaVuSans-48" transform="translate(380.53125 0)"/>
      <use xlink:href="#DejaVuSans-56" transform="translate(442.0625 0)"/>
      <use xlink:href="#DejaVuSans-4b" transform="translate(494.15625 0)"/>
      <use xlink:href="#DejaVuSans-52" transform="translate(557.53125 0)"/>
      <use xlink:href="#DejaVuSans-4f" transform="translate(618.71875 0)"/>
      <use xlink:href="#DejaVuSans-47" transform="translate(646.5 0)"/>
     </g>
    </g>
   </g>
   <g id="matplotlib.axis_2">
    <g id="ytick_1">
     <g id="line2d_13">
      <path d="M 54.48375 359.180793 
L 612.48375 359.180793 
" clip-path="url(#pebc3a2b5fe)" style="fill: none; stroke: #b0b0b0; stroke-opacity: 0.25; stroke-width: 0.8; stroke-linecap: square"/>
     </g>
     <g id="line2d_14">
      <defs>
       <path id="mebc1fe1a24" d="M 0 0 
L -3.5 0 
" style="stroke: #1f2933; stroke-width: 0.8"/>
      </defs>
      <g>
       <use xlink:href="#mebc1fe1a24" x="54.48375" y="359.180793" style="fill: #1f2933; stroke: #1f2933; stroke-width: 0.8"/>
      </g>
     </g>
     <g id="text_8">
      <!-- −1.0 -->
      <g style="fill: #1f2933" transform="translate(23.200938 362.979621) scale(0.1 -0.1)">
       <defs>
        <path id="DejaVuSans-c9c" d="M 678 2272 
L 4684 2272 
L 4684 1741 
L 678 1741 
L 678 2272 
z
" transform="scale(0.015625)"/>
       </defs>
       <use xlink:href="#DejaVuSans-c9c"/>
       <use xlink:href="#DejaVuSans-14" transform="translate(83.796875 0)"/>
       <use xlink:href="#DejaVuSans-11" transform="translate(147.421875 0)"/>
       <use xlink:href="#DejaVuSans-13" transform="translate(179.203125 0)"/>
      </g>
     </g>
    </g>
    <g id="ytick_2">
     <g id="line2d_15">
      <path d="M 54.48375 296.610182 
L 612.48375 296.610182 
" clip-path="url(#pebc3a2b5fe)" style="fill: none; stroke: #b0b0b0; stroke-opacity: 0.25; stroke-width: 0.8; stroke-linecap: square"/>
     </g>
     <g id="line2d_16">
      <g>
       <use xlink:href="#mebc1fe1a24" x="54.48375" y="296.610182" style="fill: #1f2933; stroke: #1f2933; stroke-width: 0.8"/>
      </g>
     </g>
     <g id="text_9">
      <!-- −0.8 -->
      <g style="fill: #1f2933" transform="translate(23.200938 300.40901) scale(0.1 -0.1)">
       <defs>
        <path id="DejaVuSans-1b" d="M 2034 2216 
Q 1584 2216 1326 1975 
Q 1069 1734 1069 1313 
Q 1069 891 1326 650 
Q 1584 409 2034 409 
Q 2484 409 2743 651 
Q 3003 894 3003 1313 
Q 3003 1734 2745 1975 
Q 2488 2216 2034 2216 
z
M 1403 2484 
Q 997 2584 770 2862 
Q 544 3141 544 3541 
Q 544 4100 942 4425 
Q 1341 4750 2034 4750 
Q 2731 4750 3128 4425 
Q 3525 4100 3525 3541 
Q 3525 3141 3298 2862 
Q 3072 2584 2669 2484 
Q 3125 2378 3379 2068 
Q 3634 1759 3634 1313 
Q 3634 634 3220 271 
Q 2806 -91 2034 -91 
Q 1263 -91 848 271 
Q 434 634 434 1313 
Q 434 1759 690 2068 
Q 947 2378 1403 2484 
z
M 1172 3481 
Q 1172 3119 1398 2916 
Q 1625 2713 2034 2713 
Q 2441 2713 2670 2916 
Q 2900 3119 2900 3481 
Q 2900 3844 2670 4047 
Q 2441 4250 2034 4250 
Q 1625 4250 1398 4047 
Q 1172 3844 1172 3481 
z
" transform="scale(0.015625)"/>
       </defs>
       <use xlink:href="#DejaVuSans-c9c"/>
       <use xlink:href="#DejaVuSans-13" transform="translate(83.796875 0)"/>
       <use xlink:href="#DejaVuSans-11" transform="translate(147.421875 0)"/>
       <use xlink:href="#DejaVuSans-1b" transform="translate(179.203125 0)"/>
      </g>
     </g>
    </g>
    <g id="ytick_3">
     <g id="line2d_17">
      <path d="M 54.48375 234.039571 
L 612.48375 234.039571 
" clip-path="url(#pebc3a2b5fe)" style="fill: none; stroke: #b0b0b0; stroke-opacity: 0.25; stroke-width: 0.8; stroke-linecap: square"/>
     </g>
     <g id="line2d_18">
      <g>
       <use xlink:href="#mebc1fe1a24" x="54.48375" y="234.039571" style="fill: #1f2933; stroke: #1f2933; stroke-width: 0.8"/>
      </g>
     </g>
     <g id="text_10">
      <!-- −0.6 -->
      <g style="fill: #1f2933" transform="translate(23.200938 237.838399) scale(0.1 -0.1)">
       <defs>
        <path id="DejaVuSans-19" d="M 2113 2584 
Q 1688 2584 1439 2293 
Q 1191 2003 1191 1497 
Q 1191 994 1439 701 
Q 1688 409 2113 409 
Q 2538 409 2786 701 
Q 3034 994 3034 1497 
Q 3034 2003 2786 2293 
Q 2538 2584 2113 2584 
z
M 3366 4563 
L 3366 3988 
Q 3128 4100 2886 4159 
Q 2644 4219 2406 4219 
Q 1781 4219 1451 3797 
Q 1122 3375 1075 2522 
Q 1259 2794 1537 2939 
Q 1816 3084 2150 3084 
Q 2853 3084 3261 2657 
Q 3669 2231 3669 1497 
Q 3669 778 3244 343 
Q 2819 -91 2113 -91 
Q 1303 -91 875 529 
Q 447 1150 447 2328 
Q 447 3434 972 4092 
Q 1497 4750 2381 4750 
Q 2619 4750 2861 4703 
Q 3103 4656 3366 4563 
z
" transform="scale(0.015625)"/>
       </defs>
       <use xlink:href="#DejaVuSans-c9c"/>
       <use xlink:href="#DejaVuSans-13" transform="translate(83.796875 0)"/>
       <use xlink:href="#DejaVuSans-11" transform="translate(147.421875 0)"/>
       <use xlink:href="#DejaVuSans-19" transform="translate(179.203125 0)"/>
      </g>
     </g>
    </g>
    <g id="ytick_4">
     <g id="line2d_19">
      <path d="M 54.48375 171.46896 
L 612.48375 171.46896 
" clip-path="url(#pebc3a2b5fe)" style="fill: none; stroke: #b0b0b0; stroke-opacity: 0.25; stroke-width: 0.8; stroke-linecap: square"/>
     </g>
     <g id="line2d_20">
      <g>
       <use xlink:href="#mebc1fe1a24" x="54.48375" y="171.46896" style="fill: #1f2933; stroke: #1f2933; stroke-width: 0.8"/>
      </g>
     </g>
     <g id="text_11">
      <!-- −0.4 -->
      <g style="fill: #1f2933" transform="translate(23.200938 175.267788) scale(0.1 -0.1)">
       <use xlink:href="#DejaVuSans-c9c"/>
       <use xlink:href="#DejaVuSans-13" transform="translate(83.796875 0)"/>
       <use xlink:href="#DejaVuSans-11" transform="translate(147.421875 0)"/>
       <use xlink:href="#DejaVuSans-17" transform="translate(179.203125 0)"/>
      </g>
     </g>
    </g>
    <g id="ytick_5">
     <g id="line2d_21">
      <path d="M 54.48375 108.898349 
L 612.48375 108.898349 
" clip-path="url(#pebc3a2b5fe)" style="fill: none; stroke: #b0b0b0; stroke-opacity: 0.25; stroke-width: 0.8; stroke-linecap: square"/>
     </g>
     <g id="line2d_22">
      <g>
       <use xlink:href="#mebc1fe1a24" x="54.48375" y="108.898349" style="fill: #1f2933; stroke: #1f2933; stroke-width: 0.8"/>
      </g>
     </g>
     <g id="text_12">
      <!-- −0.2 -->
      <g style="fill: #1f2933" transform="translate(23.200938 112.697178) scale(0.1 -0.1)">
       <use xlink:href="#DejaVuSans-c9c"/>
       <use xlink:href="#DejaVuSans-13" transform="translate(83.796875 0)"/>
       <use xlink:href="#DejaVuSans-11" transform="translate(147.421875 0)"/>
       <use xlink:href="#DejaVuSans-15" transform="translate(179.203125 0)"/>
      </g>
     </g>
    </g>
    <g id="ytick_6">
     <g id="line2d_23">
      <path d="M 54.48375 46.327739 
L 612.48375 46.327739 
" clip-path="url(#pebc3a2b5fe)" style="fill: none; stroke: #b0b0b0; stroke-opacity: 0.25; stroke-width: 0.8; stroke-linecap: square"/>
     </g>
     <g id="line2d_24">
      <g>
       <use xlink:href="#mebc1fe1a24" x="54.48375" y="46.327739" style="fill: #1f2933; stroke: #1f2933; stroke-width: 0.8"/>
      </g>
     </g>
     <g id="text_13">
      <!-- 0.0 -->
      <g style="fill: #1f2933" transform="translate(31.580625 50.126567) scale(0.1 -0.1)">
       <use xlink:href="#DejaVuSans-13"/>
       <use xlink:href="#DejaVuSans-11" transform="translate(63.625 0)"/>
       <use xlink:href="#DejaVuSans-13" transform="translate(95.40625 0)"/>
      </g>
     </g>
    </g>
    <g id="text_14">
     <!-- Net benefit -->
     <g style="fill: #1f2933" transform="translate(16.318125 226.763437) rotate(-90) scale(0.12 -0.12)">
      <defs>
       <path id="DejaVuSans-31" d="M 628 4666 
L 1478 4666 
L 3547 763 
L 3547 4666 
L 4159 4666 
L 4159 0 
L 3309 0 
L 1241 3903 
L 1241 0 
L 628 0 
L 628 4666 
z
" transform="scale(0.015625)"/>
       <path id="DejaVuSans-45" d="M 3116 1747 
Q 3116 2381 2855 2742 
Q 2594 3103 2138 3103 
Q 1681 3103 1420 2742 
Q 1159 2381 1159 1747 
Q 1159 1113 1420 752 
Q 1681 391 2138 391 
Q 2594 391 2855 752 
Q 3116 1113 3116 1747 
z
M 1159 2969 
Q 1341 3281 1617 3432 
Q 1894 3584 2278 3584 
Q 2916 3584 3314 3078 
Q 3713 2572 3713 1747 
Q 3713 922 3314 415 
Q 2916 -91 2278 -91 
Q 1894 -91 1617 61 
Q 1341 213 1159 525 
L 1159 0 
L 581 0 
L 581 4863 
L 1159 4863 
L 1159 2969 
z
" transform="scale(0.015625)"/>
       <path id="DejaVuSans-51" d="M 3513 2113 
L 3513 0 
L 2938 0 
L 2938 2094 
Q 2938 2591 2744 2837 
Q 2550 3084 2163 3084 
Q 1697 3084 1428 2787 
Q 1159 2491 1159 1978 
L 1159 0 
L 581 0 
L 581 3500 
L 1159 3500 
L 1159 2956 
Q 1366 3272 1645 3428 
Q 1925 3584 2291 3584 
Q 2894 3584 3203 3211 
Q 3513 2838 3513 2113 
z
" transform="scale(0.015625)"/>
       <path id="DejaVuSans-13af" d="M 3431 3500 
L 3431 0 
L 2853 0 
L 2853 3053 
L 1275 3053 
L 1275 0 
L 697 0 
L 697 3053 
L 147 3053 
L 147 3500 
L 697 3500 
L 697 3744 
Q 697 4316 967 4589 
Q 1238 4863 1797 4863 
L 2375 4863 
L 2375 4384 
L 1825 4384 
Q 1516 4384 1395 4259 
Q 1275 4134 1275 3809 
L 1275 3500 
L 3431 3500 
z
M 2853 4856 
L 3431 4856 
L 3431 4128 
L 2853 4128 
L 2853 4856 
z
" transform="scale(0.015625)"/>
      </defs>
      <use xlink:href="#DejaVuSans-31"/>
      <use xlink:href="#DejaVuSans-48" transform="translate(74.8125 0)"/>
      <use xlink:href="#DejaVuSans-57" transform="translate(136.34375 0)"/>
      <use xlink:href="#DejaVuSans-3" transform="translate(175.546875 0)"/>
      <use xlink:href="#DejaVuSans-45" transform="translate(207.328125 0)"/>
      <use xlink:href="#DejaVuSans-48" transform="translate(270.8125 0)"/>
      <use xlink:href="#DejaVuSans-51" transform="translate(332.34375 0)"/>
      <use xlink:href="#DejaVuSans-48" transform="translate(395.71875 0)"/>
      <use xlink:href="#DejaVuSans-13af" transform="translate(457.25 0)"/>
      <use xlink:href="#DejaVuSans-57" transform="translate(520.234375 0)"/>
     </g>
    </g>
   </g>
   <g id="line2d_25">
    <path d="M 79.847386 41.997187 
L 84.971353 43.505028 
L 90.09532 45.003864 
L 95.219287 46.465063 
L 100.343254 47.881975 
L 105.467221 49.349503 
L 110.591188 50.753755 
L 115.715155 52.174712 
L 120.839122 53.562568 
L 125.963089 54.910528 
L 131.087056 56.199017 
L 136.211023 57.52767 
L 141.33499 58.883271 
L 146.458957 60.283105 
L 151.582924 61.640214 
L 156.70689 62.916886 
L 161.830857 64.216163 
L 166.954824 65.578647 
L 172.078791 66.980315 
L 177.202758 68.385352 
L 182.326725 69.499616 
L 187.450692 70.665455 
L 192.574659 71.759057 
L 197.698626 72.941849 
L 202.822593 74.022243 
L 207.94656 75.173268 
L 213.070527 76.245633 
L 218.194494 77.365081 
L 223.318461 78.539401 
L 228.442428 79.631617 
L 233.566395 80.75776 
L 238.690362 81.735321 
L 243.814329 82.488973 
L 248.938295 83.45753 
L 254.062262 84.276435 
L 259.186229 85.15616 
L 264.310196 85.873581 
L 269.434163 86.845049 
L 274.55813 87.752036 
L 279.682097 88.691405 
L 284.806064 89.877352 
L 289.930031 90.468623 
L 295.053998 90.857434 
L 300.177965 91.715824 
L 305.301932 92.380265 
L 310.425899 93.017193 
L 315.549866 93.88814 
L 320.673833 95.061691 
L 325.7978 95.951 
L 330.921767 96.617914 
L 336.045733 97.461537 
L 341.1697 98.295088 
L 346.293667 98.950837 
L 351.417634 99.599256 
L 356.541601 99.919879 
L 361.665568 100.596349 
L 366.789535 101.01302 
L 371.913502 101.481643 
L 377.037469 102.091964 
L 382.161436 102.336827 
L 387.285403 103.164664 
L 392.40937 103.712603 
L 397.533337 104.717311 
L 402.657304 104.944771 
L 407.781271 105.240201 
L 412.905238 105.494168 
L 418.029205 105.71615 
L 423.153171 106.112743 
L 428.277138 106.167206 
L 433.401105 106.940894 
L 438.525072 107.154742 
L 443.649039 107.790107 
L 448.773006 107.835998 
L 453.896973 108.08085 
L 459.02094 108.377146 
L 464.144907 107.701596 
L 469.268874 107.965818 
L 474.392841 107.948454 
L 479.516808 108.156814 
L 484.640775 108.071408 
L 489.764742 108.903642 
L 494.888709 108.203564 
L 500.012676 108.009741 
L 505.136643 108.21049 
L 510.26061 107.498424 
L 515.384576 107.481071 
L 520.508543 107.431875 
L 525.63251 107.235059 
L 530.756477 107.594865 
L 535.880444 107.775771 
L 541.004411 106.430702 
L 546.128378 106.706905 
L 551.252345 106.818034 
L 556.376312 105.98835 
L 561.500279 105.821531 
L 566.624246 106.174778 
L 571.748213 105.762592 
L 576.87218 106.075584 
L 581.996147 104.612372 
L 587.120114 105.062603 
" clip-path="url(#pebc3a2b5fe)" style="fill: none; stroke: #3d5a80; stroke-width: 2.5; stroke-linecap: square"/>
   </g>
   <g id="line2d_26">
    <path d="M 79.847386 42.021403 
L 84.971353 43.57173 
L 90.09532 45.137715 
L 95.219287 46.719597 
L 100.343254 48.317619 
L 105.467221 49.932029 
L 110.591188 51.563081 
L 115.715155 53.211033 
L 120.839122 54.87615 
L 125.963089 56.5587 
L 131.087056 58.25896 
L 136.211023 59.97721 
L 141.33499 61.713737 
L 146.458957 63.468834 
L 151.582924 65.242802 
L 156.70689 67.035945 
L 161.830857 68.848577 
L 166.954824 70.681017 
L 172.078791 72.533591 
L 177.202758 74.406634 
L 182.326725 76.300485 
L 187.450692 78.215495 
L 192.574659 80.152019 
L 197.698626 82.110422 
L 202.822593 84.091077 
L 207.94656 86.094366 
L 213.070527 88.120678 
L 218.194494 90.170413 
L 223.318461 92.24398 
L 228.442428 94.341795 
L 233.566395 96.464288 
L 238.690362 98.611896 
L 243.814329 100.785068 
L 248.938295 102.984263 
L 254.062262 105.209951 
L 259.186229 107.462613 
L 264.310196 109.742743 
L 269.434163 112.050847 
L 274.55813 114.387443 
L 279.682097 116.753061 
L 284.806064 119.148245 
L 289.930031 121.573554 
L 295.053998 124.029558 
L 300.177965 126.516846 
L 305.301932 129.036017 
L 310.425899 131.58769 
L 315.549866 134.172497 
L 320.673833 136.791087 
L 325.7978 139.444129 
L 330.921767 142.132305 
L 336.045733 144.856318 
L 341.1697 147.616891 
L 346.293667 150.414763 
L 351.417634 153.250696 
L 356.541601 156.125473 
L 361.665568 159.039895 
L 366.789535 161.994791 
L 371.913502 164.991007 
L 377.037469 168.029418 
L 382.161436 171.11092 
L 387.285403 174.236438 
L 392.40937 177.40692 
L 397.533337 180.623345 
L 402.657304 183.886717 
L 407.781271 187.198074 
L 412.905238 190.55848 
L 418.029205 193.969033 
L 423.153171 197.430866 
L 428.277138 200.945142 
L 433.401105 204.513063 
L 438.525072 208.135866 
L 443.649039 211.814828 
L 448.773006 215.551265 
L 453.896973 219.346534 
L 459.02094 223.202035 
L 464.144907 227.119214 
L 469.268874 231.099563 
L 474.392841 235.144623 
L 479.516808 239.255984 
L 484.640775 243.43529 
L 489.764742 247.684239 
L 494.888709 252.004587 
L 500.012676 256.398148 
L 505.136643 260.8668 
L 510.26061 265.412484 
L 515.384576 270.037209 
L 520.508543 274.743056 
L 525.63251 279.532176 
L 530.756477 284.406801 
L 535.880444 289.369241 
L 541.004411 294.421891 
L 546.128378 299.567232 
L 551.252345 304.80784 
L 556.376312 310.146384 
L 561.500279 315.585635 
L 566.624246 321.128472 
L 571.748213 326.77788 
L 576.87218 332.536965 
L 581.996147 338.408949 
L 587.120114 344.397188 
" clip-path="url(#pebc3a2b5fe)" style="fill: none; stroke: #a43e3e; stroke-width: 2; stroke-linecap: square"/>
   </g>
   <g id="line2d_27">
    <path d="M 79.847386 46.327739 
L 84.971353 46.327739 
L 90.09532 46.327739 
L 95.219287 46.327739 
L 100.343254 46.327739 
L 105.467221 46.327739 
L 110.591188 46.327739 
L 115.715155 46.327739 
L 120.839122 46.327739 
L 125.963089 46.327739 
L 131.087056 46.327739 
L 136.211023 46.327739 
L 141.33499 46.327739 
L 146.458957 46.327739 
L 151.582924 46.327739 
L 156.70689 46.327739 
L 161.830857 46.327739 
L 166.954824 46.327739 
L 172.078791 46.327739 
L 177.202758 46.327739 
L 182.326725 46.327739 
L 187.450692 46.327739 
L 192.574659 46.327739 
L 197.698626 46.327739 
L 202.822593 46.327739 
L 207.94656 46.327739 
L 213.070527 46.327739 
L 218.194494 46.327739 
L 223.318461 46.327739 
L 228.442428 46.327739 
L 233.566395 46.327739 
L 238.690362 46.327739 
L 243.814329 46.327739 
L 248.938295 46.327739 
L 254.062262 46.327739 
L 259.186229 46.327739 
L 264.310196 46.327739 
L 269.434163 46.327739 
L 274.55813 46.327739 
L 279.682097 46.327739 
L 284.806064 46.327739 
L 289.930031 46.327739 
L 295.053998 46.327739 
L 300.177965 46.327739 
L 305.301932 46.327739 
L 310.425899 46.327739 
L 315.549866 46.327739 
L 320.673833 46.327739 
L 325.7978 46.327739 
L 330.921767 46.327739 
L 336.045733 46.327739 
L 341.1697 46.327739 
L 346.293667 46.327739 
L 351.417634 46.327739 
L 356.541601 46.327739 
L 361.665568 46.327739 
L 366.789535 46.327739 
L 371.913502 46.327739 
L 377.037469 46.327739 
L 382.161436 46.327739 
L 387.285403 46.327739 
L 392.40937 46.327739 
L 397.533337 46.327739 
L 402.657304 46.327739 
L 407.781271 46.327739 
L 412.905238 46.327739 
L 418.029205 46.327739 
L 423.153171 46.327739 
L 428.277138 46.327739 
L 433.401105 46.327739 
L 438.525072 46.327739 
L 443.649039 46.327739 
L 448.773006 46.327739 
L 453.896973 46.327739 
L 459.02094 46.327739 
L 464.144907 46.327739 
L 469.268874 46.327739 
L 474.392841 46.327739 
L 479.516808 46.327739 
L 484.640775 46.327739 
L 489.764742 46.327739 
L 494.888709 46.327739 
L 500.012676 46.327739 
L 505.136643 46.327739 
L 510.26061 46.327739 
L 515.384576 46.327739 
L 520.508543 46.327739 
L 525.63251 46.327739 
L 530.756477 46.327739 
L 535.880444 46.327739 
L 541.004411 46.327739 
L 546.128378 46.327739 
L 551.252345 46.327739 
L 556.376312 46.327739 
L 561.500279 46.327739 
L 566.624246 46.327739 
L 571.748213 46.327739 
L 576.87218 46.327739 
L 581.996147 46.327739 
L 587.120114 46.327739 
" clip-path="url(#pebc3a2b5fe)" style="fill: none; stroke: #5f7182; stroke-width: 2; stroke-linecap: square"/>
   </g>
   <g id="patch_3">
    <path d="M 54.48375 359.517187 
L 54.48375 26.877187 
" style="fill: none; stroke: #b7c3cf; stroke-width: 0.8; stroke-linejoin: miter; stroke-linecap: square"/>
   </g>
   <g id="patch_4">
    <path d="M 612.48375 359.517187 
L 612.48375 26.877187 
" style="fill: none; stroke: #b7c3cf; stroke-width: 0.8; stroke-linejoin: miter; stroke-linecap: square"/>
   </g>
   <g id="patch_5">
    <path d="M 54.48375 359.517187 
L 612.48375 359.517187 
" style="fill: none; stroke: #b7c3cf; stroke-width: 0.8; stroke-linejoin: miter; stroke-linecap: square"/>
   </g>
   <g id="patch_6">
    <path d="M 54.48375 26.877187 
L 612.48375 26.877187 
" style="fill: none; stroke: #b7c3cf; stroke-width: 0.8; stroke-linejoin: miter; stroke-linecap: square"/>
   </g>
   <g id="text_15">
    <!-- Decision-curve analysis -->
    <g style="fill: #1f2933" transform="translate(214.131094 20.877187) scale(0.18 -0.18)">
     <defs>
      <path id="DejaVuSans-Bold-27" d="M 1791 3756 
L 1791 909 
L 2222 909 
Q 2959 909 3348 1275 
Q 3738 1641 3738 2338 
Q 3738 3031 3350 3393 
Q 2963 3756 2222 3756 
L 1791 3756 
z
M 588 4666 
L 1856 4666 
Q 2919 4666 3439 4514 
Q 3959 4363 4331 4000 
Q 4659 3684 4818 3271 
Q 4978 2859 4978 2338 
Q 4978 1809 4818 1395 
Q 4659 981 4331 666 
Q 3956 303 3431 151 
Q 2906 0 1856 0 
L 588 0 
L 588 4666 
z
" transform="scale(0.015625)"/>
      <path id="DejaVuSans-Bold-48" d="M 4031 1759 
L 4031 1441 
L 1416 1441 
Q 1456 1047 1700 850 
Q 1944 653 2381 653 
Q 2734 653 3104 758 
Q 3475 863 3866 1075 
L 3866 213 
Q 3469 63 3072 -14 
Q 2675 -91 2278 -91 
Q 1328 -91 801 392 
Q 275 875 275 1747 
Q 275 2603 792 3093 
Q 1309 3584 2216 3584 
Q 3041 3584 3536 3087 
Q 4031 2591 4031 1759 
z
M 2881 2131 
Q 2881 2450 2695 2645 
Q 2509 2841 2209 2841 
Q 1884 2841 1681 2658 
Q 1478 2475 1428 2131 
L 2881 2131 
z
" transform="scale(0.015625)"/>
      <path id="DejaVuSans-Bold-46" d="M 3366 3391 
L 3366 2478 
Q 3138 2634 2908 2709 
Q 2678 2784 2431 2784 
Q 1963 2784 1702 2511 
Q 1441 2238 1441 1747 
Q 1441 1256 1702 982 
Q 1963 709 2431 709 
Q 2694 709 2930 787 
Q 3166 866 3366 1019 
L 3366 103 
Q 3103 6 2833 -42 
Q 2563 -91 2291 -91 
Q 1344 -91 809 395 
Q 275 881 275 1747 
Q 275 2613 809 3098 
Q 1344 3584 2291 3584 
Q 2566 3584 2833 3536 
Q 3100 3488 3366 3391 
z
" transform="scale(0.015625)"/>
      <path id="DejaVuSans-Bold-4c" d="M 538 3500 
L 1656 3500 
L 1656 0 
L 538 0 
L 538 3500 
z
M 538 4863 
L 1656 4863 
L 1656 3950 
L 538 3950 
L 538 4863 
z
" transform="scale(0.015625)"/>
      <path id="DejaVuSans-Bold-56" d="M 3272 3391 
L 3272 2541 
Q 2913 2691 2578 2766 
Q 2244 2841 1947 2841 
Q 1628 2841 1473 2761 
Q 1319 2681 1319 2516 
Q 1319 2381 1436 2309 
Q 1553 2238 1856 2203 
L 2053 2175 
Q 2913 2066 3209 1816 
Q 3506 1566 3506 1031 
Q 3506 472 3093 190 
Q 2681 -91 1863 -91 
Q 1516 -91 1145 -36 
Q 775 19 384 128 
L 384 978 
Q 719 816 1070 734 
Q 1422 653 1784 653 
Q 2113 653 2278 743 
Q 2444 834 2444 1013 
Q 2444 1163 2330 1236 
Q 2216 1309 1875 1350 
L 1678 1375 
Q 931 1469 631 1722 
Q 331 1975 331 2491 
Q 331 3047 712 3315 
Q 1094 3584 1881 3584 
Q 2191 3584 2531 3537 
Q 2872 3491 3272 3391 
z
" transform="scale(0.015625)"/>
      <path id="DejaVuSans-Bold-52" d="M 2203 2784 
Q 1831 2784 1636 2517 
Q 1441 2250 1441 1747 
Q 1441 1244 1636 976 
Q 1831 709 2203 709 
Q 2569 709 2762 976 
Q 2956 1244 2956 1747 
Q 2956 2250 2762 2517 
Q 2569 2784 2203 2784 
z
M 2203 3584 
Q 3106 3584 3614 3096 
Q 4122 2609 4122 1747 
Q 4122 884 3614 396 
Q 3106 -91 2203 -91 
Q 1297 -91 786 396 
Q 275 884 275 1747 
Q 275 2609 786 3096 
Q 1297 3584 2203 3584 
z
" transform="scale(0.015625)"/>
      <path id="DejaVuSans-Bold-51" d="M 4056 2131 
L 4056 0 
L 2931 0 
L 2931 347 
L 2931 1631 
Q 2931 2084 2911 2256 
Q 2891 2428 2841 2509 
Q 2775 2619 2662 2680 
Q 2550 2741 2406 2741 
Q 2056 2741 1856 2470 
Q 1656 2200 1656 1722 
L 1656 0 
L 538 0 
L 538 3500 
L 1656 3500 
L 1656 2988 
Q 1909 3294 2193 3439 
Q 2478 3584 2822 3584 
Q 3428 3584 3742 3212 
Q 4056 2841 4056 2131 
z
" transform="scale(0.015625)"/>
      <path id="DejaVuSans-Bold-10" d="M 347 2297 
L 2309 2297 
L 2309 1388 
L 347 1388 
L 347 2297 
z
" transform="scale(0.015625)"/>
      <path id="DejaVuSans-Bold-58" d="M 500 1363 
L 500 3500 
L 1625 3500 
L 1625 3150 
Q 1625 2866 1622 2436 
Q 1619 2006 1619 1863 
Q 1619 1441 1641 1255 
Q 1663 1069 1716 984 
Q 1784 875 1895 815 
Q 2006 756 2150 756 
Q 2500 756 2700 1025 
Q 2900 1294 2900 1772 
L 2900 3500 
L 4019 3500 
L 4019 0 
L 2900 0 
L 2900 506 
Q 2647 200 2364 54 
Q 2081 -91 1741 -91 
Q 1134 -91 817 281 
Q 500 653 500 1363 
z
" transform="scale(0.015625)"/>
      <path id="DejaVuSans-Bold-55" d="M 3138 2547 
Q 2991 2616 2845 2648 
Q 2700 2681 2553 2681 
Q 2122 2681 1889 2404 
Q 1656 2128 1656 1613 
L 1656 0 
L 538 0 
L 538 3500 
L 1656 3500 
L 1656 2925 
Q 1872 3269 2151 3426 
Q 2431 3584 2822 3584 
Q 2878 3584 2943 3579 
Q 3009 3575 3134 3559 
L 3138 2547 
z
" transform="scale(0.015625)"/>
      <path id="DejaVuSans-Bold-59" d="M 97 3500 
L 1216 3500 
L 2088 1081 
L 2956 3500 
L 4078 3500 
L 2700 0 
L 1472 0 
L 97 3500 
z
" transform="scale(0.015625)"/>
      <path id="DejaVuSans-Bold-3" transform="scale(0.015625)"/>
      <path id="DejaVuSans-Bold-44" d="M 2106 1575 
Q 1756 1575 1579 1456 
Q 1403 1338 1403 1106 
Q 1403 894 1545 773 
Q 1688 653 1941 653 
Q 2256 653 2472 879 
Q 2688 1106 2688 1447 
L 2688 1575 
L 2106 1575 
z
M 3816 1997 
L 3816 0 
L 2688 0 
L 2688 519 
Q 2463 200 2181 54 
Q 1900 -91 1497 -91 
Q 953 -91 614 226 
Q 275 544 275 1050 
Q 275 1666 698 1953 
Q 1122 2241 2028 2241 
L 2688 2241 
L 2688 2328 
Q 2688 2594 2478 2717 
Q 2269 2841 1825 2841 
Q 1466 2841 1156 2769 
Q 847 2697 581 2553 
L 581 3406 
Q 941 3494 1303 3539 
Q 1666 3584 2028 3584 
Q 2975 3584 3395 3211 
Q 3816 2838 3816 1997 
z
" transform="scale(0.015625)"/>
      <path id="DejaVuSans-Bold-4f" d="M 538 4863 
L 1656 4863 
L 1656 0 
L 538 0 
L 538 4863 
z
" transform="scale(0.015625)"/>
      <path id="DejaVuSans-Bold-5c" d="M 78 3500 
L 1197 3500 
L 2138 1125 
L 2938 3500 
L 4056 3500 
L 2584 -331 
Q 2363 -916 2067 -1148 
Q 1772 -1381 1288 -1381 
L 641 -1381 
L 641 -647 
L 991 -647 
Q 1275 -647 1404 -556 
Q 1534 -466 1606 -231 
L 1638 -134 
L 78 3500 
z
" transform="scale(0.015625)"/>
     </defs>
     <use xlink:href="#DejaVuSans-Bold-27"/>
     <use xlink:href="#DejaVuSans-Bold-48" transform="translate(83.015625 0)"/>
     <use xlink:href="#DejaVuSans-Bold-46" transform="translate(150.84375 0)"/>
     <use xlink:href="#DejaVuSans-Bold-4c" transform="translate(210.125 0)"/>
     <use xlink:href="#DejaVuSans-Bold-56" transform="translate(244.40625 0)"/>
     <use xlink:href="#DejaVuSans-Bold-4c" transform="translate(303.921875 0)"/>
     <use xlink:href="#DejaVuSans-Bold-52" transform="translate(338.203125 0)"/>
     <use xlink:href="#DejaVuSans-Bold-51" transform="translate(406.90625 0)"/>
     <use xlink:href="#DejaVuSans-Bold-10" transform="translate(478.09375 0)"/>
     <use xlink:href="#DejaVuSans-Bold-46" transform="translate(519.59375 0)"/>
     <use xlink:href="#DejaVuSans-Bold-58" transform="translate(578.875 0)"/>
     <use xlink:href="#DejaVuSans-Bold-55" transform="translate(650.0625 0)"/>
     <use xlink:href="#DejaVuSans-Bold-59" transform="translate(699.375 0)"/>
     <use xlink:href="#DejaVuSans-Bold-48" transform="translate(764.5625 0)"/>
     <use xlink:href="#DejaVuSans-Bold-3" transform="translate(832.390625 0)"/>
     <use xlink:href="#DejaVuSans-Bold-44" transform="translate(867.203125 0)"/>
     <use xlink:href="#DejaVuSans-Bold-51" transform="translate(934.6875 0)"/>
     <use xlink:href="#DejaVuSans-Bold-44" transform="translate(1005.875 0)"/>
     <use xlink:href="#DejaVuSans-Bold-4f" transform="translate(1073.359375 0)"/>
     <use xlink:href="#DejaVuSans-Bold-5c" transform="translate(1107.640625 0)"/>
     <use xlink:href="#DejaVuSans-Bold-56" transform="translate(1172.828125 0)"/>
     <use xlink:href="#DejaVuSans-Bold-4c" transform="translate(1232.34375 0)"/>
     <use xlink:href="#DejaVuSans-Bold-56" transform="translate(1266.625 0)"/>
    </g>
   </g>
   <g id="legend_1">
    <g id="line2d_28">
     <path d="M 63.48375 314.613281 
L 73.48375 314.613281 
L 83.48375 314.613281 
" style="fill: none; stroke: #3d5a80; stroke-width: 2.5; stroke-linecap: square"/>
    </g>
    <g id="text_16">
     <!-- LLM cohort model -->
     <g style="fill: #1f2933" transform="translate(91.48375 318.113281) scale(0.1 -0.1)">
      <defs>
       <path id="DejaVuSans-2f" d="M 628 4666 
L 1259 4666 
L 1259 531 
L 3531 531 
L 3531 0 
L 628 0 
L 628 4666 
z
" transform="scale(0.015625)"/>
       <path id="DejaVuSans-30" d="M 628 4666 
L 1569 4666 
L 2759 1491 
L 3956 4666 
L 4897 4666 
L 4897 0 
L 4281 0 
L 4281 4097 
L 3078 897 
L 2444 897 
L 1241 4097 
L 1241 0 
L 628 0 
L 628 4666 
z
" transform="scale(0.015625)"/>
       <path id="DejaVuSans-46" d="M 3122 3366 
L 3122 2828 
Q 2878 2963 2633 3030 
Q 2388 3097 2138 3097 
Q 1578 3097 1268 2742 
Q 959 2388 959 1747 
Q 959 1106 1268 751 
Q 1578 397 2138 397 
Q 2388 397 2633 464 
Q 2878 531 3122 666 
L 3122 134 
Q 2881 22 2623 -34 
Q 2366 -91 2075 -91 
Q 1284 -91 818 406 
Q 353 903 353 1747 
Q 353 2603 823 3093 
Q 1294 3584 2113 3584 
Q 2378 3584 2631 3529 
Q 2884 3475 3122 3366 
z
" transform="scale(0.015625)"/>
       <path id="DejaVuSans-50" d="M 3328 2828 
Q 3544 3216 3844 3400 
Q 4144 3584 4550 3584 
Q 5097 3584 5394 3201 
Q 5691 2819 5691 2113 
L 5691 0 
L 5113 0 
L 5113 2094 
Q 5113 2597 4934 2840 
Q 4756 3084 4391 3084 
Q 3944 3084 3684 2787 
Q 3425 2491 3425 1978 
L 3425 0 
L 2847 0 
L 2847 2094 
Q 2847 2600 2669 2842 
Q 2491 3084 2119 3084 
Q 1678 3084 1418 2786 
Q 1159 2488 1159 1978 
L 1159 0 
L 581 0 
L 581 3500 
L 1159 3500 
L 1159 2956 
Q 1356 3278 1631 3431 
Q 1906 3584 2284 3584 
Q 2666 3584 2933 3390 
Q 3200 3197 3328 2828 
z
" transform="scale(0.015625)"/>
      </defs>
      <use xlink:href="#DejaVuSans-2f"/>
      <use xlink:href="#DejaVuSans-2f" transform="translate(55.71875 0)"/>
      <use xlink:href="#DejaVuSans-30" transform="translate(111.4375 0)"/>
      <use xlink:href="#DejaVuSans-3" transform="translate(197.71875 0)"/>
      <use xlink:href="#DejaVuSans-46" transform="translate(229.5 0)"/>
      <use xlink:href="#DejaVuSans-52" transform="translate(284.484375 0)"/>
      <use xlink:href="#DejaVuSans-4b" transform="translate(345.671875 0)"/>
      <use xlink:href="#DejaVuSans-52" transform="translate(409.046875 0)"/>
      <use xlink:href="#DejaVuSans-55" transform="translate(470.234375 0)"/>
      <use xlink:href="#DejaVuSans-57" transform="translate(511.34375 0)"/>
      <use xlink:href="#DejaVuSans-3" transform="translate(550.546875 0)"/>
      <use xlink:href="#DejaVuSans-50" transform="translate(582.328125 0)"/>
      <use xlink:href="#DejaVuSans-52" transform="translate(679.734375 0)"/>
      <use xlink:href="#DejaVuSans-47" transform="translate(740.921875 0)"/>
      <use xlink:href="#DejaVuSans-48" transform="translate(804.40625 0)"/>
      <use xlink:href="#DejaVuSans-4f" transform="translate(865.9375 0)"/>
     </g>
    </g>
    <g id="line2d_29">
     <path d="M 63.48375 329.614062 
L 73.48375 329.614062 
L 83.48375 329.614062 
" style="fill: none; stroke: #a43e3e; stroke-width: 2; stroke-linecap: square"/>
    </g>
    <g id="text_17">
     <!-- Treat all -->
     <g style="fill: #1f2933" transform="translate(91.48375 333.114062) scale(0.1 -0.1)">
      <defs>
       <path id="DejaVuSans-37" d="M -19 4666 
L 3928 4666 
L 3928 4134 
L 2272 4134 
L 2272 0 
L 1638 0 
L 1638 4134 
L -19 4134 
L -19 4666 
z
" transform="scale(0.015625)"/>
       <path id="DejaVuSans-44" d="M 2194 1759 
Q 1497 1759 1228 1600 
Q 959 1441 959 1056 
Q 959 750 1161 570 
Q 1363 391 1709 391 
Q 2188 391 2477 730 
Q 2766 1069 2766 1631 
L 2766 1759 
L 2194 1759 
z
M 3341 1997 
L 3341 0 
L 2766 0 
L 2766 531 
Q 2569 213 2275 61 
Q 1981 -91 1556 -91 
Q 1019 -91 701 211 
Q 384 513 384 1019 
Q 384 1609 779 1909 
Q 1175 2209 1959 2209 
L 2766 2209 
L 2766 2266 
Q 2766 2663 2505 2880 
Q 2244 3097 1772 3097 
Q 1472 3097 1187 3025 
Q 903 2953 641 2809 
L 641 3341 
Q 956 3463 1253 3523 
Q 1550 3584 1831 3584 
Q 2591 3584 2966 3190 
Q 3341 2797 3341 1997 
z
" transform="scale(0.015625)"/>
      </defs>
      <use xlink:href="#DejaVuSans-37"/>
      <use xlink:href="#DejaVuSans-55" transform="translate(46.375 0)"/>
      <use xlink:href="#DejaVuSans-48" transform="translate(85.28125 0)"/>
      <use xlink:href="#DejaVuSans-44" transform="translate(146.8125 0)"/>
      <use xlink:href="#DejaVuSans-57" transform="translate(208.09375 0)"/>
      <use xlink:href="#DejaVuSans-3" transform="translate(247.296875 0)"/>
      <use xlink:href="#DejaVuSans-44" transform="translate(279.078125 0)"/>
      <use xlink:href="#DejaVuSans-4f" transform="translate(340.359375 0)"/>
      <use xlink:href="#DejaVuSans-4f" transform="translate(368.140625 0)"/>
     </g>
    </g>
    <g id="line2d_30">
     <path d="M 63.48375 344.614844 
L 73.48375 344.614844 
L 83.48375 344.614844 
" style="fill: none; stroke: #5f7182; stroke-width: 2; stroke-linecap: square"/>
    </g>
    <g id="text_18">
     <!-- Treat none -->
     <g style="fill: #1f2933" transform="translate(91.48375 348.114844) scale(0.1 -0.1)">
      <use xlink:href="#DejaVuSans-37"/>
      <use xlink:href="#DejaVuSans-55" transform="translate(46.375 0)"/>
      <use xlink:href="#DejaVuSans-48" transform="translate(85.28125 0)"/>
      <use xlink:href="#DejaVuSans-44" transform="translate(146.8125 0)"/>
      <use xlink:href="#DejaVuSans-57" transform="translate(208.09375 0)"/>
      <use xlink:href="#DejaVuSans-3" transform="translate(247.296875 0)"/>
      <use xlink:href="#DejaVuSans-51" transform="translate(279.078125 0)"/>
      <use xlink:href="#DejaVuSans-52" transform="translate(342.453125 0)"/>
      <use xlink:href="#DejaVuSans-51" transform="translate(403.640625 0)"/>
      <use xlink:href="#DejaVuSans-48" transform="translate(467.015625 0)"/>
     </g>
    </g>
   </g>
  </g>
 </g>
 <defs>
  <clipPath id="pebc3a2b5fe">
   <rect x="54.48375" y="26.877187" width="558" height="332.64"/>
  </clipPath>
 </defs>
</svg>
