<?xml version="1.0" encoding="utf-8" standalone="no"?>
<!DOCTYPE svg PUBLIC "-//W3C//DTD SVG 1.1//EN"
  "http://www.w3.org/Graphics/SVG/1.1/DTD/svg11.dtd">
<svg xmlns:xlink="http://www.w3.org/1999/xlink" width="794.040215pt" height="427.438125pt" viewBox="0 0 794.040215 427.438125" xmlns="http://www.w3.org/2000/svg" version="1.1">
 <metadata>
  <rdf:RDF xmlns:dc="http://purl.org/dc/elements/1.1/" xmlns:cc="http://creativecommons.org/ns#" xmlns:rdf="http://www.w3.org/1999/02/22-rdf-syntax-ns#">
   <cc:Work>
    <dc:type rdf:resource="http://purl.org/dc/dcmitype/StillImage"/>
    <dc:date>2026-07-15T15:01:40.643706</dc:date>
    <dc:format>image/svg+xml</dc:format>
    <dc:creator>
     <cc:Agent>
      <dc:title>Matplotlib v3.11.0, https://matplotlib.org/</dc:title>
     </cc:Agent>
    </dc:creator>
   </cc:Work>
  </rdf:RDF>
 </metadata>
 <defs>
  <style type="text/css">*{stroke-linejoin: round; stroke-linecap: butt}</style>
 </defs>
 <g id="figure_1">
  <g id="patch_1">
   <path d="M 0 427.438125 
L 794.040215 427.438125 
L 794.040215 0 
L 0 0 
z
" style="fill: #ffffff"/>
  </g>
  <g id="axes_1">
   <g id="patch_2">
    <path d="M 46.104063 387.237187 
L 398.835564 387.237187 
L 398.835564 26.877187 
L 46.104063 26.877187 
z
" style="fill: #ffffff"/>
   </g>
   <g id="matplotlib.axis_1">
    <g id="xtick_1">
     <g id="line2d_1">
      <path d="M 46.104063 387.237187 
L 46.104063 26.877187 
" clip-path="url(#p12129c0237)" style="fill: none; stroke: #b0b0b0; stroke-opacity: 0.25; stroke-width: 0.8; stroke-linecap: square"/>
     </g>
     <g id="line2d_2">
      <defs>
       <path id="mfd0d8ea700" d="M 0 0 
L 0 3.5 
" style="stroke: #1f2933; stroke-width: 0.8"/>
      </defs>
      <g>
       <use xlink:href="#mfd0d8ea700" x="46.104063" y="387.237187" style="fill: #1f2933; stroke: #1f2933; stroke-width: 0.8"/>
      </g>
     </g>
     <g id="text_1">
      <!-- 0.0 -->
      <g style="fill: #1f2933" transform="translate(38.1525 401.834844) scale(0.1 -0.1)">
       <defs>
        <path id="DejaVuSans-13" d="M 2034 4250 
Q 1547 4250 1301 3770 
Q 1056 3291 1056 2328 
Q 1056 1369 1301 889 
Q 1547 409 2034 409 
Q 2525 409 2770 889 
Q 3016 1369 3016 2328 
Q 3016 3291 2770 3770 
Q 2525 4250 2034 4250 
z
M 2034 4750 
Q 2819 4750 3233 4129 
Q 3647 3509 3647 2328 
Q 3647 1150 3233 529 
Q 2819 -91 2034 -91 
Q 1250 -91 836 529 
Q 422 1150 422 2328 
Q 422 3509 836 4129 
Q 1250 4750 2034 4750 
z
" transform="scale(0.015625)"/>
        <path id="DejaVuSans-11" d="M 684 794 
L 1344 794 
L 1344 0 
L 684 0 
L 684 794 
z
" transform="scale(0.015625)"/>
       </defs>
       <use xlink:href="#DejaVuSans-13"/>
       <use xlink:href="#DejaVuSans-11" transform="translate(63.625 0)"/>
       <use xlink:href="#DejaVuSans-13" transform="translate(95.40625 0)"/>
      </g>
     </g>
    </g>
    <g id="xtick_2">
     <g id="line2d_3">
      <path d="M 89.984974 387.237187 
L 89.984974 26.877187 
" clip-path="url(#p12129c0237)" style="fill: none; stroke: #b0b0b0; stroke-opacity: 0.25; stroke-width: 0.8; stroke-linecap: square"/>
     </g>
     <g id="line2d_4">
      <g>
       <use xlink:href="#mfd0d8ea700" x="89.984974" y="387.237187" style="fill: #1f2933; stroke: #1f2933; stroke-width: 0.8"/>
      </g>
     </g>
     <g id="text_2">
      <!-- 0.1 -->
      <g style="fill: #1f2933" transform="translate(82.033411 401.834844) scale(0.1 -0.1)">
       <defs>
        <path id="DejaVuSans-14" d="M 794 531 
L 1825 531 
L 1825 4091 
L 703 3866 
L 703 4441 
L 1819 4666 
L 2450 4666 
L 2450 531 
L 3481 531 
L 3481 0 
L 794 0 
L 794 531 
z
" transform="scale(0.015625)"/>
       </defs>
       <use xlink:href="#DejaVuSans-13"/>
       <use xlink:href="#DejaVuSans-11" transform="translate(63.625 0)"/>
       <use xlink:href="#DejaVuSans-14" transform="translate(95.40625 0)"/>
      </g>
     </g>
    </g>
    <g id="xtick_3">
     <g id="line2d_5">
      <path d="M 133.865885 387.237187 
L 133.865885 26.877187 
" clip-path="url(#p12129c0237)" style="fill: none; stroke: #b0b0b0; stroke-opacity: 0.25; stroke-width: 0.8; stroke-linecap: square"/>
     </g>
     <g id="line2d_6">
      <g>
       <use xlink:href="#mfd0d8ea700" x="133.865885" y="387.237187" style="fill: #1f2933; stroke: #1f2933; stroke-width: 0.8"/>
      </g>
     </g>
     <g id="text_3">
      <!-- 0.2 -->
      <g style="fill: #1f2933" transform="translate(125.914322 401.834844) scale(0.1 -0.1)">
       <defs>
        <path id="DejaVuSans-15" d="M 1228 531 
L 3431 531 
L 3431 0 
L 469 0 
L 469 531 
Q 828 903 1448 1529 
Q 2069 2156 2228 2338 
Q 2531 2678 2651 2914 
Q 2772 3150 2772 3378 
Q 2772 3750 2511 3984 
Q 2250 4219 1831 4219 
Q 1534 4219 1204 4116 
Q 875 4013 500 3803 
L 500 4441 
Q 881 4594 1212 4672 
Q 1544 4750 1819 4750 
Q 2544 4750 2975 4387 
Q 3406 4025 3406 3419 
Q 3406 3131 3298 2873 
Q 3191 2616 2906 2266 
Q 2828 2175 2409 1742 
Q 1991 1309 1228 531 
z
" transform="scale(0.015625)"/>
       </defs>
       <use xlink:href="#DejaVuSans-13"/>
       <use xlink:href="#DejaVuSans-11" transform="translate(63.625 0)"/>
       <use xlink:href="#DejaVuSans-15" transform="translate(95.40625 0)"/>
      </g>
     </g>
    </g>
    <g id="xtick_4">
     <g id="line2d_7">
      <path d="M 177.746796 387.237187 
L 177.746796 26.877187 
" clip-path="url(#p12129c0237)" style="fill: none; stroke: #b0b0b0; stroke-opacity: 0.25; stroke-width: 0.8; stroke-linecap: square"/>
     </g>
     <g id="line2d_8">
      <g>
       <use xlink:href="#mfd0d8ea700" x="177.746796" y="387.237187" style="fill: #1f2933; stroke: #1f2933; stroke-width: 0.8"/>
      </g>
     </g>
     <g id="text_4">
      <!-- 0.3 -->
      <g style="fill: #1f2933" transform="translate(169.795233 401.834844) scale(0.1 -0.1)">
       <defs>
        <path id="DejaVuSans-16" d="M 2597 2516 
Q 3050 2419 3304 2112 
Q 3559 1806 3559 1356 
Q 3559 666 3084 287 
Q 2609 -91 1734 -91 
Q 1441 -91 1130 -33 
Q 819 25 488 141 
L 488 750 
Q 750 597 1062 519 
Q 1375 441 1716 441 
Q 2309 441 2620 675 
Q 2931 909 2931 1356 
Q 2931 1769 2642 2001 
Q 2353 2234 1838 2234 
L 1294 2234 
L 1294 2753 
L 1863 2753 
Q 2328 2753 2575 2939 
Q 2822 3125 2822 3475 
Q 2822 3834 2567 4026 
Q 2313 4219 1838 4219 
Q 1578 4219 1281 4162 
Q 984 4106 628 3988 
L 628 4550 
Q 988 4650 1302 4700 
Q 1616 4750 1894 4750 
Q 2613 4750 3031 4423 
Q 3450 4097 3450 3541 
Q 3450 3153 3228 2886 
Q 3006 2619 2597 2516 
z
" transform="scale(0.015625)"/>
       </defs>
       <use xlink:href="#DejaVuSans-13"/>
       <use xlink:href="#DejaVuSans-11" transform="translate(63.625 0)"/>
       <use xlink:href="#DejaVuSans-16" transform="translate(95.40625 0)"/>
      </g>
     </g>
    </g>
    <g id="xtick_5">
     <g id="line2d_9">
      <path d="M 221.627707 387.237187 
L 221.627707 26.877187 
" clip-path="url(#p12129c0237)" style="fill: none; stroke: #b0b0b0; stroke-opacity: 0.25; stroke-width: 0.8; stroke-linecap: square"/>
     </g>
     <g id="line2d_10">
      <g>
       <use xlink:href="#mfd0d8ea700" x="221.627707" y="387.237187" style="fill: #1f2933; stroke: #1f2933; stroke-width: 0.8"/>
      </g>
     </g>
     <g id="text_5">
      <!-- 0.4 -->
      <g style="fill: #1f2933" transform="translate(213.676144 401.834844) scale(0.1 -0.1)">
       <defs>
        <path id="DejaVuSans-17" d="M 2419 4116 
L 825 1625 
L 2419 1625 
L 2419 4116 
z
M 2253 4666 
L 3047 4666 
L 3047 1625 
L 3713 1625 
L 3713 1100 
L 3047 1100 
L 3047 0 
L 2419 0 
L 2419 1100 
L 313 1100 
L 313 1709 
L 2253 4666 
z
" transform="scale(0.015625)"/>
       </defs>
       <use xlink:href="#DejaVuSans-13"/>
       <use xlink:href="#DejaVuSans-11" transform="translate(63.625 0)"/>
       <use xlink:href="#DejaVuSans-17" transform="translate(95.40625 0)"/>
      </g>
     </g>
    </g>
    <g id="xtick_6">
     <g id="line2d_11">
      <path d="M 265.508618 387.237187 
L 265.508618 26.877187 
" clip-path="url(#p12129c0237)" style="fill: none; stroke: #b0b0b0; stroke-opacity: 0.25; stroke-width: 0.8; stroke-linecap: square"/>
     </g>
     <g id="line2d_12">
      <g>
       <use xlink:href="#mfd0d8ea700" x="265.508618" y="387.237187" style="fill: #1f2933; stroke: #1f2933; stroke-width: 0.8"/>
      </g>
     </g>
     <g id="text_6">
      <!-- 0.5 -->
      <g style="fill: #1f2933" transform="translate(257.557055 401.834844) scale(0.1 -0.1)">
       <defs>
        <path id="DejaVuSans-18" d="M 691 4666 
L 3169 4666 
L 3169 4134 
L 1269 4134 
L 1269 2991 
Q 1406 3038 1543 3061 
Q 1681 3084 1819 3084 
Q 2600 3084 3056 2656 
Q 3513 2228 3513 1497 
Q 3513 744 3044 326 
Q 2575 -91 1722 -91 
Q 1428 -91 1123 -41 
Q 819 9 494 109 
L 494 744 
Q 775 591 1075 516 
Q 1375 441 1709 441 
Q 2250 441 2565 725 
Q 2881 1009 2881 1497 
Q 2881 1984 2565 2268 
Q 2250 2553 1709 2553 
Q 1456 2553 1204 2497 
Q 953 2441 691 2322 
L 691 4666 
z
" transform="scale(0.015625)"/>
       </defs>
       <use xlink:href="#DejaVuSans-13"/>
       <use xlink:href="#DejaVuSans-11" transform="translate(63.625 0)"/>
       <use xlink:href="#DejaVuSans-18" transform="translate(95.40625 0)"/>
      </g>
     </g>
    </g>
    <g id="xtick_7">
     <g id="line2d_13">
      <path d="M 309.389529 387.237187 
L 309.389529 26.877187 
" clip-path="url(#p12129c0237)" style="fill: none; stroke: #b0b0b0; stroke-opacity: 0.25; stroke-width: 0.8; stroke-linecap: square"/>
     </g>
     <g id="line2d_14">
      <g>
       <use xlink:href="#mfd0d8ea700" x="309.389529" y="387.237187" style="fill: #1f2933; stroke: #1f2933; stroke-width: 0.8"/>
      </g>
     </g>
     <g id="text_7">
      <!-- 0.6 -->
      <g style="fill: #1f2933" transform="translate(301.437966 401.834844) scale(0.1 -0.1)">
       <defs>
        <path id="DejaVuSans-19" d="M 2113 2584 
Q 1688 2584 1439 2293 
Q 1191 2003 1191 1497 
Q 1191 994 1439 701 
Q 1688 409 2113 409 
Q 2538 409 2786 701 
Q 3034 994 3034 1497 
Q 3034 2003 2786 2293 
Q 2538 2584 2113 2584 
z
M 3366 4563 
L 3366 3988 
Q 3128 4100 2886 4159 
Q 2644 4219 2406 4219 
Q 1781 4219 1451 3797 
Q 1122 3375 1075 2522 
Q 1259 2794 1537 2939 
Q 1816 3084 2150 3084 
Q 2853 3084 3261 2657 
Q 3669 2231 3669 1497 
Q 3669 778 3244 343 
Q 2819 -91 2113 -91 
Q 1303 -91 875 529 
Q 447 1150 447 2328 
Q 447 3434 972 4092 
Q 1497 4750 2381 4750 
Q 2619 4750 2861 4703 
Q 3103 4656 3366 4563 
z
" transform="scale(0.015625)"/>
       </defs>
       <use xlink:href="#DejaVuSans-13"/>
       <use xlink:href="#DejaVuSans-11" transform="translate(63.625 0)"/>
       <use xlink:href="#DejaVuSans-19" transform="translate(95.40625 0)"/>
      </g>
     </g>
    </g>
    <g id="xtick_8">
     <g id="line2d_15">
      <path d="M 353.27044 387.237187 
L 353.27044 26.877187 
" clip-path="url(#p12129c0237)" style="fill: none; stroke: #b0b0b0; stroke-opacity: 0.25; stroke-width: 0.8; stroke-linecap: square"/>
     </g>
     <g id="line2d_16">
      <g>
       <use xlink:href="#mfd0d8ea700" x="353.27044" y="387.237187" style="fill: #1f2933; stroke: #1f2933; stroke-width: 0.8"/>
      </g>
     </g>
     <g id="text_8">
      <!-- 0.7 -->
      <g style="fill: #1f2933" transform="translate(345.318877 401.834844) scale(0.1 -0.1)">
       <defs>
        <path id="DejaVuSans-1a" d="M 525 4666 
L 3525 4666 
L 3525 4397 
L 1831 0 
L 1172 0 
L 2766 4134 
L 525 4134 
L 525 4666 
z
" transform="scale(0.015625)"/>
       </defs>
       <use xlink:href="#DejaVuSans-13"/>
       <use xlink:href="#DejaVuSans-11" transform="translate(63.625 0)"/>
       <use xlink:href="#DejaVuSans-1a" transform="translate(95.40625 0)"/>
      </g>
     </g>
    </g>
    <g id="xtick_9">
     <g id="line2d_17">
      <path d="M 397.151351 387.237187 
L 397.151351 26.877187 
" clip-path="url(#p12129c0237)" style="fill: none; stroke: #b0b0b0; stroke-opacity: 0.25; stroke-width: 0.8; stroke-linecap: square"/>
     </g>
     <g id="line2d_18">
      <g>
       <use xlink:href="#mfd0d8ea700" x="397.151351" y="387.237187" style="fill: #1f2933; stroke: #1f2933; stroke-width: 0.8"/>
      </g>
     </g>
     <g id="text_9">
      <!-- 0.8 -->
      <g style="fill: #1f2933" transform="translate(389.199789 401.834844) scale(0.1 -0.1)">
       <defs>
        <path id="DejaVuSans-1b" d="M 2034 2216 
Q 1584 2216 1326 1975 
Q 1069 1734 1069 1313 
Q 1069 891 1326 650 
Q 1584 409 2034 409 
Q 2484 409 2743 651 
Q 3003 894 3003 1313 
Q 3003 1734 2745 1975 
Q 2488 2216 2034 2216 
z
M 1403 2484 
Q 997 2584 770 2862 
Q 544 3141 544 3541 
Q 544 4100 942 4425 
Q 1341 4750 2034 4750 
Q 2731 4750 3128 4425 
Q 3525 4100 3525 3541 
Q 3525 3141 3298 2862 
Q 3072 2584 2669 2484 
Q 3125 2378 3379 2068 
Q 3634 1759 3634 1313 
Q 3634 634 3220 271 
Q 2806 -91 2034 -91 
Q 1263 -91 848 271 
Q 434 634 434 1313 
Q 434 1759 690 2068 
Q 947 2378 1403 2484 
z
M 1172 3481 
Q 1172 3119 1398 2916 
Q 1625 2713 2034 2713 
Q 2441 2713 2670 2916 
Q 2900 3119 2900 3481 
Q 2900 3844 2670 4047 
Q 2441 4250 2034 4250 
Q 1625 4250 1398 4047 
Q 1172 3844 1172 3481 
z
" transform="scale(0.015625)"/>
       </defs>
       <use xlink:href="#DejaVuSans-13"/>
       <use xlink:href="#DejaVuSans-11" transform="translate(63.625 0)"/>
       <use xlink:href="#DejaVuSans-1b" transform="translate(95.40625 0)"/>
      </g>
     </g>
    </g>
    <g id="text_10">
     <!-- Mean predicted risk -->
     <g style="fill: #1f2933" transform="translate(163.111063 417.355312) scale(0.12 -0.12)">
      <defs>
       <path id="DejaVuSans-30" d="M 628 4666 
L 1569 4666 
L 2759 1491 
L 3956 4666 
L 4897 4666 
L 4897 0 
L 4281 0 
L 4281 4097 
L 3078 897 
L 2444 897 
L 1241 4097 
L 1241 0 
L 628 0 
L 628 4666 
z
" transform="scale(0.015625)"/>
       <path id="DejaVuSans-48" d="M 3597 1894 
L 3597 1613 
L 953 1613 
Q 991 1019 1311 708 
Q 1631 397 2203 397 
Q 2534 397 2845 478 
Q 3156 559 3463 722 
L 3463 178 
Q 3153 47 2828 -22 
Q 2503 -91 2169 -91 
Q 1331 -91 842 396 
Q 353 884 353 1716 
Q 353 2575 817 3079 
Q 1281 3584 2069 3584 
Q 2775 3584 3186 3129 
Q 3597 2675 3597 1894 
z
M 3022 2063 
Q 3016 2534 2758 2815 
Q 2500 3097 2075 3097 
Q 1594 3097 1305 2825 
Q 1016 2553 972 2059 
L 3022 2063 
z
" transform="scale(0.015625)"/>
       <path id="DejaVuSans-44" d="M 2194 1759 
Q 1497 1759 1228 1600 
Q 959 1441 959 1056 
Q 959 750 1161 570 
Q 1363 391 1709 391 
Q 2188 391 2477 730 
Q 2766 1069 2766 1631 
L 2766 1759 
L 2194 1759 
z
M 3341 1997 
L 3341 0 
L 2766 0 
L 2766 531 
Q 2569 213 2275 61 
Q 1981 -91 1556 -91 
Q 1019 -91 701 211 
Q 384 513 384 1019 
Q 384 1609 779 1909 
Q 1175 2209 1959 2209 
L 2766 2209 
L 2766 2266 
Q 2766 2663 2505 2880 
Q 2244 3097 1772 3097 
Q 1472 3097 1187 3025 
Q 903 2953 641 2809 
L 641 3341 
Q 956 3463 1253 3523 
Q 1550 3584 1831 3584 
Q 2591 3584 2966 3190 
Q 3341 2797 3341 1997 
z
" transform="scale(0.015625)"/>
       <path id="DejaVuSans-51" d="M 3513 2113 
L 3513 0 
L 2938 0 
L 2938 2094 
Q 2938 2591 2744 2837 
Q 2550 3084 2163 3084 
Q 1697 3084 1428 2787 
Q 1159 2491 1159 1978 
L 1159 0 
L 581 0 
L 581 3500 
L 1159 3500 
L 1159 2956 
Q 1366 3272 1645 3428 
Q 1925 3584 2291 3584 
Q 2894 3584 3203 3211 
Q 3513 2838 3513 2113 
z
" transform="scale(0.015625)"/>
       <path id="DejaVuSans-3" transform="scale(0.015625)"/>
       <path id="DejaVuSans-53" d="M 1159 525 
L 1159 -1331 
L 581 -1331 
L 581 3500 
L 1159 3500 
L 1159 2969 
Q 1341 3281 1617 3432 
Q 1894 3584 2278 3584 
Q 2916 3584 3314 3078 
Q 3713 2572 3713 1747 
Q 3713 922 3314 415 
Q 2916 -91 2278 -91 
Q 1894 -91 1617 61 
Q 1341 213 1159 525 
z
M 3116 1747 
Q 3116 2381 2855 2742 
Q 2594 3103 2138 3103 
Q 1681 3103 1420 2742 
Q 1159 2381 1159 1747 
Q 1159 1113 1420 752 
Q 1681 391 2138 391 
Q 2594 391 2855 752 
Q 3116 1113 3116 1747 
z
" transform="scale(0.015625)"/>
       <path id="DejaVuSans-55" d="M 2631 2963 
Q 2534 3019 2420 3045 
Q 2306 3072 2169 3072 
Q 1681 3072 1420 2755 
Q 1159 2438 1159 1844 
L 1159 0 
L 581 0 
L 581 3500 
L 1159 3500 
L 1159 2956 
Q 1341 3275 1631 3429 
Q 1922 3584 2338 3584 
Q 2397 3584 2469 3576 
Q 2541 3569 2628 3553 
L 2631 2963 
z
" transform="scale(0.015625)"/>
       <path id="DejaVuSans-47" d="M 2906 2969 
L 2906 4863 
L 3481 4863 
L 3481 0 
L 2906 0 
L 2906 525 
Q 2725 213 2448 61 
Q 2172 -91 1784 -91 
Q 1150 -91 751 415 
Q 353 922 353 1747 
Q 353 2572 751 3078 
Q 1150 3584 1784 3584 
Q 2172 3584 2448 3432 
Q 2725 3281 2906 2969 
z
M 947 1747 
Q 947 1113 1208 752 
Q 1469 391 1925 391 
Q 2381 391 2643 752 
Q 2906 1113 2906 1747 
Q 2906 2381 2643 2742 
Q 2381 3103 1925 3103 
Q 1469 3103 1208 2742 
Q 947 2381 947 1747 
z
" transform="scale(0.015625)"/>
       <path id="DejaVuSans-4c" d="M 603 3500 
L 1178 3500 
L 1178 0 
L 603 0 
L 603 3500 
z
M 603 4863 
L 1178 4863 
L 1178 4134 
L 603 4134 
L 603 4863 
z
" transform="scale(0.015625)"/>
       <path id="DejaVuSans-46" d="M 3122 3366 
L 3122 2828 
Q 2878 2963 2633 3030 
Q 2388 3097 2138 3097 
Q 1578 3097 1268 2742 
Q 959 2388 959 1747 
Q 959 1106 1268 751 
Q 1578 397 2138 397 
Q 2388 397 2633 464 
Q 2878 531 3122 666 
L 3122 134 
Q 2881 22 2623 -34 
Q 2366 -91 2075 -91 
Q 1284 -91 818 406 
Q 353 903 353 1747 
Q 353 2603 823 3093 
Q 1294 3584 2113 3584 
Q 2378 3584 2631 3529 
Q 2884 3475 3122 3366 
z
" transform="scale(0.015625)"/>
       <path id="DejaVuSans-57" d="M 1172 4494 
L 1172 3500 
L 2356 3500 
L 2356 3053 
L 1172 3053 
L 1172 1153 
Q 1172 725 1289 603 
Q 1406 481 1766 481 
L 2356 481 
L 2356 0 
L 1766 0 
Q 1100 0 847 248 
Q 594 497 594 1153 
L 594 3053 
L 172 3053 
L 172 3500 
L 594 3500 
L 594 4494 
L 1172 4494 
z
" transform="scale(0.015625)"/>
       <path id="DejaVuSans-56" d="M 2834 3397 
L 2834 2853 
Q 2591 2978 2328 3040 
Q 2066 3103 1784 3103 
Q 1356 3103 1142 2972 
Q 928 2841 928 2578 
Q 928 2378 1081 2264 
Q 1234 2150 1697 2047 
L 1894 2003 
Q 2506 1872 2764 1633 
Q 3022 1394 3022 966 
Q 3022 478 2636 193 
Q 2250 -91 1575 -91 
Q 1294 -91 989 -36 
Q 684 19 347 128 
L 347 722 
Q 666 556 975 473 
Q 1284 391 1588 391 
Q 1994 391 2212 530 
Q 2431 669 2431 922 
Q 2431 1156 2273 1281 
Q 2116 1406 1581 1522 
L 1381 1569 
Q 847 1681 609 1914 
Q 372 2147 372 2553 
Q 372 3047 722 3315 
Q 1072 3584 1716 3584 
Q 2034 3584 2315 3537 
Q 2597 3491 2834 3397 
z
" transform="scale(0.015625)"/>
       <path id="DejaVuSans-4e" d="M 581 4863 
L 1159 4863 
L 1159 1991 
L 2875 3500 
L 3609 3500 
L 1753 1863 
L 3688 0 
L 2938 0 
L 1159 1709 
L 1159 0 
L 581 0 
L 581 4863 
z
" transform="scale(0.015625)"/>
      </defs>
      <use xlink:href="#DejaVuSans-30"/>
      <use xlink:href="#DejaVuSans-48" transform="translate(86.28125 0)"/>
      <use xlink:href="#DejaVuSans-44" transform="translate(147.8125 0)"/>
      <use xlink:href="#DejaVuSans-51" transform="translate(209.09375 0)"/>
      <use xlink:href="#DejaVuSans-3" transform="translate(272.46875 0)"/>
      <use xlink:href="#DejaVuSans-53" transform="translate(304.25 0)"/>
      <use xlink:href="#DejaVuSans-55" transform="translate(367.734375 0)"/>
      <use xlink:href="#DejaVuSans-48" transform="translate(406.640625 0)"/>
      <use xlink:href="#DejaVuSans-47" transform="translate(468.171875 0)"/>
      <use xlink:href="#DejaVuSans-4c" transform="translate(531.65625 0)"/>
      <use xlink:href="#DejaVuSans-46" transform="translate(559.4375 0)"/>
      <use xlink:href="#DejaVuSans-57" transform="translate(614.421875 0)"/>
      <use xlink:href="#DejaVuSans-48" transform="translate(653.625 0)"/>
      <use xlink:href="#DejaVuSans-47" transform="translate(715.15625 0)"/>
      <use xlink:href="#DejaVuSans-3" transform="translate(778.640625 0)"/>
      <use xlink:href="#DejaVuSans-55" transform="translate(810.421875 0)"/>
      <use xlink:href="#DejaVuSans-4c" transform="translate(851.53125 0)"/>
      <use xlink:href="#DejaVuSans-56" transform="translate(879.3125 0)"/>
      <use xlink:href="#DejaVuSans-4e" transform="translate(931.40625 0)"/>
     </g>
    </g>
   </g>
   <g id="matplotlib.axis_2">
    <g id="ytick_1">
     <g id="line2d_19">
      <path d="M 46.104063 387.237187 
L 398.835564 387.237187 
" clip-path="url(#p12129c0237)" style="fill: none; stroke: #b0b0b0; stroke-opacity: 0.25; stroke-width: 0.8; stroke-linecap: square"/>
     </g>
     <g id="line2d_20">
      <defs>
       <path id="m2fc772263d" d="M 0 0 
L -3.5 0 
" style="stroke: #1f2933; stroke-width: 0.8"/>
      </defs>
      <g>
       <use xlink:href="#m2fc772263d" x="46.104063" y="387.237187" style="fill: #1f2933; stroke: #1f2933; stroke-width: 0.8"/>
      </g>
     </g>
     <g id="text_11">
      <!-- 0.0 -->
      <g style="fill: #1f2933" transform="translate(23.200938 391.036016) scale(0.1 -0.1)">
       <use xlink:href="#DejaVuSans-13"/>
       <use xlink:href="#DejaVuSans-11" transform="translate(63.625 0)"/>
       <use xlink:href="#DejaVuSans-13" transform="translate(95.40625 0)"/>
      </g>
     </g>
    </g>
    <g id="ytick_2">
     <g id="line2d_21">
      <path d="M 46.104063 342.407267 
L 398.835564 342.407267 
" clip-path="url(#p12129c0237)" style="fill: none; stroke: #b0b0b0; stroke-opacity: 0.25; stroke-width: 0.8; stroke-linecap: square"/>
     </g>
     <g id="line2d_22">
      <g>
       <use xlink:href="#m2fc772263d" x="46.104063" y="342.407267" style="fill: #1f2933; stroke: #1f2933; stroke-width: 0.8"/>
      </g>
     </g>
     <g id="text_12">
      <!-- 0.1 -->
      <g style="fill: #1f2933" transform="translate(23.200938 346.206095) scale(0.1 -0.1)">
       <use xlink:href="#DejaVuSans-13"/>
       <use xlink:href="#DejaVuSans-11" transform="translate(63.625 0)"/>
       <use xlink:href="#DejaVuSans-14" transform="translate(95.40625 0)"/>
      </g>
     </g>
    </g>
    <g id="ytick_3">
     <g id="line2d_23">
      <path d="M 46.104063 297.577347 
L 398.835564 297.577347 
" clip-path="url(#p12129c0237)" style="fill: none; stroke: #b0b0b0; stroke-opacity: 0.25; stroke-width: 0.8; stroke-linecap: square"/>
     </g>
     <g id="line2d_24">
      <g>
       <use xlink:href="#m2fc772263d" x="46.104063" y="297.577347" style="fill: #1f2933; stroke: #1f2933; stroke-width: 0.8"/>
      </g>
     </g>
     <g id="text_13">
      <!-- 0.2 -->
      <g style="fill: #1f2933" transform="translate(23.200938 301.376175) scale(0.1 -0.1)">
       <use xlink:href="#DejaVuSans-13"/>
       <use xlink:href="#DejaVuSans-11" transform="translate(63.625 0)"/>
       <use xlink:href="#DejaVuSans-15" transform="translate(95.40625 0)"/>
      </g>
     </g>
    </g>
    <g id="ytick_4">
     <g id="line2d_25">
      <path d="M 46.104063 252.747426 
L 398.835564 252.747426 
" clip-path="url(#p12129c0237)" style="fill: none; stroke: #b0b0b0; stroke-opacity: 0.25; stroke-width: 0.8; stroke-linecap: square"/>
     </g>
     <g id="line2d_26">
      <g>
       <use xlink:href="#m2fc772263d" x="46.104063" y="252.747426" style="fill: #1f2933; stroke: #1f2933; stroke-width: 0.8"/>
      </g>
     </g>
     <g id="text_14">
      <!-- 0.3 -->
      <g style="fill: #1f2933" transform="translate(23.200938 256.546254) scale(0.1 -0.1)">
       <use xlink:href="#DejaVuSans-13"/>
       <use xlink:href="#DejaVuSans-11" transform="translate(63.625 0)"/>
       <use xlink:href="#DejaVuSans-16" transform="translate(95.40625 0)"/>
      </g>
     </g>
    </g>
    <g id="ytick_5">
     <g id="line2d_27">
      <path d="M 46.104063 207.917506 
L 398.835564 207.917506 
" clip-path="url(#p12129c0237)" style="fill: none; stroke: #b0b0b0; stroke-opacity: 0.25; stroke-width: 0.8; stroke-linecap: square"/>
     </g>
     <g id="line2d_28">
      <g>
       <use xlink:href="#m2fc772263d" x="46.104063" y="207.917506" style="fill: #1f2933; stroke: #1f2933; stroke-width: 0.8"/>
      </g>
     </g>
     <g id="text_15">
      <!-- 0.4 -->
      <g style="fill: #1f2933" transform="translate(23.200938 211.716334) scale(0.1 -0.1)">
       <use xlink:href="#DejaVuSans-13"/>
       <use xlink:href="#DejaVuSans-11" transform="translate(63.625 0)"/>
       <use xlink:href="#DejaVuSans-17" transform="translate(95.40625 0)"/>
      </g>
     </g>
    </g>
    <g id="ytick_6">
     <g id="line2d_29">
      <path d="M 46.104063 163.087586 
L 398.835564 163.087586 
" clip-path="url(#p12129c0237)" style="fill: none; stroke: #b0b0b0; stroke-opacity: 0.25; stroke-width: 0.8; stroke-linecap: square"/>
     </g>
     <g id="line2d_30">
      <g>
       <use xlink:href="#m2fc772263d" x="46.104063" y="163.087586" style="fill: #1f2933; stroke: #1f2933; stroke-width: 0.8"/>
      </g>
     </g>
     <g id="text_16">
      <!-- 0.5 -->
      <g style="fill: #1f2933" transform="translate(23.200938 166.886414) scale(0.1 -0.1)">
       <use xlink:href="#DejaVuSans-13"/>
       <use xlink:href="#DejaVuSans-11" transform="translate(63.625 0)"/>
       <use xlink:href="#DejaVuSans-18" transform="translate(95.40625 0)"/>
      </g>
     </g>
    </g>
    <g id="ytick_7">
     <g id="line2d_31">
      <path d="M 46.104063 118.257665 
L 398.835564 118.257665 
" clip-path="url(#p12129c0237)" style="fill: none; stroke: #b0b0b0; stroke-opacity: 0.25; stroke-width: 0.8; stroke-linecap: square"/>
     </g>
     <g id="line2d_32">
      <g>
       <use xlink:href="#m2fc772263d" x="46.104063" y="118.257665" style="fill: #1f2933; stroke: #1f2933; stroke-width: 0.8"/>
      </g>
     </g>
     <g id="text_17">
      <!-- 0.6 -->
      <g style="fill: #1f2933" transform="translate(23.200938 122.056493) scale(0.1 -0.1)">
       <use xlink:href="#DejaVuSans-13"/>
       <use xlink:href="#DejaVuSans-11" transform="translate(63.625 0)"/>
       <use xlink:href="#DejaVuSans-19" transform="translate(95.40625 0)"/>
      </g>
     </g>
    </g>
    <g id="ytick_8">
     <g id="line2d_33">
      <path d="M 46.104063 73.427745 
L 398.835564 73.427745 
" clip-path="url(#p12129c0237)" style="fill: none; stroke: #b0b0b0; stroke-opacity: 0.25; stroke-width: 0.8; stroke-linecap: square"/>
     </g>
     <g id="line2d_34">
      <g>
       <use xlink:href="#m2fc772263d" x="46.104063" y="73.427745" style="fill: #1f2933; stroke: #1f2933; stroke-width: 0.8"/>
      </g>
     </g>
     <g id="text_18">
      <!-- 0.7 -->
      <g style="fill: #1f2933" transform="translate(23.200938 77.226573) scale(0.1 -0.1)">
       <use xlink:href="#DejaVuSans-13"/>
       <use xlink:href="#DejaVuSans-11" transform="translate(63.625 0)"/>
       <use xlink:href="#DejaVuSans-1a" transform="translate(95.40625 0)"/>
      </g>
     </g>
    </g>
    <g id="ytick_9">
     <g id="line2d_35">
      <path d="M 46.104063 28.597824 
L 398.835564 28.597824 
" clip-path="url(#p12129c0237)" style="fill: none; stroke: #b0b0b0; stroke-opacity: 0.25; stroke-width: 0.8; stroke-linecap: square"/>
     </g>
     <g id="line2d_36">
      <g>
       <use xlink:href="#m2fc772263d" x="46.104063" y="28.597824" style="fill: #1f2933; stroke: #1f2933; stroke-width: 0.8"/>
      </g>
     </g>
     <g id="text_19">
      <!-- 0.8 -->
      <g style="fill: #1f2933" transform="translate(23.200938 32.396653) scale(0.1 -0.1)">
       <use xlink:href="#DejaVuSans-13"/>
       <use xlink:href="#DejaVuSans-11" transform="translate(63.625 0)"/>
       <use xlink:href="#DejaVuSans-1b" transform="translate(95.40625 0)"/>
      </g>
     </g>
    </g>
    <g id="text_20">
     <!-- Observed prevalence -->
     <g style="fill: #1f2933" transform="translate(16.318125 271.048125) rotate(-90) scale(0.12 -0.12)">
      <defs>
       <path id="DejaVuSans-32" d="M 2522 4238 
Q 1834 4238 1429 3725 
Q 1025 3213 1025 2328 
Q 1025 1447 1429 934 
Q 1834 422 2522 422 
Q 3209 422 3611 934 
Q 4013 1447 4013 2328 
Q 4013 3213 3611 3725 
Q 3209 4238 2522 4238 
z
M 2522 4750 
Q 3503 4750 4090 4092 
Q 4678 3434 4678 2328 
Q 4678 1225 4090 567 
Q 3503 -91 2522 -91 
Q 1538 -91 948 565 
Q 359 1222 359 2328 
Q 359 3434 948 4092 
Q 1538 4750 2522 4750 
z
" transform="scale(0.015625)"/>
       <path id="DejaVuSans-45" d="M 3116 1747 
Q 3116 2381 2855 2742 
Q 2594 3103 2138 3103 
Q 1681 3103 1420 2742 
Q 1159 2381 1159 1747 
Q 1159 1113 1420 752 
Q 1681 391 2138 391 
Q 2594 391 2855 752 
Q 3116 1113 3116 1747 
z
M 1159 2969 
Q 1341 3281 1617 3432 
Q 1894 3584 2278 3584 
Q 2916 3584 3314 3078 
Q 3713 2572 3713 1747 
Q 3713 922 3314 415 
Q 2916 -91 2278 -91 
Q 1894 -91 1617 61 
Q 1341 213 1159 525 
L 1159 0 
L 581 0 
L 581 4863 
L 1159 4863 
L 1159 2969 
z
" transform="scale(0.015625)"/>
       <path id="DejaVuSans-59" d="M 191 3500 
L 800 3500 
L 1894 563 
L 2988 3500 
L 3597 3500 
L 2284 0 
L 1503 0 
L 191 3500 
z
" transform="scale(0.015625)"/>
       <path id="DejaVuSans-4f" d="M 603 4863 
L 1178 4863 
L 1178 0 
L 603 0 
L 603 4863 
z
" transform="scale(0.015625)"/>
      </defs>
      <use xlink:href="#DejaVuSans-32"/>
      <use xlink:href="#DejaVuSans-45" transform="translate(78.71875 0)"/>
      <use xlink:href="#DejaVuSans-56" transform="translate(142.203125 0)"/>
      <use xlink:href="#DejaVuSans-48" transform="translate(194.296875 0)"/>
      <use xlink:href="#DejaVuSans-55" transform="translate(255.828125 0)"/>
      <use xlink:href="#DejaVuSans-59" transform="translate(296.9375 0)"/>
      <use xlink:href="#DejaVuSans-48" transform="translate(356.125 0)"/>
      <use xlink:href="#DejaVuSans-47" transform="translate(417.65625 0)"/>
      <use xlink:href="#DejaVuSans-3" transform="translate(481.140625 0)"/>
      <use xlink:href="#DejaVuSans-53" transform="translate(512.921875 0)"/>
      <use xlink:href="#DejaVuSans-55" transform="translate(576.40625 0)"/>
      <use xlink:href="#DejaVuSans-48" transform="translate(615.3125 0)"/>
      <use xlink:href="#DejaVuSans-59" transform="translate(676.84375 0)"/>
      <use xlink:href="#DejaVuSans-44" transform="translate(736.03125 0)"/>
      <use xlink:href="#DejaVuSans-4f" transform="translate(797.3125 0)"/>
      <use xlink:href="#DejaVuSans-48" transform="translate(825.09375 0)"/>
      <use xlink:href="#DejaVuSans-51" transform="translate(886.625 0)"/>
      <use xlink:href="#DejaVuSans-46" transform="translate(950 0)"/>
      <use xlink:href="#DejaVuSans-48" transform="translate(1004.984375 0)"/>
     </g>
    </g>
   </g>
   <g id="LineCollection_1">
    <path d="M 60.78301 387.237187 
L 60.78301 387.237187 
" clip-path="url(#p12129c0237)" style="fill: none; stroke: #b7c3cf; stroke-width: 1.5"/>
    <path d="M 82.729275 386.865246 
L 82.729275 364.765857 
" clip-path="url(#p12129c0237)" style="fill: none; stroke: #b7c3cf; stroke-width: 1.5"/>
    <path d="M 106.261781 387.237187 
L 106.261781 378.749079 
" clip-path="url(#p12129c0237)" style="fill: none; stroke: #b7c3cf; stroke-width: 1.5"/>
    <path d="M 130.721097 387.237187 
L 130.721097 387.237187 
" clip-path="url(#p12129c0237)" style="fill: none; stroke: #b7c3cf; stroke-width: 1.5"/>
    <path d="M 156.269257 383.523683 
L 156.269257 356.466138 
" clip-path="url(#p12129c0237)" style="fill: none; stroke: #b7c3cf; stroke-width: 1.5"/>
    <path d="M 184.995751 387.237187 
L 184.995751 373.662154 
" clip-path="url(#p12129c0237)" style="fill: none; stroke: #b7c3cf; stroke-width: 1.5"/>
    <path d="M 216.598872 387.237187 
L 216.598872 378.749079 
" clip-path="url(#p12129c0237)" style="fill: none; stroke: #b7c3cf; stroke-width: 1.5"/>
    <path d="M 250.978289 387.237187 
L 250.978289 369.070423 
" clip-path="url(#p12129c0237)" style="fill: none; stroke: #b7c3cf; stroke-width: 1.5"/>
    <path d="M 297.939649 381.685151 
L 297.939649 352.557244 
" clip-path="url(#p12129c0237)" style="fill: none; stroke: #b7c3cf; stroke-width: 1.5"/>
    <path d="M 366.769063 369.442226 
L 366.769063 330.791516 
" clip-path="url(#p12129c0237)" style="fill: none; stroke: #b7c3cf; stroke-width: 1.5"/>
   </g>
   <g id="line2d_37">
    <defs>
     <path id="mb123b9a74b" d="M 3 0 
L -3 -0 
" style="stroke: #b7c3cf"/>
    </defs>
    <g clip-path="url(#p12129c0237)">
     <use xlink:href="#mb123b9a74b" x="60.78301" y="387.237187" style="fill: #3d5a80; stroke: #b7c3cf"/>
     <use xlink:href="#mb123b9a74b" x="82.729275" y="386.865246" style="fill: #3d5a80; stroke: #b7c3cf"/>
     <use xlink:href="#mb123b9a74b" x="106.261781" y="387.237187" style="fill: #3d5a80; stroke: #b7c3cf"/>
     <use xlink:href="#mb123b9a74b" x="130.721097" y="387.237187" style="fill: #3d5a80; stroke: #b7c3cf"/>
     <use xlink:href="#mb123b9a74b" x="156.269257" y="383.523683" style="fill: #3d5a80; stroke: #b7c3cf"/>
     <use xlink:href="#mb123b9a74b" x="184.995751" y="387.237187" style="fill: #3d5a80; stroke: #b7c3cf"/>
     <use xlink:href="#mb123b9a74b" x="216.598872" y="387.237187" style="fill: #3d5a80; stroke: #b7c3cf"/>
     <use xlink:href="#mb123b9a74b" x="250.978289" y="387.237187" style="fill: #3d5a80; stroke: #b7c3cf"/>
     <use xlink:href="#mb123b9a74b" x="297.939649" y="381.685151" style="fill: #3d5a80; stroke: #b7c3cf"/>
     <use xlink:href="#mb123b9a74b" x="366.769063" y="369.442226" style="fill: #3d5a80; stroke: #b7c3cf"/>
    </g>
   </g>
   <g id="line2d_38">
    <g clip-path="url(#p12129c0237)">
     <use xlink:href="#mb123b9a74b" x="60.78301" y="387.237187" style="fill: #3d5a80; stroke: #b7c3cf"/>
     <use xlink:href="#mb123b9a74b" x="82.729275" y="364.765857" style="fill: #3d5a80; stroke: #b7c3cf"/>
     <use xlink:href="#mb123b9a74b" x="106.261781" y="378.749079" style="fill: #3d5a80; stroke: #b7c3cf"/>
     <use xlink:href="#mb123b9a74b" x="130.721097" y="387.237187" style="fill: #3d5a80; stroke: #b7c3cf"/>
     <use xlink:href="#mb123b9a74b" x="156.269257" y="356.466138" style="fill: #3d5a80; stroke: #b7c3cf"/>
     <use xlink:href="#mb123b9a74b" x="184.995751" y="373.662154" style="fill: #3d5a80; stroke: #b7c3cf"/>
     <use xlink:href="#mb123b9a74b" x="216.598872" y="378.749079" style="fill: #3d5a80; stroke: #b7c3cf"/>
     <use xlink:href="#mb123b9a74b" x="250.978289" y="369.070423" style="fill: #3d5a80; stroke: #b7c3cf"/>
     <use xlink:href="#mb123b9a74b" x="297.939649" y="352.557244" style="fill: #3d5a80; stroke: #b7c3cf"/>
     <use xlink:href="#mb123b9a74b" x="366.769063" y="330.791516" style="fill: #3d5a80; stroke: #b7c3cf"/>
    </g>
   </g>
   <g id="line2d_39">
    <path d="M 46.104063 387.237187 
L 398.835564 26.877187 
" clip-path="url(#p12129c0237)" style="fill: none; stroke-dasharray: 5.55,2.4; stroke-dashoffset: 0; stroke: #5f7182; stroke-width: 1.5"/>
   </g>
   <g id="line2d_40">
    <path d="M 60.78301 387.237187 
L 82.729275 375.815552 
L 106.261781 384.363475 
L 130.721097 387.237187 
L 156.269257 369.99491 
L 184.995751 381.52637 
L 216.598872 384.363475 
L 250.978289 378.670961 
L 297.939649 367.121198 
L 366.769063 350.116871 
" clip-path="url(#p12129c0237)" style="fill: none; stroke: #3d5a80; stroke-width: 1.5; stroke-linecap: square"/>
    <defs>
     <path id="m72fed6b39c" d="M 0 3 
C 0.795609 3 1.55874 2.683901 2.12132 2.12132 
C 2.683901 1.55874 3 0.795609 3 0 
C 3 -0.795609 2.683901 -1.55874 2.12132 -2.12132 
C 1.55874 -2.683901 0.795609 -3 0 -3 
C -0.795609 -3 -1.55874 -2.683901 -2.12132 -2.12132 
C -2.683901 -1.55874 -3 -0.795609 -3 0 
C -3 0.795609 -2.683901 1.55874 -2.12132 2.12132 
C -1.55874 2.683901 -0.795609 3 0 3 
z
" style="stroke: #3d5a80"/>
    </defs>
    <g clip-path="url(#p12129c0237)">
     <use xlink:href="#m72fed6b39c" x="60.78301" y="387.237187" style="fill: #3d5a80; stroke: #3d5a80"/>
     <use xlink:href="#m72fed6b39c" x="82.729275" y="375.815552" style="fill: #3d5a80; stroke: #3d5a80"/>
     <use xlink:href="#m72fed6b39c" x="106.261781" y="384.363475" style="fill: #3d5a80; stroke: #3d5a80"/>
     <use xlink:href="#m72fed6b39c" x="130.721097" y="387.237187" style="fill: #3d5a80; stroke: #3d5a80"/>
     <use xlink:href="#m72fed6b39c" x="156.269257" y="369.99491" style="fill: #3d5a80; stroke: #3d5a80"/>
     <use xlink:href="#m72fed6b39c" x="184.995751" y="381.52637" style="fill: #3d5a80; stroke: #3d5a80"/>
     <use xlink:href="#m72fed6b39c" x="216.598872" y="384.363475" style="fill: #3d5a80; stroke: #3d5a80"/>
     <use xlink:href="#m72fed6b39c" x="250.978289" y="378.670961" style="fill: #3d5a80; stroke: #3d5a80"/>
     <use xlink:href="#m72fed6b39c" x="297.939649" y="367.121198" style="fill: #3d5a80; stroke: #3d5a80"/>
     <use xlink:href="#m72fed6b39c" x="366.769063" y="350.116871" style="fill: #3d5a80; stroke: #3d5a80"/>
    </g>
   </g>
   <g id="patch_3">
    <path d="M 46.104063 387.237187 
L 46.104063 26.877187 
" style="fill: none; stroke: #b7c3cf; stroke-width: 0.8; stroke-linejoin: miter; stroke-linecap: square"/>
   </g>
   <g id="patch_4">
    <path d="M 398.835564 387.237187 
L 398.835564 26.877187 
" style="fill: none; stroke: #b7c3cf; stroke-width: 0.8; stroke-linejoin: miter; stroke-linecap: square"/>
   </g>
   <g id="patch_5">
    <path d="M 46.104063 387.237187 
L 398.835564 387.237187 
" style="fill: none; stroke: #b7c3cf; stroke-width: 0.8; stroke-linejoin: miter; stroke-linecap: square"/>
   </g>
   <g id="patch_6">
    <path d="M 46.104063 26.877187 
L 398.835564 26.877187 
" style="fill: none; stroke: #b7c3cf; stroke-width: 0.8; stroke-linejoin: miter; stroke-linecap: square"/>
   </g>
   <g id="text_21">
    <!-- Calibration by risk decile -->
    <g style="fill: #1f2933" transform="translate(95.959344 20.877187) scale(0.18 -0.18)">
     <defs>
      <path id="DejaVuSans-Bold-26" d="M 4288 256 
Q 3956 84 3597 -3 
Q 3238 -91 2847 -91 
Q 1681 -91 1000 561 
Q 319 1213 319 2328 
Q 319 3447 1000 4098 
Q 1681 4750 2847 4750 
Q 3238 4750 3597 4662 
Q 3956 4575 4288 4403 
L 4288 3438 
Q 3953 3666 3628 3772 
Q 3303 3878 2944 3878 
Q 2300 3878 1931 3465 
Q 1563 3053 1563 2328 
Q 1563 1606 1931 1193 
Q 2300 781 2944 781 
Q 3303 781 3628 887 
Q 3953 994 4288 1222 
L 4288 256 
z
" transform="scale(0.015625)"/>
      <path id="DejaVuSans-Bold-44" d="M 2106 1575 
Q 1756 1575 1579 1456 
Q 1403 1338 1403 1106 
Q 1403 894 1545 773 
Q 1688 653 1941 653 
Q 2256 653 2472 879 
Q 2688 1106 2688 1447 
L 2688 1575 
L 2106 1575 
z
M 3816 1997 
L 3816 0 
L 2688 0 
L 2688 519 
Q 2463 200 2181 54 
Q 1900 -91 1497 -91 
Q 953 -91 614 226 
Q 275 544 275 1050 
Q 275 1666 698 1953 
Q 1122 2241 2028 2241 
L 2688 2241 
L 2688 2328 
Q 2688 2594 2478 2717 
Q 2269 2841 1825 2841 
Q 1466 2841 1156 2769 
Q 847 2697 581 2553 
L 581 3406 
Q 941 3494 1303 3539 
Q 1666 3584 2028 3584 
Q 2975 3584 3395 3211 
Q 3816 2838 3816 1997 
z
" transform="scale(0.015625)"/>
      <path id="DejaVuSans-Bold-4f" d="M 538 4863 
L 1656 4863 
L 1656 0 
L 538 0 
L 538 4863 
z
" transform="scale(0.015625)"/>
      <path id="DejaVuSans-Bold-4c" d="M 538 3500 
L 1656 3500 
L 1656 0 
L 538 0 
L 538 3500 
z
M 538 4863 
L 1656 4863 
L 1656 3950 
L 538 3950 
L 538 4863 
z
" transform="scale(0.015625)"/>
      <path id="DejaVuSans-Bold-45" d="M 2400 722 
Q 2759 722 2948 984 
Q 3138 1247 3138 1747 
Q 3138 2247 2948 2509 
Q 2759 2772 2400 2772 
Q 2041 2772 1848 2508 
Q 1656 2244 1656 1747 
Q 1656 1250 1848 986 
Q 2041 722 2400 722 
z
M 1656 2988 
Q 1888 3294 2169 3439 
Q 2450 3584 2816 3584 
Q 3463 3584 3878 3070 
Q 4294 2556 4294 1747 
Q 4294 938 3878 423 
Q 3463 -91 2816 -91 
Q 2450 -91 2169 54 
Q 1888 200 1656 506 
L 1656 0 
L 538 0 
L 538 4863 
L 1656 4863 
L 1656 2988 
z
" transform="scale(0.015625)"/>
      <path id="DejaVuSans-Bold-55" d="M 3138 2547 
Q 2991 2616 2845 2648 
Q 2700 2681 2553 2681 
Q 2122 2681 1889 2404 
Q 1656 2128 1656 1613 
L 1656 0 
L 538 0 
L 538 3500 
L 1656 3500 
L 1656 2925 
Q 1872 3269 2151 3426 
Q 2431 3584 2822 3584 
Q 2878 3584 2943 3579 
Q 3009 3575 3134 3559 
L 3138 2547 
z
" transform="scale(0.015625)"/>
      <path id="DejaVuSans-Bold-57" d="M 1759 4494 
L 1759 3500 
L 2913 3500 
L 2913 2700 
L 1759 2700 
L 1759 1216 
Q 1759 972 1856 886 
Q 1953 800 2241 800 
L 2816 800 
L 2816 0 
L 1856 0 
Q 1194 0 917 276 
Q 641 553 641 1216 
L 641 2700 
L 84 2700 
L 84 3500 
L 641 3500 
L 641 4494 
L 1759 4494 
z
" transform="scale(0.015625)"/>
      <path id="DejaVuSans-Bold-52" d="M 2203 2784 
Q 1831 2784 1636 2517 
Q 1441 2250 1441 1747 
Q 1441 1244 1636 976 
Q 1831 709 2203 709 
Q 2569 709 2762 976 
Q 2956 1244 2956 1747 
Q 2956 2250 2762 2517 
Q 2569 2784 2203 2784 
z
M 2203 3584 
Q 3106 3584 3614 3096 
Q 4122 2609 4122 1747 
Q 4122 884 3614 396 
Q 3106 -91 2203 -91 
Q 1297 -91 786 396 
Q 275 884 275 1747 
Q 275 2609 786 3096 
Q 1297 3584 2203 3584 
z
" transform="scale(0.015625)"/>
      <path id="DejaVuSans-Bold-51" d="M 4056 2131 
L 4056 0 
L 2931 0 
L 2931 347 
L 2931 1631 
Q 2931 2084 2911 2256 
Q 2891 2428 2841 2509 
Q 2775 2619 2662 2680 
Q 2550 2741 2406 2741 
Q 2056 2741 1856 2470 
Q 1656 2200 1656 1722 
L 1656 0 
L 538 0 
L 538 3500 
L 1656 3500 
L 1656 2988 
Q 1909 3294 2193 3439 
Q 2478 3584 2822 3584 
Q 3428 3584 3742 3212 
Q 4056 2841 4056 2131 
z
" transform="scale(0.015625)"/>
      <path id="DejaVuSans-Bold-3" transform="scale(0.015625)"/>
      <path id="DejaVuSans-Bold-5c" d="M 78 3500 
L 1197 3500 
L 2138 1125 
L 2938 3500 
L 4056 3500 
L 2584 -331 
Q 2363 -916 2067 -1148 
Q 1772 -1381 1288 -1381 
L 641 -1381 
L 641 -647 
L 991 -647 
Q 1275 -647 1404 -556 
Q 1534 -466 1606 -231 
L 1638 -134 
L 78 3500 
z
" transform="scale(0.015625)"/>
      <path id="DejaVuSans-Bold-56" d="M 3272 3391 
L 3272 2541 
Q 2913 2691 2578 2766 
Q 2244 2841 1947 2841 
Q 1628 2841 1473 2761 
Q 1319 2681 1319 2516 
Q 1319 2381 1436 2309 
Q 1553 2238 1856 2203 
L 2053 2175 
Q 2913 2066 3209 1816 
Q 3506 1566 3506 1031 
Q 3506 472 3093 190 
Q 2681 -91 1863 -91 
Q 1516 -91 1145 -36 
Q 775 19 384 128 
L 384 978 
Q 719 816 1070 734 
Q 1422 653 1784 653 
Q 2113 653 2278 743 
Q 2444 834 2444 1013 
Q 2444 1163 2330 1236 
Q 2216 1309 1875 1350 
L 1678 1375 
Q 931 1469 631 1722 
Q 331 1975 331 2491 
Q 331 3047 712 3315 
Q 1094 3584 1881 3584 
Q 2191 3584 2531 3537 
Q 2872 3491 3272 3391 
z
" transform="scale(0.015625)"/>
      <path id="DejaVuSans-Bold-4e" d="M 538 4863 
L 1656 4863 
L 1656 2216 
L 2944 3500 
L 4244 3500 
L 2534 1894 
L 4378 0 
L 3022 0 
L 1656 1459 
L 1656 0 
L 538 0 
L 538 4863 
z
" transform="scale(0.015625)"/>
      <path id="DejaVuSans-Bold-47" d="M 2919 2988 
L 2919 4863 
L 4044 4863 
L 4044 0 
L 2919 0 
L 2919 506 
Q 2688 197 2409 53 
Q 2131 -91 1766 -91 
Q 1119 -91 703 423 
Q 288 938 288 1747 
Q 288 2556 703 3070 
Q 1119 3584 1766 3584 
Q 2128 3584 2408 3439 
Q 2688 3294 2919 2988 
z
M 2181 722 
Q 2541 722 2730 984 
Q 2919 1247 2919 1747 
Q 2919 2247 2730 2509 
Q 2541 2772 2181 2772 
Q 1825 2772 1636 2509 
Q 1447 2247 1447 1747 
Q 1447 1247 1636 984 
Q 1825 722 2181 722 
z
" transform="scale(0.015625)"/>
      <path id="DejaVuSans-Bold-48" d="M 4031 1759 
L 4031 1441 
L 1416 1441 
Q 1456 1047 1700 850 
Q 1944 653 2381 653 
Q 2734 653 3104 758 
Q 3475 863 3866 1075 
L 3866 213 
Q 3469 63 3072 -14 
Q 2675 -91 2278 -91 
Q 1328 -91 801 392 
Q 275 875 275 1747 
Q 275 2603 792 3093 
Q 1309 3584 2216 3584 
Q 3041 3584 3536 3087 
Q 4031 2591 4031 1759 
z
M 2881 2131 
Q 2881 2450 2695 2645 
Q 2509 2841 2209 2841 
Q 1884 2841 1681 2658 
Q 1478 2475 1428 2131 
L 2881 2131 
z
" transform="scale(0.015625)"/>
      <path id="DejaVuSans-Bold-46" d="M 3366 3391 
L 3366 2478 
Q 3138 2634 2908 2709 
Q 2678 2784 2431 2784 
Q 1963 2784 1702 2511 
Q 1441 2238 1441 1747 
Q 1441 1256 1702 982 
Q 1963 709 2431 709 
Q 2694 709 2930 787 
Q 3166 866 3366 1019 
L 3366 103 
Q 3103 6 2833 -42 
Q 2563 -91 2291 -91 
Q 1344 -91 809 395 
Q 275 881 275 1747 
Q 275 2613 809 3098 
Q 1344 3584 2291 3584 
Q 2566 3584 2833 3536 
Q 3100 3488 3366 3391 
z
" transform="scale(0.015625)"/>
     </defs>
     <use xlink:href="#DejaVuSans-Bold-26"/>
     <use xlink:href="#DejaVuSans-Bold-44" transform="translate(73.390625 0)"/>
     <use xlink:href="#DejaVuSans-Bold-4f" transform="translate(140.875 0)"/>
     <use xlink:href="#DejaVuSans-Bold-4c" transform="translate(175.15625 0)"/>
     <use xlink:href="#DejaVuSans-Bold-45" transform="translate(209.4375 0)"/>
     <use xlink:href="#DejaVuSans-Bold-55" transform="translate(281.015625 0)"/>
     <use xlink:href="#DejaVuSans-Bold-44" transform="translate(330.328125 0)"/>
     <use xlink:href="#DejaVuSans-Bold-57" transform="translate(397.8125 0)"/>
     <use xlink:href="#DejaVuSans-Bold-4c" transform="translate(445.609375 0)"/>
     <use xlink:href="#DejaVuSans-Bold-52" transform="translate(479.890625 0)"/>
     <use xlink:href="#DejaVuSans-Bold-51" transform="translate(548.59375 0)"/>
     <use xlink:href="#DejaVuSans-Bold-3" transform="translate(619.78125 0)"/>
     <use xlink:href="#DejaVuSans-Bold-45" transform="translate(654.59375 0)"/>
     <use xlink:href="#DejaVuSans-Bold-5c" transform="translate(726.171875 0)"/>
     <use xlink:href="#DejaVuSans-Bold-3" transform="translate(791.359375 0)"/>
     <use xlink:href="#DejaVuSans-Bold-55" transform="translate(826.171875 0)"/>
     <use xlink:href="#DejaVuSans-Bold-4c" transform="translate(875.484375 0)"/>
     <use xlink:href="#DejaVuSans-Bold-56" transform="translate(909.765625 0)"/>
     <use xlink:href="#DejaVuSans-Bold-4e" transform="translate(969.28125 0)"/>
     <use xlink:href="#DejaVuSans-Bold-3" transform="translate(1035.78125 0)"/>
     <use xlink:href="#DejaVuSans-Bold-47" transform="translate(1070.59375 0)"/>
     <use xlink:href="#DejaVuSans-Bold-48" transform="translate(1142.171875 0)"/>
     <use xlink:href="#DejaVuSans-Bold-46" transform="translate(1210 0)"/>
     <use xlink:href="#DejaVuSans-Bold-4c" transform="translate(1269.28125 0)"/>
     <use xlink:href="#DejaVuSans-Bold-4f" transform="translate(1303.5625 0)"/>
     <use xlink:href="#DejaVuSans-Bold-48" transform="translate(1337.84375 0)"/>
    </g>
   </g>
   <g id="legend_1">
    <g id="line2d_41">
     <path d="M 55.104063 39.975625 
L 65.104063 39.975625 
L 75.104063 39.975625 
" style="fill: none; stroke-dasharray: 5.55,2.4; stroke-dashoffset: 0; stroke: #5f7182; stroke-width: 1.5"/>
    </g>
    <g id="text_22">
     <!-- Perfect calibration -->
     <g style="fill: #1f2933" transform="translate(83.104063 43.475625) scale(0.1 -0.1)">
      <defs>
       <path id="DejaVuSans-33" d="M 1259 4147 
L 1259 2394 
L 2053 2394 
Q 2494 2394 2734 2622 
Q 2975 2850 2975 3272 
Q 2975 3691 2734 3919 
Q 2494 4147 2053 4147 
L 1259 4147 
z
M 628 4666 
L 2053 4666 
Q 2838 4666 3239 4311 
Q 3641 3956 3641 3272 
Q 3641 2581 3239 2228 
Q 2838 1875 2053 1875 
L 1259 1875 
L 1259 0 
L 628 0 
L 628 4666 
z
" transform="scale(0.015625)"/>
       <path id="DejaVuSans-49" d="M 2375 4863 
L 2375 4384 
L 1825 4384 
Q 1516 4384 1395 4259 
Q 1275 4134 1275 3809 
L 1275 3500 
L 2222 3500 
L 2222 3053 
L 1275 3053 
L 1275 0 
L 697 0 
L 697 3053 
L 147 3053 
L 147 3500 
L 697 3500 
L 697 3744 
Q 697 4328 969 4595 
Q 1241 4863 1831 4863 
L 2375 4863 
z
" transform="scale(0.015625)"/>
       <path id="DejaVuSans-52" d="M 1959 3097 
Q 1497 3097 1228 2736 
Q 959 2375 959 1747 
Q 959 1119 1226 758 
Q 1494 397 1959 397 
Q 2419 397 2687 759 
Q 2956 1122 2956 1747 
Q 2956 2369 2687 2733 
Q 2419 3097 1959 3097 
z
M 1959 3584 
Q 2709 3584 3137 3096 
Q 3566 2609 3566 1747 
Q 3566 888 3137 398 
Q 2709 -91 1959 -91 
Q 1206 -91 779 398 
Q 353 888 353 1747 
Q 353 2609 779 3096 
Q 1206 3584 1959 3584 
z
" transform="scale(0.015625)"/>
      </defs>
      <use xlink:href="#DejaVuSans-33"/>
      <use xlink:href="#DejaVuSans-48" transform="translate(56.734375 0)"/>
      <use xlink:href="#DejaVuSans-55" transform="translate(118.265625 0)"/>
      <use xlink:href="#DejaVuSans-49" transform="translate(159.375 0)"/>
      <use xlink:href="#DejaVuSans-48" transform="translate(194.578125 0)"/>
      <use xlink:href="#DejaVuSans-46" transform="translate(256.109375 0)"/>
      <use xlink:href="#DejaVuSans-57" transform="translate(311.09375 0)"/>
      <use xlink:href="#DejaVuSans-3" transform="translate(350.296875 0)"/>
      <use xlink:href="#DejaVuSans-46" transform="translate(382.078125 0)"/>
      <use xlink:href="#DejaVuSans-44" transform="translate(437.0625 0)"/>
      <use xlink:href="#DejaVuSans-4f" transform="translate(498.34375 0)"/>
      <use xlink:href="#DejaVuSans-4c" transform="translate(526.125 0)"/>
      <use xlink:href="#DejaVuSans-45" transform="translate(553.90625 0)"/>
      <use xlink:href="#DejaVuSans-55" transform="translate(617.390625 0)"/>
      <use xlink:href="#DejaVuSans-44" transform="translate(658.5 0)"/>
      <use xlink:href="#DejaVuSans-57" transform="translate(719.78125 0)"/>
      <use xlink:href="#DejaVuSans-4c" transform="translate(758.984375 0)"/>
      <use xlink:href="#DejaVuSans-52" transform="translate(786.765625 0)"/>
      <use xlink:href="#DejaVuSans-51" transform="translate(847.953125 0)"/>
     </g>
    </g>
   </g>
  </g>
  <g id="axes_2">
   <g id="table_1">
    <g id="patch_7">
     <path d="M 449.444866 128.757187 
L 533.793703 128.757187 
L 533.793703 111.357187 
L 449.444866 111.357187 
z
" style="fill: #ffffff; stroke: #000000; stroke-linejoin: miter"/>
    </g>
    <g id="text_23">
     <!-- decile -->
     <g style="fill: #1f2933" transform="translate(476.764597 122.655234) scale(0.1 -0.1)">
      <use xlink:href="#DejaVuSans-47"/>
      <use xlink:href="#DejaVuSans-48" transform="translate(63.484375 0)"/>
      <use xlink:href="#DejaVuSans-46" transform="translate(125.015625 0)"/>
      <use xlink:href="#DejaVuSans-4c" transform="translate(180 0)"/>
      <use xlink:href="#DejaVuSans-4f" transform="translate(207.78125 0)"/>
      <use xlink:href="#DejaVuSans-48" transform="translate(235.5625 0)"/>
     </g>
    </g>
    <g id="patch_8">
     <path d="M 533.793703 128.757187 
L 618.14254 128.757187 
L 618.14254 111.357187 
L 533.793703 111.357187 
z
" style="fill: #ffffff; stroke: #000000; stroke-linejoin: miter"/>
    </g>
    <g id="text_24">
     <!-- n -->
     <g style="fill: #1f2933" transform="translate(572.799372 122.654844) scale(0.1 -0.1)">
      <use xlink:href="#DejaVuSans-51"/>
     </g>
    </g>
    <g id="patch_9">
     <path d="M 618.14254 128.757187 
L 702.491378 128.757187 
L 702.491378 111.357187 
L 618.14254 111.357187 
z
" style="fill: #ffffff; stroke: #000000; stroke-linejoin: miter"/>
    </g>
    <g id="text_25">
     <!-- mean_predicted -->
     <g style="fill: #1f2933" transform="translate(619.91774 122.655234) scale(0.1 -0.1)">
      <defs>
       <path id="DejaVuSans-50" d="M 3328 2828 
Q 3544 3216 3844 3400 
Q 4144 3584 4550 3584 
Q 5097 3584 5394 3201 
Q 5691 2819 5691 2113 
L 5691 0 
L 5113 0 
L 5113 2094 
Q 5113 2597 4934 2840 
Q 4756 3084 4391 3084 
Q 3944 3084 3684 2787 
Q 3425 2491 3425 1978 
L 3425 0 
L 2847 0 
L 2847 2094 
Q 2847 2600 2669 2842 
Q 2491 3084 2119 3084 
Q 1678 3084 1418 2786 
Q 1159 2488 1159 1978 
L 1159 0 
L 581 0 
L 581 3500 
L 1159 3500 
L 1159 2956 
Q 1356 3278 1631 3431 
Q 1906 3584 2284 3584 
Q 2666 3584 2933 3390 
Q 3200 3197 3328 2828 
z
" transform="scale(0.015625)"/>
       <path id="DejaVuSans-42" d="M 3263 -1063 
L 3263 -1509 
L -63 -1509 
L -63 -1063 
L 3263 -1063 
z
" transform="scale(0.015625)"/>
      </defs>
      <use xlink:href="#DejaVuSans-50"/>
      <use xlink:href="#DejaVuSans-48" transform="translate(97.40625 0)"/>
      <use xlink:href="#DejaVuSans-44" transform="translate(158.9375 0)"/>
      <use xlink:href="#DejaVuSans-51" transform="translate(220.21875 0)"/>
      <use xlink:href="#DejaVuSans-42" transform="translate(283.59375 0)"/>
      <use xlink:href="#DejaVuSans-53" transform="translate(333.59375 0)"/>
      <use xlink:href="#DejaVuSans-55" transform="translate(397.078125 0)"/>
      <use xlink:href="#DejaVuSans-48" transform="translate(435.984375 0)"/>
      <use xlink:href="#DejaVuSans-47" transform="translate(497.515625 0)"/>
      <use xlink:href="#DejaVuSans-4c" transform="translate(561 0)"/>
      <use xlink:href="#DejaVuSans-46" transform="translate(588.78125 0)"/>
      <use xlink:href="#DejaVuSans-57" transform="translate(643.765625 0)"/>
      <use xlink:href="#DejaVuSans-48" transform="translate(682.96875 0)"/>
      <use xlink:href="#DejaVuSans-47" transform="translate(744.5 0)"/>
     </g>
    </g>
    <g id="patch_10">
     <path d="M 702.491378 128.757187 
L 786.840215 128.757187 
L 786.840215 111.357187 
L 702.491378 111.357187 
z
" style="fill: #ffffff; stroke: #000000; stroke-linejoin: miter"/>
    </g>
    <g id="text_26">
     <!-- observed -->
     <g style="fill: #1f2933" transform="translate(721.485327 122.655234) scale(0.1 -0.1)">
      <use xlink:href="#DejaVuSans-52"/>
      <use xlink:href="#DejaVuSans-45" transform="translate(61.1875 0)"/>
      <use xlink:href="#DejaVuSans-56" transform="translate(124.671875 0)"/>
      <use xlink:href="#DejaVuSans-48" transform="translate(176.765625 0)"/>
      <use xlink:href="#DejaVuSans-55" transform="translate(238.296875 0)"/>
      <use xlink:href="#DejaVuSans-59" transform="translate(279.40625 0)"/>
      <use xlink:href="#DejaVuSans-48" transform="translate(338.59375 0)"/>
      <use xlink:href="#DejaVuSans-47" transform="translate(400.125 0)"/>
     </g>
    </g>
    <g id="patch_11">
     <path d="M 449.444866 146.157187 
L 533.793703 146.157187 
L 533.793703 128.757187 
L 449.444866 128.757187 
z
" style="fill: #ffffff; stroke: #000000; stroke-linejoin: miter"/>
    </g>
    <g id="text_27">
     <!-- 1 -->
     <g style="fill: #1f2933" transform="translate(488.438034 140.054844) scale(0.1 -0.1)">
      <use xlink:href="#DejaVuSans-14"/>
     </g>
    </g>
    <g id="patch_12">
     <path d="M 533.793703 146.157187 
L 618.14254 146.157187 
L 618.14254 128.757187 
L 533.793703 128.757187 
z
" style="fill: #ffffff; stroke: #000000; stroke-linejoin: miter"/>
    </g>
    <g id="text_28">
     <!-- 157 -->
     <g style="fill: #1f2933" transform="translate(566.424372 140.054844) scale(0.1 -0.1)">
      <use xlink:href="#DejaVuSans-14"/>
      <use xlink:href="#DejaVuSans-18" transform="translate(63.625 0)"/>
      <use xlink:href="#DejaVuSans-1a" transform="translate(127.25 0)"/>
     </g>
    </g>
    <g id="patch_13">
     <path d="M 618.14254 146.157187 
L 702.491378 146.157187 
L 702.491378 128.757187 
L 618.14254 128.757187 
z
" style="fill: #ffffff; stroke: #000000; stroke-linejoin: miter"/>
    </g>
    <g id="text_29">
     <!-- 0.033 -->
     <g style="fill: #1f2933" transform="translate(646.002896 140.054844) scale(0.1 -0.1)">
      <use xlink:href="#DejaVuSans-13"/>
      <use xlink:href="#DejaVuSans-11" transform="translate(63.625 0)"/>
      <use xlink:href="#DejaVuSans-13" transform="translate(95.40625 0)"/>
      <use xlink:href="#DejaVuSans-16" transform="translate(159.03125 0)"/>
      <use xlink:href="#DejaVuSans-16" transform="translate(222.65625 0)"/>
     </g>
    </g>
    <g id="patch_14">
     <path d="M 702.491378 146.157187 
L 786.840215 146.157187 
L 786.840215 128.757187 
L 702.491378 128.757187 
z
" style="fill: #ffffff; stroke: #000000; stroke-linejoin: miter"/>
    </g>
    <g id="text_30">
     <!-- 0.000 -->
     <g style="fill: #1f2933" transform="translate(730.351734 140.054844) scale(0.1 -0.1)">
      <use xlink:href="#DejaVuSans-13"/>
      <use xlink:href="#DejaVuSans-11" transform="translate(63.625 0)"/>
      <use xlink:href="#DejaVuSans-13" transform="translate(95.40625 0)"/>
      <use xlink:href="#DejaVuSans-13" transform="translate(159.03125 0)"/>
      <use xlink:href="#DejaVuSans-13" transform="translate(222.65625 0)"/>
     </g>
    </g>
    <g id="patch_15">
     <path d="M 449.444866 163.557187 
L 533.793703 163.557187 
L 533.793703 146.157187 
L 449.444866 146.157187 
z
" style="fill: #ffffff; stroke: #000000; stroke-linejoin: miter"/>
    </g>
    <g id="text_31">
     <!-- 2 -->
     <g style="fill: #1f2933" transform="translate(488.438034 157.454844) scale(0.1 -0.1)">
      <use xlink:href="#DejaVuSans-15"/>
     </g>
    </g>
    <g id="patch_16">
     <path d="M 533.793703 163.557187 
L 618.14254 163.557187 
L 618.14254 146.157187 
L 533.793703 146.157187 
z
" style="fill: #ffffff; stroke: #000000; stroke-linejoin: miter"/>
    </g>
    <g id="text_32">
     <!-- 157 -->
     <g style="fill: #1f2933" transform="translate(566.424372 157.454844) scale(0.1 -0.1)">
      <use xlink:href="#DejaVuSans-14"/>
      <use xlink:href="#DejaVuSans-18" transform="translate(63.625 0)"/>
      <use xlink:href="#DejaVuSans-1a" transform="translate(127.25 0)"/>
     </g>
    </g>
    <g id="patch_17">
     <path d="M 618.14254 163.557187 
L 702.491378 163.557187 
L 702.491378 146.157187 
L 618.14254 146.157187 
z
" style="fill: #ffffff; stroke: #000000; stroke-linejoin: miter"/>
    </g>
    <g id="text_33">
     <!-- 0.083 -->
     <g style="fill: #1f2933" transform="translate(646.002896 157.454844) scale(0.1 -0.1)">
      <use xlink:href="#DejaVuSans-13"/>
      <use xlink:href="#DejaVuSans-11" transform="translate(63.625 0)"/>
      <use xlink:href="#DejaVuSans-13" transform="translate(95.40625 0)"/>
      <use xlink:href="#DejaVuSans-1b" transform="translate(159.03125 0)"/>
      <use xlink:href="#DejaVuSans-16" transform="translate(222.65625 0)"/>
     </g>
    </g>
    <g id="patch_18">
     <path d="M 702.491378 163.557187 
L 786.840215 163.557187 
L 786.840215 146.157187 
L 702.491378 146.157187 
z
" style="fill: #ffffff; stroke: #000000; stroke-linejoin: miter"/>
    </g>
    <g id="text_34">
     <!-- 0.025 -->
     <g style="fill: #1f2933" transform="translate(730.351734 157.454844) scale(0.1 -0.1)">
      <use xlink:href="#DejaVuSans-13"/>
      <use xlink:href="#DejaVuSans-11" transform="translate(63.625 0)"/>
      <use xlink:href="#DejaVuSans-13" transform="translate(95.40625 0)"/>
      <use xlink:href="#DejaVuSans-15" transform="translate(159.03125 0)"/>
      <use xlink:href="#DejaVuSans-18" transform="translate(222.65625 0)"/>
     </g>
    </g>
    <g id="patch_19">
     <path d="M 449.444866 180.957187 
L 533.793703 180.957187 
L 533.793703 163.557187 
L 449.444866 163.557187 
z
" style="fill: #ffffff; stroke: #000000; stroke-linejoin: miter"/>
    </g>
    <g id="text_35">
     <!-- 3 -->
     <g style="fill: #1f2933" transform="translate(488.438034 174.854844) scale(0.1 -0.1)">
      <use xlink:href="#DejaVuSans-16"/>
     </g>
    </g>
    <g id="patch_20">
     <path d="M 533.793703 180.957187 
L 618.14254 180.957187 
L 618.14254 163.557187 
L 533.793703 163.557187 
z
" style="fill: #ffffff; stroke: #000000; stroke-linejoin: miter"/>
    </g>
    <g id="text_36">
     <!-- 156 -->
     <g style="fill: #1f2933" transform="translate(566.424372 174.854844) scale(0.1 -0.1)">
      <use xlink:href="#DejaVuSans-14"/>
      <use xlink:href="#DejaVuSans-18" transform="translate(63.625 0)"/>
      <use xlink:href="#DejaVuSans-19" transform="translate(127.25 0)"/>
     </g>
    </g>
    <g id="patch_21">
     <path d="M 618.14254 180.957187 
L 702.491378 180.957187 
L 702.491378 163.557187 
L 618.14254 163.557187 
z
" style="fill: #ffffff; stroke: #000000; stroke-linejoin: miter"/>
    </g>
    <g id="text_37">
     <!-- 0.137 -->
     <g style="fill: #1f2933" transform="translate(646.002896 174.854844) scale(0.1 -0.1)">
      <use xlink:href="#DejaVuSans-13"/>
      <use xlink:href="#DejaVuSans-11" transform="translate(63.625 0)"/>
      <use xlink:href="#DejaVuSans-14" transform="translate(95.40625 0)"/>
      <use xlink:href="#DejaVuSans-16" transform="translate(159.03125 0)"/>
      <use xlink:href="#DejaVuSans-1a" transform="translate(222.65625 0)"/>
     </g>
    </g>
    <g id="patch_22">
     <path d="M 702.491378 180.957187 
L 786.840215 180.957187 
L 786.840215 163.557187 
L 702.491378 163.557187 
z
" style="fill: #ffffff; stroke: #000000; stroke-linejoin: miter"/>
    </g>
    <g id="text_38">
     <!-- 0.006 -->
     <g style="fill: #1f2933" transform="translate(730.351734 174.854844) scale(0.1 -0.1)">
      <use xlink:href="#DejaVuSans-13"/>
      <use xlink:href="#DejaVuSans-11" transform="translate(63.625 0)"/>
      <use xlink:href="#DejaVuSans-13" transform="translate(95.40625 0)"/>
      <use xlink:href="#DejaVuSans-13" transform="translate(159.03125 0)"/>
      <use xlink:href="#DejaVuSans-19" transform="translate(222.65625 0)"/>
     </g>
    </g>
    <g id="patch_23">
     <path d="M 449.444866 198.357187 
L 533.793703 198.357187 
L 533.793703 180.957187 
L 449.444866 180.957187 
z
" style="fill: #ffffff; stroke: #000000; stroke-linejoin: miter"/>
    </g>
    <g id="text_39">
     <!-- 4 -->
     <g style="fill: #1f2933" transform="translate(488.438034 192.254844) scale(0.1 -0.1)">
      <use xlink:href="#DejaVuSans-17"/>
     </g>
    </g>
    <g id="patch_24">
     <path d="M 533.793703 198.357187 
L 618.14254 198.357187 
L 618.14254 180.957187 
L 533.793703 180.957187 
z
" style="fill: #ffffff; stroke: #000000; stroke-linejoin: miter"/>
    </g>
    <g id="text_40">
     <!-- 157 -->
     <g style="fill: #1f2933" transform="translate(566.424372 192.254844) scale(0.1 -0.1)">
      <use xlink:href="#DejaVuSans-14"/>
      <use xlink:href="#DejaVuSans-18" transform="translate(63.625 0)"/>
      <use xlink:href="#DejaVuSans-1a" transform="translate(127.25 0)"/>
     </g>
    </g>
    <g id="patch_25">
     <path d="M 618.14254 198.357187 
L 702.491378 198.357187 
L 702.491378 180.957187 
L 618.14254 180.957187 
z
" style="fill: #ffffff; stroke: #000000; stroke-linejoin: miter"/>
    </g>
    <g id="text_41">
     <!-- 0.193 -->
     <g style="fill: #1f2933" transform="translate(646.002896 192.254844) scale(0.1 -0.1)">
      <defs>
       <path id="DejaVuSans-1c" d="M 703 97 
L 703 672 
Q 941 559 1184 500 
Q 1428 441 1663 441 
Q 2288 441 2617 861 
Q 2947 1281 2994 2138 
Q 2813 1869 2534 1725 
Q 2256 1581 1919 1581 
Q 1219 1581 811 2004 
Q 403 2428 403 3163 
Q 403 3881 828 4315 
Q 1253 4750 1959 4750 
Q 2769 4750 3195 4129 
Q 3622 3509 3622 2328 
Q 3622 1225 3098 567 
Q 2575 -91 1691 -91 
Q 1453 -91 1209 -44 
Q 966 3 703 97 
z
M 1959 2075 
Q 2384 2075 2632 2365 
Q 2881 2656 2881 3163 
Q 2881 3666 2632 3958 
Q 2384 4250 1959 4250 
Q 1534 4250 1286 3958 
Q 1038 3666 1038 3163 
Q 1038 2656 1286 2365 
Q 1534 2075 1959 2075 
z
" transform="scale(0.015625)"/>
      </defs>
      <use xlink:href="#DejaVuSans-13"/>
      <use xlink:href="#DejaVuSans-11" transform="translate(63.625 0)"/>
      <use xlink:href="#DejaVuSans-14" transform="translate(95.40625 0)"/>
      <use xlink:href="#DejaVuSans-1c" transform="translate(159.03125 0)"/>
      <use xlink:href="#DejaVuSans-16" transform="translate(222.65625 0)"/>
     </g>
    </g>
    <g id="patch_26">
     <path d="M 702.491378 198.357187 
L 786.840215 198.357187 
L 786.840215 180.957187 
L 702.491378 180.957187 
z
" style="fill: #ffffff; stroke: #000000; stroke-linejoin: miter"/>
    </g>
    <g id="text_42">
     <!-- 0.000 -->
     <g style="fill: #1f2933" transform="translate(730.351734 192.254844) scale(0.1 -0.1)">
      <use xlink:href="#DejaVuSans-13"/>
      <use xlink:href="#DejaVuSans-11" transform="translate(63.625 0)"/>
      <use xlink:href="#DejaVuSans-13" transform="translate(95.40625 0)"/>
      <use xlink:href="#DejaVuSans-13" transform="translate(159.03125 0)"/>
      <use xlink:href="#DejaVuSans-13" transform="translate(222.65625 0)"/>
     </g>
    </g>
    <g id="patch_27">
     <path d="M 449.444866 215.757187 
L 533.793703 215.757187 
L 533.793703 198.357187 
L 449.444866 198.357187 
z
" style="fill: #ffffff; stroke: #000000; stroke-linejoin: miter"/>
    </g>
    <g id="text_43">
     <!-- 5 -->
     <g style="fill: #1f2933" transform="translate(488.438034 209.654844) scale(0.1 -0.1)">
      <use xlink:href="#DejaVuSans-18"/>
     </g>
    </g>
    <g id="patch_28">
     <path d="M 533.793703 215.757187 
L 618.14254 215.757187 
L 618.14254 198.357187 
L 533.793703 198.357187 
z
" style="fill: #ffffff; stroke: #000000; stroke-linejoin: miter"/>
    </g>
    <g id="text_44">
     <!-- 156 -->
     <g style="fill: #1f2933" transform="translate(566.424372 209.654844) scale(0.1 -0.1)">
      <use xlink:href="#DejaVuSans-14"/>
      <use xlink:href="#DejaVuSans-18" transform="translate(63.625 0)"/>
      <use xlink:href="#DejaVuSans-19" transform="translate(127.25 0)"/>
     </g>
    </g>
    <g id="patch_29">
     <path d="M 618.14254 215.757187 
L 702.491378 215.757187 
L 702.491378 198.357187 
L 618.14254 198.357187 
z
" style="fill: #ffffff; stroke: #000000; stroke-linejoin: miter"/>
    </g>
    <g id="text_45">
     <!-- 0.251 -->
     <g style="fill: #1f2933" transform="translate(646.002896 209.654844) scale(0.1 -0.1)">
      <use xlink:href="#DejaVuSans-13"/>
      <use xlink:href="#DejaVuSans-11" transform="translate(63.625 0)"/>
      <use xlink:href="#DejaVuSans-15" transform="translate(95.40625 0)"/>
      <use xlink:href="#DejaVuSans-18" transform="translate(159.03125 0)"/>
      <use xlink:href="#DejaVuSans-14" transform="translate(222.65625 0)"/>
     </g>
    </g>
    <g id="patch_30">
     <path d="M 702.491378 215.757187 
L 786.840215 215.757187 
L 786.840215 198.357187 
L 702.491378 198.357187 
z
" style="fill: #ffffff; stroke: #000000; stroke-linejoin: miter"/>
    </g>
    <g id="text_46">
     <!-- 0.038 -->
     <g style="fill: #1f2933" transform="translate(730.351734 209.654844) scale(0.1 -0.1)">
      <use xlink:href="#DejaVuSans-13"/>
      <use xlink:href="#DejaVuSans-11" transform="translate(63.625 0)"/>
      <use xlink:href="#DejaVuSans-13" transform="translate(95.40625 0)"/>
      <use xlink:href="#DejaVuSans-16" transform="translate(159.03125 0)"/>
      <use xlink:href="#DejaVuSans-1b" transform="translate(222.65625 0)"/>
     </g>
    </g>
    <g id="patch_31">
     <path d="M 449.444866 233.157187 
L 533.793703 233.157187 
L 533.793703 215.757187 
L 449.444866 215.757187 
z
" style="fill: #ffffff; stroke: #000000; stroke-linejoin: miter"/>
    </g>
    <g id="text_47">
     <!-- 6 -->
     <g style="fill: #1f2933" transform="translate(488.438034 227.054844) scale(0.1 -0.1)">
      <use xlink:href="#DejaVuSans-19"/>
     </g>
    </g>
    <g id="patch_32">
     <path d="M 533.793703 233.157187 
L 618.14254 233.157187 
L 618.14254 215.757187 
L 533.793703 215.757187 
z
" style="fill: #ffffff; stroke: #000000; stroke-linejoin: miter"/>
    </g>
    <g id="text_48">
     <!-- 157 -->
     <g style="fill: #1f2933" transform="translate(566.424372 227.054844) scale(0.1 -0.1)">
      <use xlink:href="#DejaVuSans-14"/>
      <use xlink:href="#DejaVuSans-18" transform="translate(63.625 0)"/>
      <use xlink:href="#DejaVuSans-1a" transform="translate(127.25 0)"/>
     </g>
    </g>
    <g id="patch_33">
     <path d="M 618.14254 233.157187 
L 702.491378 233.157187 
L 702.491378 215.757187 
L 618.14254 215.757187 
z
" style="fill: #ffffff; stroke: #000000; stroke-linejoin: miter"/>
    </g>
    <g id="text_49">
     <!-- 0.317 -->
     <g style="fill: #1f2933" transform="translate(646.002896 227.054844) scale(0.1 -0.1)">
      <use xlink:href="#DejaVuSans-13"/>
      <use xlink:href="#DejaVuSans-11" transform="translate(63.625 0)"/>
      <use xlink:href="#DejaVuSans-16" transform="translate(95.40625 0)"/>
      <use xlink:href="#DejaVuSans-14" transform="translate(159.03125 0)"/>
      <use xlink:href="#DejaVuSans-1a" transform="translate(222.65625 0)"/>
     </g>
    </g>
    <g id="patch_34">
     <path d="M 702.491378 233.157187 
L 786.840215 233.157187 
L 786.840215 215.757187 
L 702.491378 215.757187 
z
" style="fill: #ffffff; stroke: #000000; stroke-linejoin: miter"/>
    </g>
    <g id="text_50">
     <!-- 0.013 -->
     <g style="fill: #1f2933" transform="translate(730.351734 227.054844) scale(0.1 -0.1)">
      <use xlink:href="#DejaVuSans-13"/>
      <use xlink:href="#DejaVuSans-11" transform="translate(63.625 0)"/>
      <use xlink:href="#DejaVuSans-13" transform="translate(95.40625 0)"/>
      <use xlink:href="#DejaVuSans-14" transform="translate(159.03125 0)"/>
      <use xlink:href="#DejaVuSans-16" transform="translate(222.65625 0)"/>
     </g>
    </g>
    <g id="patch_35">
     <path d="M 449.444866 250.557187 
L 533.793703 250.557187 
L 533.793703 233.157187 
L 449.444866 233.157187 
z
" style="fill: #ffffff; stroke: #000000; stroke-linejoin: miter"/>
    </g>
    <g id="text_51">
     <!-- 7 -->
     <g style="fill: #1f2933" transform="translate(488.438034 244.454844) scale(0.1 -0.1)">
      <use xlink:href="#DejaVuSans-1a"/>
     </g>
    </g>
    <g id="patch_36">
     <path d="M 533.793703 250.557187 
L 618.14254 250.557187 
L 618.14254 233.157187 
L 533.793703 233.157187 
z
" style="fill: #ffffff; stroke: #000000; stroke-linejoin: miter"/>
    </g>
    <g id="text_52">
     <!-- 156 -->
     <g style="fill: #1f2933" transform="translate(566.424372 244.454844) scale(0.1 -0.1)">
      <use xlink:href="#DejaVuSans-14"/>
      <use xlink:href="#DejaVuSans-18" transform="translate(63.625 0)"/>
      <use xlink:href="#DejaVuSans-19" transform="translate(127.25 0)"/>
     </g>
    </g>
    <g id="patch_37">
     <path d="M 618.14254 250.557187 
L 702.491378 250.557187 
L 702.491378 233.157187 
L 618.14254 233.157187 
z
" style="fill: #ffffff; stroke: #000000; stroke-linejoin: miter"/>
    </g>
    <g id="text_53">
     <!-- 0.389 -->
     <g style="fill: #1f2933" transform="translate(646.002896 244.454844) scale(0.1 -0.1)">
      <use xlink:href="#DejaVuSans-13"/>
      <use xlink:href="#DejaVuSans-11" transform="translate(63.625 0)"/>
      <use xlink:href="#DejaVuSans-16" transform="translate(95.40625 0)"/>
      <use xlink:href="#DejaVuSans-1b" transform="translate(159.03125 0)"/>
      <use xlink:href="#DejaVuSans-1c" transform="translate(222.65625 0)"/>
     </g>
    </g>
    <g id="patch_38">
     <path d="M 702.491378 250.557187 
L 786.840215 250.557187 
L 786.840215 233.157187 
L 702.491378 233.157187 
z
" style="fill: #ffffff; stroke: #000000; stroke-linejoin: miter"/>
    </g>
    <g id="text_54">
     <!-- 0.006 -->
     <g style="fill: #1f2933" transform="translate(730.351734 244.454844) scale(0.1 -0.1)">
      <use xlink:href="#DejaVuSans-13"/>
      <use xlink:href="#DejaVuSans-11" transform="translate(63.625 0)"/>
      <use xlink:href="#DejaVuSans-13" transform="translate(95.40625 0)"/>
      <use xlink:href="#DejaVuSans-13" transform="translate(159.03125 0)"/>
      <use xlink:href="#DejaVuSans-19" transform="translate(222.65625 0)"/>
     </g>
    </g>
    <g id="patch_39">
     <path d="M 449.444866 267.957187 
L 533.793703 267.957187 
L 533.793703 250.557187 
L 449.444866 250.557187 
z
" style="fill: #ffffff; stroke: #000000; stroke-linejoin: miter"/>
    </g>
    <g id="text_55">
     <!-- 8 -->
     <g style="fill: #1f2933" transform="translate(488.438034 261.854844) scale(0.1 -0.1)">
      <use xlink:href="#DejaVuSans-1b"/>
     </g>
    </g>
    <g id="patch_40">
     <path d="M 533.793703 267.957187 
L 618.14254 267.957187 
L 618.14254 250.557187 
L 533.793703 250.557187 
z
" style="fill: #ffffff; stroke: #000000; stroke-linejoin: miter"/>
    </g>
    <g id="text_56">
     <!-- 157 -->
     <g style="fill: #1f2933" transform="translate(566.424372 261.854844) scale(0.1 -0.1)">
      <use xlink:href="#DejaVuSans-14"/>
      <use xlink:href="#DejaVuSans-18" transform="translate(63.625 0)"/>
      <use xlink:href="#DejaVuSans-1a" transform="translate(127.25 0)"/>
     </g>
    </g>
    <g id="patch_41">
     <path d="M 618.14254 267.957187 
L 702.491378 267.957187 
L 702.491378 250.557187 
L 618.14254 250.557187 
z
" style="fill: #ffffff; stroke: #000000; stroke-linejoin: miter"/>
    </g>
    <g id="text_57">
     <!-- 0.467 -->
     <g style="fill: #1f2933" transform="translate(646.002896 261.854844) scale(0.1 -0.1)">
      <use xlink:href="#DejaVuSans-13"/>
      <use xlink:href="#DejaVuSans-11" transform="translate(63.625 0)"/>
      <use xlink:href="#DejaVuSans-17" transform="translate(95.40625 0)"/>
      <use xlink:href="#DejaVuSans-19" transform="translate(159.03125 0)"/>
      <use xlink:href="#DejaVuSans-1a" transform="translate(222.65625 0)"/>
     </g>
    </g>
    <g id="patch_42">
     <path d="M 702.491378 267.957187 
L 786.840215 267.957187 
L 786.840215 250.557187 
L 702.491378 250.557187 
z
" style="fill: #ffffff; stroke: #000000; stroke-linejoin: miter"/>
    </g>
    <g id="text_58">
     <!-- 0.019 -->
     <g style="fill: #1f2933" transform="translate(730.351734 261.854844) scale(0.1 -0.1)">
      <use xlink:href="#DejaVuSans-13"/>
      <use xlink:href="#DejaVuSans-11" transform="translate(63.625 0)"/>
      <use xlink:href="#DejaVuSans-13" transform="translate(95.40625 0)"/>
      <use xlink:href="#DejaVuSans-14" transform="translate(159.03125 0)"/>
      <use xlink:href="#DejaVuSans-1c" transform="translate(222.65625 0)"/>
     </g>
    </g>
    <g id="patch_43">
     <path d="M 449.444866 285.357187 
L 533.793703 285.357187 
L 533.793703 267.957187 
L 449.444866 267.957187 
z
" style="fill: #ffffff; stroke: #000000; stroke-linejoin: miter"/>
    </g>
    <g id="text_59">
     <!-- 9 -->
     <g style="fill: #1f2933" transform="translate(488.438034 279.254844) scale(0.1 -0.1)">
      <use xlink:href="#DejaVuSans-1c"/>
     </g>
    </g>
    <g id="patch_44">
     <path d="M 533.793703 285.357187 
L 618.14254 285.357187 
L 618.14254 267.957187 
L 533.793703 267.957187 
z
" style="fill: #ffffff; stroke: #000000; stroke-linejoin: miter"/>
    </g>
    <g id="text_60">
     <!-- 156 -->
     <g style="fill: #1f2933" transform="translate(566.424372 279.254844) scale(0.1 -0.1)">
      <use xlink:href="#DejaVuSans-14"/>
      <use xlink:href="#DejaVuSans-18" transform="translate(63.625 0)"/>
      <use xlink:href="#DejaVuSans-19" transform="translate(127.25 0)"/>
     </g>
    </g>
    <g id="patch_45">
     <path d="M 618.14254 285.357187 
L 702.491378 285.357187 
L 702.491378 267.957187 
L 618.14254 267.957187 
z
" style="fill: #ffffff; stroke: #000000; stroke-linejoin: miter"/>
    </g>
    <g id="text_61">
     <!-- 0.574 -->
     <g style="fill: #1f2933" transform="translate(646.002896 279.254844) scale(0.1 -0.1)">
      <use xlink:href="#DejaVuSans-13"/>
      <use xlink:href="#DejaVuSans-11" transform="translate(63.625 0)"/>
      <use xlink:href="#DejaVuSans-18" transform="translate(95.40625 0)"/>
      <use xlink:href="#DejaVuSans-1a" transform="translate(159.03125 0)"/>
      <use xlink:href="#DejaVuSans-17" transform="translate(222.65625 0)"/>
     </g>
    </g>
    <g id="patch_46">
     <path d="M 702.491378 285.357187 
L 786.840215 285.357187 
L 786.840215 267.957187 
L 702.491378 267.957187 
z
" style="fill: #ffffff; stroke: #000000; stroke-linejoin: miter"/>
    </g>
    <g id="text_62">
     <!-- 0.045 -->
     <g style="fill: #1f2933" transform="translate(730.351734 279.254844) scale(0.1 -0.1)">
      <use xlink:href="#DejaVuSans-13"/>
      <use xlink:href="#DejaVuSans-11" transform="translate(63.625 0)"/>
      <use xlink:href="#DejaVuSans-13" transform="translate(95.40625 0)"/>
      <use xlink:href="#DejaVuSans-17" transform="translate(159.03125 0)"/>
      <use xlink:href="#DejaVuSans-18" transform="translate(222.65625 0)"/>
     </g>
    </g>
    <g id="patch_47">
     <path d="M 449.444866 302.757187 
L 533.793703 302.757187 
L 533.793703 285.357187 
L 449.444866 285.357187 
z
" style="fill: #ffffff; stroke: #000000; stroke-linejoin: miter"/>
    </g>
    <g id="text_63">
     <!-- 10 -->
     <g style="fill: #1f2933" transform="translate(485.256784 296.654844) scale(0.1 -0.1)">
      <use xlink:href="#DejaVuSans-14"/>
      <use xlink:href="#DejaVuSans-13" transform="translate(63.625 0)"/>
     </g>
    </g>
    <g id="patch_48">
     <path d="M 533.793703 302.757187 
L 618.14254 302.757187 
L 618.14254 285.357187 
L 533.793703 285.357187 
z
" style="fill: #ffffff; stroke: #000000; stroke-linejoin: miter"/>
    </g>
    <g id="text_64">
     <!-- 157 -->
     <g style="fill: #1f2933" transform="translate(566.424372 296.654844) scale(0.1 -0.1)">
      <use xlink:href="#DejaVuSans-14"/>
      <use xlink:href="#DejaVuSans-18" transform="translate(63.625 0)"/>
      <use xlink:href="#DejaVuSans-1a" transform="translate(127.25 0)"/>
     </g>
    </g>
    <g id="patch_49">
     <path d="M 618.14254 302.757187 
L 702.491378 302.757187 
L 702.491378 285.357187 
L 618.14254 285.357187 
z
" style="fill: #ffffff; stroke: #000000; stroke-linejoin: miter"/>
    </g>
    <g id="text_65">
     <!-- 0.731 -->
     <g style="fill: #1f2933" transform="translate(646.002896 296.654844) scale(0.1 -0.1)">
      <use xlink:href="#DejaVuSans-13"/>
      <use xlink:href="#DejaVuSans-11" transform="translate(63.625 0)"/>
      <use xlink:href="#DejaVuSans-1a" transform="translate(95.40625 0)"/>
      <use xlink:href="#DejaVuSans-16" transform="translate(159.03125 0)"/>
      <use xlink:href="#DejaVuSans-14" transform="translate(222.65625 0)"/>
     </g>
    </g>
    <g id="patch_50">
     <path d="M 702.491378 302.757187 
L 786.840215 302.757187 
L 786.840215 285.357187 
L 702.491378 285.357187 
z
" style="fill: #ffffff; stroke: #000000; stroke-linejoin: miter"/>
    </g>
    <g id="text_66">
     <!-- 0.083 -->
     <g style="fill: #1f2933" transform="translate(730.351734 296.654844) scale(0.1 -0.1)">
      <use xlink:href="#DejaVuSans-13"/>
      <use xlink:href="#DejaVuSans-11" transform="translate(63.625 0)"/>
      <use xlink:href="#DejaVuSans-13" transform="translate(95.40625 0)"/>
      <use xlink:href="#DejaVuSans-1b" transform="translate(159.03125 0)"/>
      <use xlink:href="#DejaVuSans-16" transform="translate(222.65625 0)"/>
     </g>
    </g>
   </g>
   <g id="text_67">
    <!-- Calibration table -->
    <g style="fill: #1f2933" transform="translate(464.781018 20.877187) scale(0.18 -0.18)">
     <use xlink:href="#DejaVuSans-Bold-26"/>
     <use xlink:href="#DejaVuSans-Bold-44" transform="translate(73.390625 0)"/>
     <use xlink:href="#DejaVuSans-Bold-4f" transform="translate(140.875 0)"/>
     <use xlink:href="#DejaVuSans-Bold-4c" transform="translate(175.15625 0)"/>
     <use xlink:href="#DejaVuSans-Bold-45" transform="translate(209.4375 0)"/>
     <use xlink:href="#DejaVuSans-Bold-55" transform="translate(281.015625 0)"/>
     <use xlink:href="#DejaVuSans-Bold-44" transform="translate(330.328125 0)"/>
     <use xlink:href="#DejaVuSans-Bold-57" transform="translate(397.8125 0)"/>
     <use xlink:href="#DejaVuSans-Bold-4c" transform="translate(445.609375 0)"/>
     <use xlink:href="#DejaVuSans-Bold-52" transform="translate(479.890625 0)"/>
     <use xlink:href="#DejaVuSans-Bold-51" transform="translate(548.59375 0)"/>
     <use xlink:href="#DejaVuSans-Bold-3" transform="translate(619.78125 0)"/>
     <use xlink:href="#DejaVuSans-Bold-57" transform="translate(654.59375 0)"/>
     <use xlink:href="#DejaVuSans-Bold-44" transform="translate(702.390625 0)"/>
     <use xlink:href="#DejaVuSans-Bold-45" transform="translate(769.875 0)"/>
     <use xlink:href="#DejaVuSans-Bold-4f" transform="translate(841.453125 0)"/>
     <use xlink:href="#DejaVuSans-Bold-48" transform="translate(875.734375 0)"/>
    </g>
   </g>
  </g>
 </g>
 <defs>
  <clipPath id="p12129c0237">
   <rect x="46.104063" y="26.877187" width="352.731501" height="360.36"/>
  </clipPath>
 </defs>
</svg>
