<?xml version="1.0" encoding="utf-8" standalone="no"?>
<!DOCTYPE svg PUBLIC "-//W3C//DTD SVG 1.1//EN"
  "http://www.w3.org/Graphics/SVG/1.1/DTD/svg11.dtd">
<svg xmlns:xlink="http://www.w3.org/1999/xlink" width="836.200937pt" height="485.880937pt" viewBox="0 0 836.200937 485.880937" xmlns="http://www.w3.org/2000/svg" version="1.1">
 <metadata>
  <rdf:RDF xmlns:dc="http://purl.org/dc/elements/1.1/" xmlns:cc="http://creativecommons.org/ns#" xmlns:rdf="http://www.w3.org/1999/02/22-rdf-syntax-ns#">
   <cc:Work>
    <dc:type rdf:resource="http://purl.org/dc/dcmitype/StillImage"/>
    <dc:date>2026-07-15T15:01:51.692709</dc:date>
    <dc:format>image/svg+xml</dc:format>
    <dc:creator>
     <cc:Agent>
      <dc:title>Matplotlib v3.11.0, https://matplotlib.org/</dc:title>
     </cc:Agent>
    </dc:creator>
   </cc:Work>
  </rdf:RDF>
 </metadata>
 <defs>
  <style type="text/css">*{stroke-linejoin: round; stroke-linecap: butt}</style>
 </defs>
 <g id="figure_1">
  <g id="patch_1">
   <path d="M 0 485.880937 
L 836.200937 485.880937 
L 836.200937 0 
L 0 0 
z
" style="fill: #ffffff"/>
  </g>
  <g id="axes_1">
   <g id="patch_2">
    <path d="M 47.800938 234 
L 402.891847 234 
L 402.891847 57.6 
L 47.800938 57.6 
z
" style="fill: #ffffff"/>
   </g>
   <g id="patch_3">
    <path d="M 63.941433 32940.791282 
L 207.412508 32940.791282 
L 207.412508 65.618182 
L 63.941433 65.618182 
z
" clip-path="url(#pa467145941)" style="fill: #3a7d44"/>
   </g>
   <g id="patch_4">
    <path d="M 243.280276 32940.791282 
L 386.751351 32940.791282 
L 386.751351 225.981818 
L 243.280276 225.981818 
z
" clip-path="url(#pa467145941)" style="fill: #a43e3e"/>
   </g>
   <g id="matplotlib.axis_1">
    <g id="xtick_1">
     <g id="line2d_1">
      <defs>
       <path id="m79f2a528b8" d="M 0 0 
L 0 3.5 
" style="stroke: #1f2933; stroke-width: 0.8"/>
      </defs>
      <g>
       <use xlink:href="#m79f2a528b8" x="135.676971" y="234" style="fill: #1f2933; stroke: #1f2933; stroke-width: 0.8"/>
      </g>
     </g>
     <g id="text_1">
      <!-- Success -->
      <g style="fill: #1f2933" transform="translate(115.549627 248.597656) scale(0.1 -0.1)">
       <defs>
        <path id="DejaVuSans-36" d="M 3425 4513 
L 3425 3897 
Q 3066 4069 2747 4153 
Q 2428 4238 2131 4238 
Q 1616 4238 1336 4038 
Q 1056 3838 1056 3469 
Q 1056 3159 1242 3001 
Q 1428 2844 1947 2747 
L 2328 2669 
Q 3034 2534 3370 2195 
Q 3706 1856 3706 1288 
Q 3706 609 3251 259 
Q 2797 -91 1919 -91 
Q 1588 -91 1214 -16 
Q 841 59 441 206 
L 441 856 
Q 825 641 1194 531 
Q 1563 422 1919 422 
Q 2459 422 2753 634 
Q 3047 847 3047 1241 
Q 3047 1584 2836 1778 
Q 2625 1972 2144 2069 
L 1759 2144 
Q 1053 2284 737 2584 
Q 422 2884 422 3419 
Q 422 4038 858 4394 
Q 1294 4750 2059 4750 
Q 2388 4750 2728 4690 
Q 3069 4631 3425 4513 
z
" transform="scale(0.015625)"/>
        <path id="DejaVuSans-58" d="M 544 1381 
L 544 3500 
L 1119 3500 
L 1119 1403 
Q 1119 906 1312 657 
Q 1506 409 1894 409 
Q 2359 409 2629 706 
Q 2900 1003 2900 1516 
L 2900 3500 
L 3475 3500 
L 3475 0 
L 2900 0 
L 2900 538 
Q 2691 219 2414 64 
Q 2138 -91 1772 -91 
Q 1169 -91 856 284 
Q 544 659 544 1381 
z
M 1991 3584 
L 1991 3584 
z
" transform="scale(0.015625)"/>
        <path id="DejaVuSans-46" d="M 3122 3366 
L 3122 2828 
Q 2878 2963 2633 3030 
Q 2388 3097 2138 3097 
Q 1578 3097 1268 2742 
Q 959 2388 959 1747 
Q 959 1106 1268 751 
Q 1578 397 2138 397 
Q 2388 397 2633 464 
Q 2878 531 3122 666 
L 3122 134 
Q 2881 22 2623 -34 
Q 2366 -91 2075 -91 
Q 1284 -91 818 406 
Q 353 903 353 1747 
Q 353 2603 823 3093 
Q 1294 3584 2113 3584 
Q 2378 3584 2631 3529 
Q 2884 3475 3122 3366 
z
" transform="scale(0.015625)"/>
        <path id="DejaVuSans-48" d="M 3597 1894 
L 3597 1613 
L 953 1613 
Q 991 1019 1311 708 
Q 1631 397 2203 397 
Q 2534 397 2845 478 
Q 3156 559 3463 722 
L 3463 178 
Q 3153 47 2828 -22 
Q 2503 -91 2169 -91 
Q 1331 -91 842 396 
Q 353 884 353 1716 
Q 353 2575 817 3079 
Q 1281 3584 2069 3584 
Q 2775 3584 3186 3129 
Q 3597 2675 3597 1894 
z
M 3022 2063 
Q 3016 2534 2758 2815 
Q 2500 3097 2075 3097 
Q 1594 3097 1305 2825 
Q 1016 2553 972 2059 
L 3022 2063 
z
" transform="scale(0.015625)"/>
        <path id="DejaVuSans-56" d="M 2834 3397 
L 2834 2853 
Q 2591 2978 2328 3040 
Q 2066 3103 1784 3103 
Q 1356 3103 1142 2972 
Q 928 2841 928 2578 
Q 928 2378 1081 2264 
Q 1234 2150 1697 2047 
L 1894 2003 
Q 2506 1872 2764 1633 
Q 3022 1394 3022 966 
Q 3022 478 2636 193 
Q 2250 -91 1575 -91 
Q 1294 -91 989 -36 
Q 684 19 347 128 
L 347 722 
Q 666 556 975 473 
Q 1284 391 1588 391 
Q 1994 391 2212 530 
Q 2431 669 2431 922 
Q 2431 1156 2273 1281 
Q 2116 1406 1581 1522 
L 1381 1569 
Q 847 1681 609 1914 
Q 372 2147 372 2553 
Q 372 3047 722 3315 
Q 1072 3584 1716 3584 
Q 2034 3584 2315 3537 
Q 2597 3491 2834 3397 
z
" transform="scale(0.015625)"/>
       </defs>
       <use xlink:href="#DejaVuSans-36"/>
       <use xlink:href="#DejaVuSans-58" transform="translate(63.484375 0)"/>
       <use xlink:href="#DejaVuSans-46" transform="translate(126.859375 0)"/>
       <use xlink:href="#DejaVuSans-46" transform="translate(181.84375 0)"/>
       <use xlink:href="#DejaVuSans-48" transform="translate(236.828125 0)"/>
       <use xlink:href="#DejaVuSans-56" transform="translate(298.359375 0)"/>
       <use xlink:href="#DejaVuSans-56" transform="translate(350.453125 0)"/>
      </g>
     </g>
    </g>
    <g id="xtick_2">
     <g id="line2d_2">
      <g>
       <use xlink:href="#m79f2a528b8" x="315.015814" y="234" style="fill: #1f2933; stroke: #1f2933; stroke-width: 0.8"/>
      </g>
     </g>
     <g id="text_2">
      <!-- Errors -->
      <g style="fill: #1f2933" transform="translate(300.223626 248.597656) scale(0.1 -0.1)">
       <defs>
        <path id="DejaVuSans-28" d="M 628 4666 
L 3578 4666 
L 3578 4134 
L 1259 4134 
L 1259 2753 
L 3481 2753 
L 3481 2222 
L 1259 2222 
L 1259 531 
L 3634 531 
L 3634 0 
L 628 0 
L 628 4666 
z
" transform="scale(0.015625)"/>
        <path id="DejaVuSans-55" d="M 2631 2963 
Q 2534 3019 2420 3045 
Q 2306 3072 2169 3072 
Q 1681 3072 1420 2755 
Q 1159 2438 1159 1844 
L 1159 0 
L 581 0 
L 581 3500 
L 1159 3500 
L 1159 2956 
Q 1341 3275 1631 3429 
Q 1922 3584 2338 3584 
Q 2397 3584 2469 3576 
Q 2541 3569 2628 3553 
L 2631 2963 
z
" transform="scale(0.015625)"/>
        <path id="DejaVuSans-52" d="M 1959 3097 
Q 1497 3097 1228 2736 
Q 959 2375 959 1747 
Q 959 1119 1226 758 
Q 1494 397 1959 397 
Q 2419 397 2687 759 
Q 2956 1122 2956 1747 
Q 2956 2369 2687 2733 
Q 2419 3097 1959 3097 
z
M 1959 3584 
Q 2709 3584 3137 3096 
Q 3566 2609 3566 1747 
Q 3566 888 3137 398 
Q 2709 -91 1959 -91 
Q 1206 -91 779 398 
Q 353 888 353 1747 
Q 353 2609 779 3096 
Q 1206 3584 1959 3584 
z
" transform="scale(0.015625)"/>
       </defs>
       <use xlink:href="#DejaVuSans-28"/>
       <use xlink:href="#DejaVuSans-55" transform="translate(63.1875 0)"/>
       <use xlink:href="#DejaVuSans-55" transform="translate(102.546875 0)"/>
       <use xlink:href="#DejaVuSans-52" transform="translate(141.453125 0)"/>
       <use xlink:href="#DejaVuSans-55" transform="translate(202.640625 0)"/>
       <use xlink:href="#DejaVuSans-56" transform="translate(243.75 0)"/>
      </g>
     </g>
    </g>
   </g>
   <g id="matplotlib.axis_2">
    <g id="ytick_1">
     <g id="line2d_3">
      <defs>
       <path id="ma216cd5810" d="M 0 0 
L -3.5 0 
" style="stroke: #1f2933; stroke-width: 0.8"/>
      </defs>
      <g>
       <use xlink:href="#ma216cd5810" x="47.800938" y="203.122029" style="fill: #1f2933; stroke: #1f2933; stroke-width: 0.8"/>
      </g>
     </g>
     <g id="text_3">
      <!-- $\mathdefault{10^{1}}$ -->
      <g style="fill: #1f2933" transform="translate(23.200938 207.772029) scale(0.1 -0.1)">
       <defs>
        <path id="DejaVuSans-14" d="M 794 531 
L 1825 531 
L 1825 4091 
L 703 3866 
L 703 4441 
L 1819 4666 
L 2450 4666 
L 2450 531 
L 3481 531 
L 3481 0 
L 794 0 
L 794 531 
z
" transform="scale(0.015625)"/>
        <path id="DejaVuSans-13" d="M 2034 4250 
Q 1547 4250 1301 3770 
Q 1056 3291 1056 2328 
Q 1056 1369 1301 889 
Q 1547 409 2034 409 
Q 2525 409 2770 889 
Q 3016 1369 3016 2328 
Q 3016 3291 2770 3770 
Q 2525 4250 2034 4250 
z
M 2034 4750 
Q 2819 4750 3233 4129 
Q 3647 3509 3647 2328 
Q 3647 1150 3233 529 
Q 2819 -91 2034 -91 
Q 1250 -91 836 529 
Q 422 1150 422 2328 
Q 422 3509 836 4129 
Q 1250 4750 2034 4750 
z
" transform="scale(0.015625)"/>
       </defs>
       <use xlink:href="#DejaVuSans-14" transform="translate(0 0.665625)"/>
       <use xlink:href="#DejaVuSans-13" transform="translate(63.623047 0.665625)"/>
       <use xlink:href="#DejaVuSans-14" transform="translate(128.203125 41.965625) scale(0.7)"/>
      </g>
     </g>
    </g>
    <g id="ytick_2">
     <g id="line2d_4">
      <g>
       <use xlink:href="#ma216cd5810" x="47.800938" y="170.417065" style="fill: #1f2933; stroke: #1f2933; stroke-width: 0.8"/>
      </g>
     </g>
     <g id="text_4">
      <!-- $\mathdefault{10^{2}}$ -->
      <g style="fill: #1f2933" transform="translate(23.200938 175.117065) scale(0.1 -0.1)">
       <defs>
        <path id="DejaVuSans-15" d="M 1228 531 
L 3431 531 
L 3431 0 
L 469 0 
L 469 531 
Q 828 903 1448 1529 
Q 2069 2156 2228 2338 
Q 2531 2678 2651 2914 
Q 2772 3150 2772 3378 
Q 2772 3750 2511 3984 
Q 2250 4219 1831 4219 
Q 1534 4219 1204 4116 
Q 875 4013 500 3803 
L 500 4441 
Q 881 4594 1212 4672 
Q 1544 4750 1819 4750 
Q 2544 4750 2975 4387 
Q 3406 4025 3406 3419 
Q 3406 3131 3298 2873 
Q 3191 2616 2906 2266 
Q 2828 2175 2409 1742 
Q 1991 1309 1228 531 
z
" transform="scale(0.015625)"/>
       </defs>
       <use xlink:href="#DejaVuSans-14" transform="translate(0 0.746875)"/>
       <use xlink:href="#DejaVuSans-13" transform="translate(63.623047 0.746875)"/>
       <use xlink:href="#DejaVuSans-15" transform="translate(128.203125 42.046875) scale(0.7)"/>
      </g>
     </g>
    </g>
    <g id="ytick_3">
     <g id="line2d_5">
      <g>
       <use xlink:href="#ma216cd5810" x="47.800938" y="137.712101" style="fill: #1f2933; stroke: #1f2933; stroke-width: 0.8"/>
      </g>
     </g>
     <g id="text_5">
      <!-- $\mathdefault{10^{3}}$ -->
      <g style="fill: #1f2933" transform="translate(23.200938 142.412101) scale(0.1 -0.1)">
       <defs>
        <path id="DejaVuSans-16" d="M 2597 2516 
Q 3050 2419 3304 2112 
Q 3559 1806 3559 1356 
Q 3559 666 3084 287 
Q 2609 -91 1734 -91 
Q 1441 -91 1130 -33 
Q 819 25 488 141 
L 488 750 
Q 750 597 1062 519 
Q 1375 441 1716 441 
Q 2309 441 2620 675 
Q 2931 909 2931 1356 
Q 2931 1769 2642 2001 
Q 2353 2234 1838 2234 
L 1294 2234 
L 1294 2753 
L 1863 2753 
Q 2328 2753 2575 2939 
Q 2822 3125 2822 3475 
Q 2822 3834 2567 4026 
Q 2313 4219 1838 4219 
Q 1578 4219 1281 4162 
Q 984 4106 628 3988 
L 628 4550 
Q 988 4650 1302 4700 
Q 1616 4750 1894 4750 
Q 2613 4750 3031 4423 
Q 3450 4097 3450 3541 
Q 3450 3153 3228 2886 
Q 3006 2619 2597 2516 
z
" transform="scale(0.015625)"/>
       </defs>
       <use xlink:href="#DejaVuSans-14" transform="translate(0 0.746875)"/>
       <use xlink:href="#DejaVuSans-13" transform="translate(63.623047 0.746875)"/>
       <use xlink:href="#DejaVuSans-16" transform="translate(128.203125 42.046875) scale(0.7)"/>
      </g>
     </g>
    </g>
    <g id="ytick_4">
     <g id="line2d_6">
      <g>
       <use xlink:href="#ma216cd5810" x="47.800938" y="105.007136" style="fill: #1f2933; stroke: #1f2933; stroke-width: 0.8"/>
      </g>
     </g>
     <g id="text_6">
      <!-- $\mathdefault{10^{4}}$ -->
      <g style="fill: #1f2933" transform="translate(23.200938 109.657136) scale(0.1 -0.1)">
       <defs>
        <path id="DejaVuSans-17" d="M 2419 4116 
L 825 1625 
L 2419 1625 
L 2419 4116 
z
M 2253 4666 
L 3047 4666 
L 3047 1625 
L 3713 1625 
L 3713 1100 
L 3047 1100 
L 3047 0 
L 2419 0 
L 2419 1100 
L 313 1100 
L 313 1709 
L 2253 4666 
z
" transform="scale(0.015625)"/>
       </defs>
       <use xlink:href="#DejaVuSans-14" transform="translate(0 0.665625)"/>
       <use xlink:href="#DejaVuSans-13" transform="translate(63.623047 0.665625)"/>
       <use xlink:href="#DejaVuSans-17" transform="translate(128.203125 41.965625) scale(0.7)"/>
      </g>
     </g>
    </g>
    <g id="ytick_5">
     <g id="line2d_7">
      <g>
       <use xlink:href="#ma216cd5810" x="47.800938" y="72.302172" style="fill: #1f2933; stroke: #1f2933; stroke-width: 0.8"/>
      </g>
     </g>
     <g id="text_7">
      <!-- $\mathdefault{10^{5}}$ -->
      <g style="fill: #1f2933" transform="translate(23.200938 76.952172) scale(0.1 -0.1)">
       <defs>
        <path id="DejaVuSans-18" d="M 691 4666 
L 3169 4666 
L 3169 4134 
L 1269 4134 
L 1269 2991 
Q 1406 3038 1543 3061 
Q 1681 3084 1819 3084 
Q 2600 3084 3056 2656 
Q 3513 2228 3513 1497 
Q 3513 744 3044 326 
Q 2575 -91 1722 -91 
Q 1428 -91 1123 -41 
Q 819 9 494 109 
L 494 744 
Q 775 591 1075 516 
Q 1375 441 1709 441 
Q 2250 441 2565 725 
Q 2881 1009 2881 1497 
Q 2881 1984 2565 2268 
Q 2250 2553 1709 2553 
Q 1456 2553 1204 2497 
Q 953 2441 691 2322 
L 691 4666 
z
" transform="scale(0.015625)"/>
       </defs>
       <use xlink:href="#DejaVuSans-14" transform="translate(0 0.665625)"/>
       <use xlink:href="#DejaVuSans-13" transform="translate(63.623047 0.665625)"/>
       <use xlink:href="#DejaVuSans-18" transform="translate(128.203125 41.965625) scale(0.7)"/>
      </g>
     </g>
    </g>
    <g id="ytick_6">
     <g id="line2d_8">
      <defs>
       <path id="mcd41c4a4e1" d="M 0 0 
L -2 0 
" style="stroke: #1f2933; stroke-width: 0.6"/>
      </defs>
      <g>
       <use xlink:href="#mcd41c4a4e1" x="47.800938" y="225.981818" style="fill: #1f2933; stroke: #1f2933; stroke-width: 0.6"/>
      </g>
     </g>
    </g>
    <g id="ytick_7">
     <g id="line2d_9">
      <g>
       <use xlink:href="#mcd41c4a4e1" x="47.800938" y="220.22276" style="fill: #1f2933; stroke: #1f2933; stroke-width: 0.6"/>
      </g>
     </g>
    </g>
    <g id="ytick_8">
     <g id="line2d_10">
      <g>
       <use xlink:href="#mcd41c4a4e1" x="47.800938" y="216.136643" style="fill: #1f2933; stroke: #1f2933; stroke-width: 0.6"/>
      </g>
     </g>
    </g>
    <g id="ytick_9">
     <g id="line2d_11">
      <g>
       <use xlink:href="#mcd41c4a4e1" x="47.800938" y="212.967204" style="fill: #1f2933; stroke: #1f2933; stroke-width: 0.6"/>
      </g>
     </g>
    </g>
    <g id="ytick_10">
     <g id="line2d_12">
      <g>
       <use xlink:href="#mcd41c4a4e1" x="47.800938" y="210.377585" style="fill: #1f2933; stroke: #1f2933; stroke-width: 0.6"/>
      </g>
     </g>
    </g>
    <g id="ytick_11">
     <g id="line2d_13">
      <g>
       <use xlink:href="#mcd41c4a4e1" x="47.800938" y="208.188092" style="fill: #1f2933; stroke: #1f2933; stroke-width: 0.6"/>
      </g>
     </g>
    </g>
    <g id="ytick_12">
     <g id="line2d_14">
      <g>
       <use xlink:href="#mcd41c4a4e1" x="47.800938" y="206.291468" style="fill: #1f2933; stroke: #1f2933; stroke-width: 0.6"/>
      </g>
     </g>
    </g>
    <g id="ytick_13">
     <g id="line2d_15">
      <g>
       <use xlink:href="#mcd41c4a4e1" x="47.800938" y="204.618526" style="fill: #1f2933; stroke: #1f2933; stroke-width: 0.6"/>
      </g>
     </g>
    </g>
    <g id="ytick_14">
     <g id="line2d_16">
      <g>
       <use xlink:href="#mcd41c4a4e1" x="47.800938" y="193.276854" style="fill: #1f2933; stroke: #1f2933; stroke-width: 0.6"/>
      </g>
     </g>
    </g>
    <g id="ytick_15">
     <g id="line2d_17">
      <g>
       <use xlink:href="#mcd41c4a4e1" x="47.800938" y="187.517796" style="fill: #1f2933; stroke: #1f2933; stroke-width: 0.6"/>
      </g>
     </g>
    </g>
    <g id="ytick_16">
     <g id="line2d_18">
      <g>
       <use xlink:href="#mcd41c4a4e1" x="47.800938" y="183.431679" style="fill: #1f2933; stroke: #1f2933; stroke-width: 0.6"/>
      </g>
     </g>
    </g>
    <g id="ytick_17">
     <g id="line2d_19">
      <g>
       <use xlink:href="#mcd41c4a4e1" x="47.800938" y="180.26224" style="fill: #1f2933; stroke: #1f2933; stroke-width: 0.6"/>
      </g>
     </g>
    </g>
    <g id="ytick_18">
     <g id="line2d_20">
      <g>
       <use xlink:href="#mcd41c4a4e1" x="47.800938" y="177.67262" style="fill: #1f2933; stroke: #1f2933; stroke-width: 0.6"/>
      </g>
     </g>
    </g>
    <g id="ytick_19">
     <g id="line2d_21">
      <g>
       <use xlink:href="#mcd41c4a4e1" x="47.800938" y="175.483128" style="fill: #1f2933; stroke: #1f2933; stroke-width: 0.6"/>
      </g>
     </g>
    </g>
    <g id="ytick_20">
     <g id="line2d_22">
      <g>
       <use xlink:href="#mcd41c4a4e1" x="47.800938" y="173.586503" style="fill: #1f2933; stroke: #1f2933; stroke-width: 0.6"/>
      </g>
     </g>
    </g>
    <g id="ytick_21">
     <g id="line2d_23">
      <g>
       <use xlink:href="#mcd41c4a4e1" x="47.800938" y="171.913562" style="fill: #1f2933; stroke: #1f2933; stroke-width: 0.6"/>
      </g>
     </g>
    </g>
    <g id="ytick_22">
     <g id="line2d_24">
      <g>
       <use xlink:href="#mcd41c4a4e1" x="47.800938" y="160.57189" style="fill: #1f2933; stroke: #1f2933; stroke-width: 0.6"/>
      </g>
     </g>
    </g>
    <g id="ytick_23">
     <g id="line2d_25">
      <g>
       <use xlink:href="#mcd41c4a4e1" x="47.800938" y="154.812831" style="fill: #1f2933; stroke: #1f2933; stroke-width: 0.6"/>
      </g>
     </g>
    </g>
    <g id="ytick_24">
     <g id="line2d_26">
      <g>
       <use xlink:href="#mcd41c4a4e1" x="47.800938" y="150.726714" style="fill: #1f2933; stroke: #1f2933; stroke-width: 0.6"/>
      </g>
     </g>
    </g>
    <g id="ytick_25">
     <g id="line2d_27">
      <g>
       <use xlink:href="#mcd41c4a4e1" x="47.800938" y="147.557276" style="fill: #1f2933; stroke: #1f2933; stroke-width: 0.6"/>
      </g>
     </g>
    </g>
    <g id="ytick_26">
     <g id="line2d_28">
      <g>
       <use xlink:href="#mcd41c4a4e1" x="47.800938" y="144.967656" style="fill: #1f2933; stroke: #1f2933; stroke-width: 0.6"/>
      </g>
     </g>
    </g>
    <g id="ytick_27">
     <g id="line2d_29">
      <g>
       <use xlink:href="#mcd41c4a4e1" x="47.800938" y="142.778164" style="fill: #1f2933; stroke: #1f2933; stroke-width: 0.6"/>
      </g>
     </g>
    </g>
    <g id="ytick_28">
     <g id="line2d_30">
      <g>
       <use xlink:href="#mcd41c4a4e1" x="47.800938" y="140.881539" style="fill: #1f2933; stroke: #1f2933; stroke-width: 0.6"/>
      </g>
     </g>
    </g>
    <g id="ytick_29">
     <g id="line2d_31">
      <g>
       <use xlink:href="#mcd41c4a4e1" x="47.800938" y="139.208598" style="fill: #1f2933; stroke: #1f2933; stroke-width: 0.6"/>
      </g>
     </g>
    </g>
    <g id="ytick_30">
     <g id="line2d_32">
      <g>
       <use xlink:href="#mcd41c4a4e1" x="47.800938" y="127.866925" style="fill: #1f2933; stroke: #1f2933; stroke-width: 0.6"/>
      </g>
     </g>
    </g>
    <g id="ytick_31">
     <g id="line2d_33">
      <g>
       <use xlink:href="#mcd41c4a4e1" x="47.800938" y="122.107867" style="fill: #1f2933; stroke: #1f2933; stroke-width: 0.6"/>
      </g>
     </g>
    </g>
    <g id="ytick_32">
     <g id="line2d_34">
      <g>
       <use xlink:href="#mcd41c4a4e1" x="47.800938" y="118.02175" style="fill: #1f2933; stroke: #1f2933; stroke-width: 0.6"/>
      </g>
     </g>
    </g>
    <g id="ytick_33">
     <g id="line2d_35">
      <g>
       <use xlink:href="#mcd41c4a4e1" x="47.800938" y="114.852312" style="fill: #1f2933; stroke: #1f2933; stroke-width: 0.6"/>
      </g>
     </g>
    </g>
    <g id="ytick_34">
     <g id="line2d_36">
      <g>
       <use xlink:href="#mcd41c4a4e1" x="47.800938" y="112.262692" style="fill: #1f2933; stroke: #1f2933; stroke-width: 0.6"/>
      </g>
     </g>
    </g>
    <g id="ytick_35">
     <g id="line2d_37">
      <g>
       <use xlink:href="#mcd41c4a4e1" x="47.800938" y="110.073199" style="fill: #1f2933; stroke: #1f2933; stroke-width: 0.6"/>
      </g>
     </g>
    </g>
    <g id="ytick_36">
     <g id="line2d_38">
      <g>
       <use xlink:href="#mcd41c4a4e1" x="47.800938" y="108.176575" style="fill: #1f2933; stroke: #1f2933; stroke-width: 0.6"/>
      </g>
     </g>
    </g>
    <g id="ytick_37">
     <g id="line2d_39">
      <g>
       <use xlink:href="#mcd41c4a4e1" x="47.800938" y="106.503633" style="fill: #1f2933; stroke: #1f2933; stroke-width: 0.6"/>
      </g>
     </g>
    </g>
    <g id="ytick_38">
     <g id="line2d_40">
      <g>
       <use xlink:href="#mcd41c4a4e1" x="47.800938" y="95.161961" style="fill: #1f2933; stroke: #1f2933; stroke-width: 0.6"/>
      </g>
     </g>
    </g>
    <g id="ytick_39">
     <g id="line2d_41">
      <g>
       <use xlink:href="#mcd41c4a4e1" x="47.800938" y="89.402903" style="fill: #1f2933; stroke: #1f2933; stroke-width: 0.6"/>
      </g>
     </g>
    </g>
    <g id="ytick_40">
     <g id="line2d_42">
      <g>
       <use xlink:href="#mcd41c4a4e1" x="47.800938" y="85.316786" style="fill: #1f2933; stroke: #1f2933; stroke-width: 0.6"/>
      </g>
     </g>
    </g>
    <g id="ytick_41">
     <g id="line2d_43">
      <g>
       <use xlink:href="#mcd41c4a4e1" x="47.800938" y="82.147347" style="fill: #1f2933; stroke: #1f2933; stroke-width: 0.6"/>
      </g>
     </g>
    </g>
    <g id="ytick_42">
     <g id="line2d_44">
      <g>
       <use xlink:href="#mcd41c4a4e1" x="47.800938" y="79.557727" style="fill: #1f2933; stroke: #1f2933; stroke-width: 0.6"/>
      </g>
     </g>
    </g>
    <g id="ytick_43">
     <g id="line2d_45">
      <g>
       <use xlink:href="#mcd41c4a4e1" x="47.800938" y="77.368235" style="fill: #1f2933; stroke: #1f2933; stroke-width: 0.6"/>
      </g>
     </g>
    </g>
    <g id="ytick_44">
     <g id="line2d_46">
      <g>
       <use xlink:href="#mcd41c4a4e1" x="47.800938" y="75.471611" style="fill: #1f2933; stroke: #1f2933; stroke-width: 0.6"/>
      </g>
     </g>
    </g>
    <g id="ytick_45">
     <g id="line2d_47">
      <g>
       <use xlink:href="#mcd41c4a4e1" x="47.800938" y="73.798669" style="fill: #1f2933; stroke: #1f2933; stroke-width: 0.6"/>
      </g>
     </g>
    </g>
    <g id="ytick_46">
     <g id="line2d_48">
      <g>
       <use xlink:href="#mcd41c4a4e1" x="47.800938" y="62.456997" style="fill: #1f2933; stroke: #1f2933; stroke-width: 0.6"/>
      </g>
     </g>
    </g>
    <g id="text_8">
     <!-- Visits -->
     <g style="fill: #1f2933" transform="translate(16.318125 161.709375) rotate(-90) scale(0.12 -0.12)">
      <defs>
       <path id="DejaVuSans-39" d="M 1831 0 
L 50 4666 
L 709 4666 
L 2188 738 
L 3669 4666 
L 4325 4666 
L 2547 0 
L 1831 0 
z
" transform="scale(0.015625)"/>
       <path id="DejaVuSans-4c" d="M 603 3500 
L 1178 3500 
L 1178 0 
L 603 0 
L 603 3500 
z
M 603 4863 
L 1178 4863 
L 1178 4134 
L 603 4134 
L 603 4863 
z
" transform="scale(0.015625)"/>
       <path id="DejaVuSans-57" d="M 1172 4494 
L 1172 3500 
L 2356 3500 
L 2356 3053 
L 1172 3053 
L 1172 1153 
Q 1172 725 1289 603 
Q 1406 481 1766 481 
L 2356 481 
L 2356 0 
L 1766 0 
Q 1100 0 847 248 
Q 594 497 594 1153 
L 594 3053 
L 172 3053 
L 172 3500 
L 594 3500 
L 594 4494 
L 1172 4494 
z
" transform="scale(0.015625)"/>
      </defs>
      <use xlink:href="#DejaVuSans-39"/>
      <use xlink:href="#DejaVuSans-4c" transform="translate(66.203125 0)"/>
      <use xlink:href="#DejaVuSans-56" transform="translate(93.984375 0)"/>
      <use xlink:href="#DejaVuSans-4c" transform="translate(146.078125 0)"/>
      <use xlink:href="#DejaVuSans-57" transform="translate(173.859375 0)"/>
      <use xlink:href="#DejaVuSans-56" transform="translate(213.0625 0)"/>
     </g>
    </g>
   </g>
   <g id="patch_5">
    <path d="M 47.800938 234 
L 47.800938 57.6 
" style="fill: none; stroke: #b7c3cf; stroke-width: 0.8; stroke-linejoin: miter; stroke-linecap: square"/>
   </g>
   <g id="patch_6">
    <path d="M 402.891847 234 
L 402.891847 57.6 
" style="fill: none; stroke: #b7c3cf; stroke-width: 0.8; stroke-linejoin: miter; stroke-linecap: square"/>
   </g>
   <g id="patch_7">
    <path d="M 47.800938 234 
L 402.891847 234 
" style="fill: none; stroke: #b7c3cf; stroke-width: 0.8; stroke-linejoin: miter; stroke-linecap: square"/>
   </g>
   <g id="patch_8">
    <path d="M 47.800938 57.6 
L 402.891847 57.6 
" style="fill: none; stroke: #b7c3cf; stroke-width: 0.8; stroke-linejoin: miter; stroke-linecap: square"/>
   </g>
   <g id="text_9">
    <!-- Parse outcomes, log scale -->
    <g style="fill: #1f2933" transform="translate(93.285455 51.6) scale(0.18 -0.18)">
     <defs>
      <path id="DejaVuSans-Bold-33" d="M 588 4666 
L 2584 4666 
Q 3475 4666 3951 4270 
Q 4428 3875 4428 3144 
Q 4428 2409 3951 2014 
Q 3475 1619 2584 1619 
L 1791 1619 
L 1791 0 
L 588 0 
L 588 4666 
z
M 1791 3794 
L 1791 2491 
L 2456 2491 
Q 2806 2491 2997 2661 
Q 3188 2831 3188 3144 
Q 3188 3456 2997 3625 
Q 2806 3794 2456 3794 
L 1791 3794 
z
" transform="scale(0.015625)"/>
      <path id="DejaVuSans-Bold-44" d="M 2106 1575 
Q 1756 1575 1579 1456 
Q 1403 1338 1403 1106 
Q 1403 894 1545 773 
Q 1688 653 1941 653 
Q 2256 653 2472 879 
Q 2688 1106 2688 1447 
L 2688 1575 
L 2106 1575 
z
M 3816 1997 
L 3816 0 
L 2688 0 
L 2688 519 
Q 2463 200 2181 54 
Q 1900 -91 1497 -91 
Q 953 -91 614 226 
Q 275 544 275 1050 
Q 275 1666 698 1953 
Q 1122 2241 2028 2241 
L 2688 2241 
L 2688 2328 
Q 2688 2594 2478 2717 
Q 2269 2841 1825 2841 
Q 1466 2841 1156 2769 
Q 847 2697 581 2553 
L 581 3406 
Q 941 3494 1303 3539 
Q 1666 3584 2028 3584 
Q 2975 3584 3395 3211 
Q 3816 2838 3816 1997 
z
" transform="scale(0.015625)"/>
      <path id="DejaVuSans-Bold-55" d="M 3138 2547 
Q 2991 2616 2845 2648 
Q 2700 2681 2553 2681 
Q 2122 2681 1889 2404 
Q 1656 2128 1656 1613 
L 1656 0 
L 538 0 
L 538 3500 
L 1656 3500 
L 1656 2925 
Q 1872 3269 2151 3426 
Q 2431 3584 2822 3584 
Q 2878 3584 2943 3579 
Q 3009 3575 3134 3559 
L 3138 2547 
z
" transform="scale(0.015625)"/>
      <path id="DejaVuSans-Bold-56" d="M 3272 3391 
L 3272 2541 
Q 2913 2691 2578 2766 
Q 2244 2841 1947 2841 
Q 1628 2841 1473 2761 
Q 1319 2681 1319 2516 
Q 1319 2381 1436 2309 
Q 1553 2238 1856 2203 
L 2053 2175 
Q 2913 2066 3209 1816 
Q 3506 1566 3506 1031 
Q 3506 472 3093 190 
Q 2681 -91 1863 -91 
Q 1516 -91 1145 -36 
Q 775 19 384 128 
L 384 978 
Q 719 816 1070 734 
Q 1422 653 1784 653 
Q 2113 653 2278 743 
Q 2444 834 2444 1013 
Q 2444 1163 2330 1236 
Q 2216 1309 1875 1350 
L 1678 1375 
Q 931 1469 631 1722 
Q 331 1975 331 2491 
Q 331 3047 712 3315 
Q 1094 3584 1881 3584 
Q 2191 3584 2531 3537 
Q 2872 3491 3272 3391 
z
" transform="scale(0.015625)"/>
      <path id="DejaVuSans-Bold-48" d="M 4031 1759 
L 4031 1441 
L 1416 1441 
Q 1456 1047 1700 850 
Q 1944 653 2381 653 
Q 2734 653 3104 758 
Q 3475 863 3866 1075 
L 3866 213 
Q 3469 63 3072 -14 
Q 2675 -91 2278 -91 
Q 1328 -91 801 392 
Q 275 875 275 1747 
Q 275 2603 792 3093 
Q 1309 3584 2216 3584 
Q 3041 3584 3536 3087 
Q 4031 2591 4031 1759 
z
M 2881 2131 
Q 2881 2450 2695 2645 
Q 2509 2841 2209 2841 
Q 1884 2841 1681 2658 
Q 1478 2475 1428 2131 
L 2881 2131 
z
" transform="scale(0.015625)"/>
      <path id="DejaVuSans-Bold-3" transform="scale(0.015625)"/>
      <path id="DejaVuSans-Bold-52" d="M 2203 2784 
Q 1831 2784 1636 2517 
Q 1441 2250 1441 1747 
Q 1441 1244 1636 976 
Q 1831 709 2203 709 
Q 2569 709 2762 976 
Q 2956 1244 2956 1747 
Q 2956 2250 2762 2517 
Q 2569 2784 2203 2784 
z
M 2203 3584 
Q 3106 3584 3614 3096 
Q 4122 2609 4122 1747 
Q 4122 884 3614 396 
Q 3106 -91 2203 -91 
Q 1297 -91 786 396 
Q 275 884 275 1747 
Q 275 2609 786 3096 
Q 1297 3584 2203 3584 
z
" transform="scale(0.015625)"/>
      <path id="DejaVuSans-Bold-58" d="M 500 1363 
L 500 3500 
L 1625 3500 
L 1625 3150 
Q 1625 2866 1622 2436 
Q 1619 2006 1619 1863 
Q 1619 1441 1641 1255 
Q 1663 1069 1716 984 
Q 1784 875 1895 815 
Q 2006 756 2150 756 
Q 2500 756 2700 1025 
Q 2900 1294 2900 1772 
L 2900 3500 
L 4019 3500 
L 4019 0 
L 2900 0 
L 2900 506 
Q 2647 200 2364 54 
Q 2081 -91 1741 -91 
Q 1134 -91 817 281 
Q 500 653 500 1363 
z
" transform="scale(0.015625)"/>
      <path id="DejaVuSans-Bold-57" d="M 1759 4494 
L 1759 3500 
L 2913 3500 
L 2913 2700 
L 1759 2700 
L 1759 1216 
Q 1759 972 1856 886 
Q 1953 800 2241 800 
L 2816 800 
L 2816 0 
L 1856 0 
Q 1194 0 917 276 
Q 641 553 641 1216 
L 641 2700 
L 84 2700 
L 84 3500 
L 641 3500 
L 641 4494 
L 1759 4494 
z
" transform="scale(0.015625)"/>
      <path id="DejaVuSans-Bold-46" d="M 3366 3391 
L 3366 2478 
Q 3138 2634 2908 2709 
Q 2678 2784 2431 2784 
Q 1963 2784 1702 2511 
Q 1441 2238 1441 1747 
Q 1441 1256 1702 982 
Q 1963 709 2431 709 
Q 2694 709 2930 787 
Q 3166 866 3366 1019 
L 3366 103 
Q 3103 6 2833 -42 
Q 2563 -91 2291 -91 
Q 1344 -91 809 395 
Q 275 881 275 1747 
Q 275 2613 809 3098 
Q 1344 3584 2291 3584 
Q 2566 3584 2833 3536 
Q 3100 3488 3366 3391 
z
" transform="scale(0.015625)"/>
      <path id="DejaVuSans-Bold-50" d="M 3781 2919 
Q 3994 3244 4286 3414 
Q 4578 3584 4928 3584 
Q 5531 3584 5847 3212 
Q 6163 2841 6163 2131 
L 6163 0 
L 5038 0 
L 5038 1825 
Q 5041 1866 5042 1909 
Q 5044 1953 5044 2034 
Q 5044 2406 4934 2573 
Q 4825 2741 4581 2741 
Q 4263 2741 4089 2478 
Q 3916 2216 3909 1719 
L 3909 0 
L 2784 0 
L 2784 1825 
Q 2784 2406 2684 2573 
Q 2584 2741 2328 2741 
Q 2006 2741 1831 2477 
Q 1656 2213 1656 1722 
L 1656 0 
L 531 0 
L 531 3500 
L 1656 3500 
L 1656 2988 
Q 1863 3284 2130 3434 
Q 2397 3584 2719 3584 
Q 3081 3584 3359 3409 
Q 3638 3234 3781 2919 
z
" transform="scale(0.015625)"/>
      <path id="DejaVuSans-Bold-f" d="M 653 1209 
L 1778 1209 
L 1778 256 
L 1006 -909 
L 341 -909 
L 653 256 
L 653 1209 
z
" transform="scale(0.015625)"/>
      <path id="DejaVuSans-Bold-4f" d="M 538 4863 
L 1656 4863 
L 1656 0 
L 538 0 
L 538 4863 
z
" transform="scale(0.015625)"/>
      <path id="DejaVuSans-Bold-4a" d="M 2919 594 
Q 2688 288 2409 144 
Q 2131 0 1766 0 
Q 1125 0 706 504 
Q 288 1009 288 1791 
Q 288 2575 706 3076 
Q 1125 3578 1766 3578 
Q 2131 3578 2409 3434 
Q 2688 3291 2919 2981 
L 2919 3500 
L 4044 3500 
L 4044 353 
Q 4044 -491 3511 -936 
Q 2978 -1381 1966 -1381 
Q 1638 -1381 1331 -1331 
Q 1025 -1281 716 -1178 
L 716 -306 
Q 1009 -475 1290 -558 
Q 1572 -641 1856 -641 
Q 2406 -641 2662 -400 
Q 2919 -159 2919 353 
L 2919 594 
z
M 2181 2772 
Q 1834 2772 1640 2515 
Q 1447 2259 1447 1791 
Q 1447 1309 1634 1061 
Q 1822 813 2181 813 
Q 2531 813 2725 1069 
Q 2919 1325 2919 1791 
Q 2919 2259 2725 2515 
Q 2531 2772 2181 2772 
z
" transform="scale(0.015625)"/>
     </defs>
     <use xlink:href="#DejaVuSans-Bold-33"/>
     <use xlink:href="#DejaVuSans-Bold-44" transform="translate(70.609375 0)"/>
     <use xlink:href="#DejaVuSans-Bold-55" transform="translate(138.09375 0)"/>
     <use xlink:href="#DejaVuSans-Bold-56" transform="translate(187.40625 0)"/>
     <use xlink:href="#DejaVuSans-Bold-48" transform="translate(246.921875 0)"/>
     <use xlink:href="#DejaVuSans-Bold-3" transform="translate(314.75 0)"/>
     <use xlink:href="#DejaVuSans-Bold-52" transform="translate(349.5625 0)"/>
     <use xlink:href="#DejaVuSans-Bold-58" transform="translate(418.265625 0)"/>
     <use xlink:href="#DejaVuSans-Bold-57" transform="translate(489.453125 0)"/>
     <use xlink:href="#DejaVuSans-Bold-46" transform="translate(537.25 0)"/>
     <use xlink:href="#DejaVuSans-Bold-52" transform="translate(596.53125 0)"/>
     <use xlink:href="#DejaVuSans-Bold-50" transform="translate(665.234375 0)"/>
     <use xlink:href="#DejaVuSans-Bold-48" transform="translate(769.4375 0)"/>
     <use xlink:href="#DejaVuSans-Bold-56" transform="translate(837.265625 0)"/>
     <use xlink:href="#DejaVuSans-Bold-f" transform="translate(896.78125 0)"/>
     <use xlink:href="#DejaVuSans-Bold-3" transform="translate(934.765625 0)"/>
     <use xlink:href="#DejaVuSans-Bold-4f" transform="translate(969.578125 0)"/>
     <use xlink:href="#DejaVuSans-Bold-52" transform="translate(1003.859375 0)"/>
     <use xlink:href="#DejaVuSans-Bold-4a" transform="translate(1072.5625 0)"/>
     <use xlink:href="#DejaVuSans-Bold-3" transform="translate(1144.140625 0)"/>
     <use xlink:href="#DejaVuSans-Bold-56" transform="translate(1178.953125 0)"/>
     <use xlink:href="#DejaVuSans-Bold-46" transform="translate(1238.46875 0)"/>
     <use xlink:href="#DejaVuSans-Bold-44" transform="translate(1297.75 0)"/>
     <use xlink:href="#DejaVuSans-Bold-4f" transform="translate(1365.234375 0)"/>
     <use xlink:href="#DejaVuSans-Bold-48" transform="translate(1399.515625 0)"/>
    </g>
   </g>
  </g>
  <g id="axes_2">
   <g id="patch_9">
    <path d="M 473.910028 234 
L 829.000937 234 
L 829.000937 57.6 
L 473.910028 57.6 
z
" style="fill: #ffffff"/>
   </g>
   <g id="matplotlib.axis_3">
    <g id="xtick_3">
     <g id="line2d_49">
      <g>
       <use xlink:href="#m79f2a528b8" x="533.091847" y="234" style="fill: #1f2933; stroke: #1f2933; stroke-width: 0.8"/>
      </g>
     </g>
     <g id="text_10">
      <!-- Input -->
      <g style="fill: #1f2933" transform="translate(520.144972 248.597656) scale(0.1 -0.1)">
       <defs>
        <path id="DejaVuSans-2c" d="M 628 4666 
L 1259 4666 
L 1259 0 
L 628 0 
L 628 4666 
z
" transform="scale(0.015625)"/>
        <path id="DejaVuSans-51" d="M 3513 2113 
L 3513 0 
L 2938 0 
L 2938 2094 
Q 2938 2591 2744 2837 
Q 2550 3084 2163 3084 
Q 1697 3084 1428 2787 
Q 1159 2491 1159 1978 
L 1159 0 
L 581 0 
L 581 3500 
L 1159 3500 
L 1159 2956 
Q 1366 3272 1645 3428 
Q 1925 3584 2291 3584 
Q 2894 3584 3203 3211 
Q 3513 2838 3513 2113 
z
" transform="scale(0.015625)"/>
        <path id="DejaVuSans-53" d="M 1159 525 
L 1159 -1331 
L 581 -1331 
L 581 3500 
L 1159 3500 
L 1159 2969 
Q 1341 3281 1617 3432 
Q 1894 3584 2278 3584 
Q 2916 3584 3314 3078 
Q 3713 2572 3713 1747 
Q 3713 922 3314 415 
Q 2916 -91 2278 -91 
Q 1894 -91 1617 61 
Q 1341 213 1159 525 
z
M 3116 1747 
Q 3116 2381 2855 2742 
Q 2594 3103 2138 3103 
Q 1681 3103 1420 2742 
Q 1159 2381 1159 1747 
Q 1159 1113 1420 752 
Q 1681 391 2138 391 
Q 2594 391 2855 752 
Q 3116 1113 3116 1747 
z
" transform="scale(0.015625)"/>
       </defs>
       <use xlink:href="#DejaVuSans-2c"/>
       <use xlink:href="#DejaVuSans-51" transform="translate(29.5 0)"/>
       <use xlink:href="#DejaVuSans-53" transform="translate(92.875 0)"/>
       <use xlink:href="#DejaVuSans-58" transform="translate(156.359375 0)"/>
       <use xlink:href="#DejaVuSans-57" transform="translate(219.734375 0)"/>
      </g>
     </g>
    </g>
    <g id="xtick_4">
     <g id="line2d_50">
      <g>
       <use xlink:href="#m79f2a528b8" x="651.455483" y="234" style="fill: #1f2933; stroke: #1f2933; stroke-width: 0.8"/>
      </g>
     </g>
     <g id="text_11">
      <!-- Output -->
      <g style="fill: #1f2933" transform="translate(634.087514 248.597656) scale(0.1 -0.1)">
       <defs>
        <path id="DejaVuSans-32" d="M 2522 4238 
Q 1834 4238 1429 3725 
Q 1025 3213 1025 2328 
Q 1025 1447 1429 934 
Q 1834 422 2522 422 
Q 3209 422 3611 934 
Q 4013 1447 4013 2328 
Q 4013 3213 3611 3725 
Q 3209 4238 2522 4238 
z
M 2522 4750 
Q 3503 4750 4090 4092 
Q 4678 3434 4678 2328 
Q 4678 1225 4090 567 
Q 3503 -91 2522 -91 
Q 1538 -91 948 565 
Q 359 1222 359 2328 
Q 359 3434 948 4092 
Q 1538 4750 2522 4750 
z
" transform="scale(0.015625)"/>
       </defs>
       <use xlink:href="#DejaVuSans-32"/>
       <use xlink:href="#DejaVuSans-58" transform="translate(78.71875 0)"/>
       <use xlink:href="#DejaVuSans-57" transform="translate(142.09375 0)"/>
       <use xlink:href="#DejaVuSans-53" transform="translate(181.296875 0)"/>
       <use xlink:href="#DejaVuSans-58" transform="translate(244.78125 0)"/>
       <use xlink:href="#DejaVuSans-57" transform="translate(308.15625 0)"/>
      </g>
     </g>
    </g>
    <g id="xtick_5">
     <g id="line2d_51">
      <g>
       <use xlink:href="#m79f2a528b8" x="769.819119" y="234" style="fill: #1f2933; stroke: #1f2933; stroke-width: 0.8"/>
      </g>
     </g>
     <g id="text_12">
      <!-- Total -->
      <g style="fill: #1f2933" transform="translate(758.141776 248.598437) scale(0.1 -0.1)">
       <defs>
        <path id="DejaVuSans-37" d="M -19 4666 
L 3928 4666 
L 3928 4134 
L 2272 4134 
L 2272 0 
L 1638 0 
L 1638 4134 
L -19 4134 
L -19 4666 
z
" transform="scale(0.015625)"/>
        <path id="DejaVuSans-44" d="M 2194 1759 
Q 1497 1759 1228 1600 
Q 959 1441 959 1056 
Q 959 750 1161 570 
Q 1363 391 1709 391 
Q 2188 391 2477 730 
Q 2766 1069 2766 1631 
L 2766 1759 
L 2194 1759 
z
M 3341 1997 
L 3341 0 
L 2766 0 
L 2766 531 
Q 2569 213 2275 61 
Q 1981 -91 1556 -91 
Q 1019 -91 701 211 
Q 384 513 384 1019 
Q 384 1609 779 1909 
Q 1175 2209 1959 2209 
L 2766 2209 
L 2766 2266 
Q 2766 2663 2505 2880 
Q 2244 3097 1772 3097 
Q 1472 3097 1187 3025 
Q 903 2953 641 2809 
L 641 3341 
Q 956 3463 1253 3523 
Q 1550 3584 1831 3584 
Q 2591 3584 2966 3190 
Q 3341 2797 3341 1997 
z
" transform="scale(0.015625)"/>
        <path id="DejaVuSans-4f" d="M 603 4863 
L 1178 4863 
L 1178 0 
L 603 0 
L 603 4863 
z
" transform="scale(0.015625)"/>
       </defs>
       <use xlink:href="#DejaVuSans-37"/>
       <use xlink:href="#DejaVuSans-52" transform="translate(44.09375 0)"/>
       <use xlink:href="#DejaVuSans-57" transform="translate(105.28125 0)"/>
       <use xlink:href="#DejaVuSans-44" transform="translate(144.484375 0)"/>
       <use xlink:href="#DejaVuSans-4f" transform="translate(205.765625 0)"/>
      </g>
     </g>
    </g>
   </g>
   <g id="matplotlib.axis_4">
    <g id="ytick_47">
     <g id="line2d_52">
      <g>
       <use xlink:href="#ma216cd5810" x="473.910028" y="197.480744" style="fill: #1f2933; stroke: #1f2933; stroke-width: 0.8"/>
      </g>
     </g>
     <g id="text_13">
      <!-- 2000 -->
      <g style="fill: #1f2933" transform="translate(441.460028 201.279573) scale(0.1 -0.1)">
       <use xlink:href="#DejaVuSans-15"/>
       <use xlink:href="#DejaVuSans-13" transform="translate(63.625 0)"/>
       <use xlink:href="#DejaVuSans-13" transform="translate(127.25 0)"/>
       <use xlink:href="#DejaVuSans-13" transform="translate(190.875 0)"/>
      </g>
     </g>
    </g>
    <g id="ytick_48">
     <g id="line2d_53">
      <g>
       <use xlink:href="#ma216cd5810" x="473.910028" y="157.394846" style="fill: #1f2933; stroke: #1f2933; stroke-width: 0.8"/>
      </g>
     </g>
     <g id="text_14">
      <!-- 4000 -->
      <g style="fill: #1f2933" transform="translate(441.460028 161.193674) scale(0.1 -0.1)">
       <use xlink:href="#DejaVuSans-17"/>
       <use xlink:href="#DejaVuSans-13" transform="translate(63.625 0)"/>
       <use xlink:href="#DejaVuSans-13" transform="translate(127.25 0)"/>
       <use xlink:href="#DejaVuSans-13" transform="translate(190.875 0)"/>
      </g>
     </g>
    </g>
    <g id="ytick_49">
     <g id="line2d_54">
      <g>
       <use xlink:href="#ma216cd5810" x="473.910028" y="117.308948" style="fill: #1f2933; stroke: #1f2933; stroke-width: 0.8"/>
      </g>
     </g>
     <g id="text_15">
      <!-- 6000 -->
      <g style="fill: #1f2933" transform="translate(441.460028 121.107776) scale(0.1 -0.1)">
       <defs>
        <path id="DejaVuSans-19" d="M 2113 2584 
Q 1688 2584 1439 2293 
Q 1191 2003 1191 1497 
Q 1191 994 1439 701 
Q 1688 409 2113 409 
Q 2538 409 2786 701 
Q 3034 994 3034 1497 
Q 3034 2003 2786 2293 
Q 2538 2584 2113 2584 
z
M 3366 4563 
L 3366 3988 
Q 3128 4100 2886 4159 
Q 2644 4219 2406 4219 
Q 1781 4219 1451 3797 
Q 1122 3375 1075 2522 
Q 1259 2794 1537 2939 
Q 1816 3084 2150 3084 
Q 2853 3084 3261 2657 
Q 3669 2231 3669 1497 
Q 3669 778 3244 343 
Q 2819 -91 2113 -91 
Q 1303 -91 875 529 
Q 447 1150 447 2328 
Q 447 3434 972 4092 
Q 1497 4750 2381 4750 
Q 2619 4750 2861 4703 
Q 3103 4656 3366 4563 
z
" transform="scale(0.015625)"/>
       </defs>
       <use xlink:href="#DejaVuSans-19"/>
       <use xlink:href="#DejaVuSans-13" transform="translate(63.625 0)"/>
       <use xlink:href="#DejaVuSans-13" transform="translate(127.25 0)"/>
       <use xlink:href="#DejaVuSans-13" transform="translate(190.875 0)"/>
      </g>
     </g>
    </g>
    <g id="ytick_50">
     <g id="line2d_55">
      <g>
       <use xlink:href="#ma216cd5810" x="473.910028" y="77.223049" style="fill: #1f2933; stroke: #1f2933; stroke-width: 0.8"/>
      </g>
     </g>
     <g id="text_16">
      <!-- 8000 -->
      <g style="fill: #1f2933" transform="translate(441.460028 81.021878) scale(0.1 -0.1)">
       <defs>
        <path id="DejaVuSans-1b" d="M 2034 2216 
Q 1584 2216 1326 1975 
Q 1069 1734 1069 1313 
Q 1069 891 1326 650 
Q 1584 409 2034 409 
Q 2484 409 2743 651 
Q 3003 894 3003 1313 
Q 3003 1734 2745 1975 
Q 2488 2216 2034 2216 
z
M 1403 2484 
Q 997 2584 770 2862 
Q 544 3141 544 3541 
Q 544 4100 942 4425 
Q 1341 4750 2034 4750 
Q 2731 4750 3128 4425 
Q 3525 4100 3525 3541 
Q 3525 3141 3298 2862 
Q 3072 2584 2669 2484 
Q 3125 2378 3379 2068 
Q 3634 1759 3634 1313 
Q 3634 634 3220 271 
Q 2806 -91 2034 -91 
Q 1263 -91 848 271 
Q 434 634 434 1313 
Q 434 1759 690 2068 
Q 947 2378 1403 2484 
z
M 1172 3481 
Q 1172 3119 1398 2916 
Q 1625 2713 2034 2713 
Q 2441 2713 2670 2916 
Q 2900 3119 2900 3481 
Q 2900 3844 2670 4047 
Q 2441 4250 2034 4250 
Q 1625 4250 1398 4047 
Q 1172 3844 1172 3481 
z
" transform="scale(0.015625)"/>
       </defs>
       <use xlink:href="#DejaVuSans-1b"/>
       <use xlink:href="#DejaVuSans-13" transform="translate(63.625 0)"/>
       <use xlink:href="#DejaVuSans-13" transform="translate(127.25 0)"/>
       <use xlink:href="#DejaVuSans-13" transform="translate(190.875 0)"/>
      </g>
     </g>
    </g>
    <g id="text_17">
     <!-- Tokens -->
     <g style="fill: #1f2933" transform="translate(434.577216 165.9975) rotate(-90) scale(0.12 -0.12)">
      <defs>
       <path id="DejaVuSans-4e" d="M 581 4863 
L 1159 4863 
L 1159 1991 
L 2875 3500 
L 3609 3500 
L 1753 1863 
L 3688 0 
L 2938 0 
L 1159 1709 
L 1159 0 
L 581 0 
L 581 4863 
z
" transform="scale(0.015625)"/>
      </defs>
      <use xlink:href="#DejaVuSans-37"/>
      <use xlink:href="#DejaVuSans-52" transform="translate(44.09375 0)"/>
      <use xlink:href="#DejaVuSans-4e" transform="translate(105.28125 0)"/>
      <use xlink:href="#DejaVuSans-48" transform="translate(159.625 0)"/>
      <use xlink:href="#DejaVuSans-51" transform="translate(221.15625 0)"/>
      <use xlink:href="#DejaVuSans-56" transform="translate(284.53125 0)"/>
     </g>
    </g>
   </g>
   <g id="line2d_56">
    <path d="M 515.337301 155.590981 
L 550.846392 155.590981 
L 550.846392 125.807158 
L 515.337301 125.807158 
L 515.337301 155.590981 
" clip-path="url(#pf892ca98f9)" style="fill: none; stroke: #000000; stroke-linecap: square"/>
   </g>
   <g id="line2d_57">
    <path d="M 533.091847 155.590981 
L 533.091847 200.026199 
" clip-path="url(#pf892ca98f9)" style="fill: none; stroke: #000000; stroke-linecap: square"/>
   </g>
   <g id="line2d_58">
    <path d="M 533.091847 125.807158 
L 533.091847 81.131424 
" clip-path="url(#pf892ca98f9)" style="fill: none; stroke: #000000; stroke-linecap: square"/>
   </g>
   <g id="line2d_59">
    <path d="M 524.214574 200.026199 
L 541.969119 200.026199 
" clip-path="url(#pf892ca98f9)" style="fill: none; stroke: #000000; stroke-linecap: square"/>
   </g>
   <g id="line2d_60">
    <path d="M 524.214574 81.131424 
L 541.969119 81.131424 
" clip-path="url(#pf892ca98f9)" style="fill: none; stroke: #000000; stroke-linecap: square"/>
   </g>
   <g id="line2d_61">
    <path d="M 633.700938 223.737008 
L 669.210028 223.737008 
L 669.210028 222.233787 
L 633.700938 222.233787 
L 633.700938 223.737008 
" clip-path="url(#pf892ca98f9)" style="fill: none; stroke: #000000; stroke-linecap: square"/>
   </g>
   <g id="line2d_62">
    <path d="M 651.455483 223.737008 
L 651.455483 225.981818 
" clip-path="url(#pf892ca98f9)" style="fill: none; stroke: #000000; stroke-linecap: square"/>
   </g>
   <g id="line2d_63">
    <path d="M 651.455483 222.233787 
L 651.455483 219.988976 
" clip-path="url(#pf892ca98f9)" style="fill: none; stroke: #000000; stroke-linecap: square"/>
   </g>
   <g id="line2d_64">
    <path d="M 642.57821 225.981818 
L 660.332756 225.981818 
" clip-path="url(#pf892ca98f9)" style="fill: none; stroke: #000000; stroke-linecap: square"/>
   </g>
   <g id="line2d_65">
    <path d="M 642.57821 219.988976 
L 660.332756 219.988976 
" clip-path="url(#pf892ca98f9)" style="fill: none; stroke: #000000; stroke-linecap: square"/>
   </g>
   <g id="line2d_66">
    <path d="M 752.064574 141.220186 
L 787.573665 141.220186 
L 787.573665 110.975376 
L 752.064574 110.975376 
L 752.064574 141.220186 
" clip-path="url(#pf892ca98f9)" style="fill: none; stroke: #000000; stroke-linecap: square"/>
   </g>
   <g id="line2d_67">
    <path d="M 769.819119 141.220186 
L 769.819119 186.417037 
" clip-path="url(#pf892ca98f9)" style="fill: none; stroke: #000000; stroke-linecap: square"/>
   </g>
   <g id="line2d_68">
    <path d="M 769.819119 110.975376 
L 769.819119 65.618182 
" clip-path="url(#pf892ca98f9)" style="fill: none; stroke: #000000; stroke-linecap: square"/>
   </g>
   <g id="line2d_69">
    <path d="M 760.941847 186.417037 
L 778.696392 186.417037 
" clip-path="url(#pf892ca98f9)" style="fill: none; stroke: #000000; stroke-linecap: square"/>
   </g>
   <g id="line2d_70">
    <path d="M 760.941847 65.618182 
L 778.696392 65.618182 
" clip-path="url(#pf892ca98f9)" style="fill: none; stroke: #000000; stroke-linecap: square"/>
   </g>
   <g id="line2d_71">
    <path d="M 515.337301 141.901646 
L 550.846392 141.901646 
" clip-path="url(#pf892ca98f9)" style="fill: none; stroke: #ff7f0e"/>
   </g>
   <g id="line2d_72">
    <path d="M 633.700938 223.015462 
L 669.210028 223.015462 
" clip-path="url(#pf892ca98f9)" style="fill: none; stroke: #ff7f0e"/>
   </g>
   <g id="line2d_73">
    <path d="M 752.064574 127.290336 
L 787.573665 127.290336 
" clip-path="url(#pf892ca98f9)" style="fill: none; stroke: #ff7f0e"/>
   </g>
   <g id="patch_10">
    <path d="M 473.910028 234 
L 473.910028 57.6 
" style="fill: none; stroke: #b7c3cf; stroke-width: 0.8; stroke-linejoin: miter; stroke-linecap: square"/>
   </g>
   <g id="patch_11">
    <path d="M 829.000937 234 
L 829.000937 57.6 
" style="fill: none; stroke: #b7c3cf; stroke-width: 0.8; stroke-linejoin: miter; stroke-linecap: square"/>
   </g>
   <g id="patch_12">
    <path d="M 473.910028 234 
L 829.000937 234 
" style="fill: none; stroke: #b7c3cf; stroke-width: 0.8; stroke-linejoin: miter; stroke-linecap: square"/>
   </g>
   <g id="patch_13">
    <path d="M 473.910028 57.6 
L 829.000937 57.6 
" style="fill: none; stroke: #b7c3cf; stroke-width: 0.8; stroke-linejoin: miter; stroke-linecap: square"/>
   </g>
   <g id="text_18">
    <!-- Token usage per parsed visit -->
    <g style="fill: #1f2933" transform="translate(505.620327 51.6) scale(0.18 -0.18)">
     <defs>
      <path id="DejaVuSans-Bold-37" d="M 31 4666 
L 4331 4666 
L 4331 3756 
L 2784 3756 
L 2784 0 
L 1581 0 
L 1581 3756 
L 31 3756 
L 31 4666 
z
" transform="scale(0.015625)"/>
      <path id="DejaVuSans-Bold-4e" d="M 538 4863 
L 1656 4863 
L 1656 2216 
L 2944 3500 
L 4244 3500 
L 2534 1894 
L 4378 0 
L 3022 0 
L 1656 1459 
L 1656 0 
L 538 0 
L 538 4863 
z
" transform="scale(0.015625)"/>
      <path id="DejaVuSans-Bold-51" d="M 4056 2131 
L 4056 0 
L 2931 0 
L 2931 347 
L 2931 1631 
Q 2931 2084 2911 2256 
Q 2891 2428 2841 2509 
Q 2775 2619 2662 2680 
Q 2550 2741 2406 2741 
Q 2056 2741 1856 2470 
Q 1656 2200 1656 1722 
L 1656 0 
L 538 0 
L 538 3500 
L 1656 3500 
L 1656 2988 
Q 1909 3294 2193 3439 
Q 2478 3584 2822 3584 
Q 3428 3584 3742 3212 
Q 4056 2841 4056 2131 
z
" transform="scale(0.015625)"/>
      <path id="DejaVuSans-Bold-53" d="M 1656 506 
L 1656 -1331 
L 538 -1331 
L 538 3500 
L 1656 3500 
L 1656 2988 
Q 1888 3294 2169 3439 
Q 2450 3584 2816 3584 
Q 3463 3584 3878 3070 
Q 4294 2556 4294 1747 
Q 4294 938 3878 423 
Q 3463 -91 2816 -91 
Q 2450 -91 2169 54 
Q 1888 200 1656 506 
z
M 2400 2772 
Q 2041 2772 1848 2508 
Q 1656 2244 1656 1747 
Q 1656 1250 1848 986 
Q 2041 722 2400 722 
Q 2759 722 2948 984 
Q 3138 1247 3138 1747 
Q 3138 2247 2948 2509 
Q 2759 2772 2400 2772 
z
" transform="scale(0.015625)"/>
      <path id="DejaVuSans-Bold-47" d="M 2919 2988 
L 2919 4863 
L 4044 4863 
L 4044 0 
L 2919 0 
L 2919 506 
Q 2688 197 2409 53 
Q 2131 -91 1766 -91 
Q 1119 -91 703 423 
Q 288 938 288 1747 
Q 288 2556 703 3070 
Q 1119 3584 1766 3584 
Q 2128 3584 2408 3439 
Q 2688 3294 2919 2988 
z
M 2181 722 
Q 2541 722 2730 984 
Q 2919 1247 2919 1747 
Q 2919 2247 2730 2509 
Q 2541 2772 2181 2772 
Q 1825 2772 1636 2509 
Q 1447 2247 1447 1747 
Q 1447 1247 1636 984 
Q 1825 722 2181 722 
z
" transform="scale(0.015625)"/>
      <path id="DejaVuSans-Bold-59" d="M 97 3500 
L 1216 3500 
L 2088 1081 
L 2956 3500 
L 4078 3500 
L 2700 0 
L 1472 0 
L 97 3500 
z
" transform="scale(0.015625)"/>
      <path id="DejaVuSans-Bold-4c" d="M 538 3500 
L 1656 3500 
L 1656 0 
L 538 0 
L 538 3500 
z
M 538 4863 
L 1656 4863 
L 1656 3950 
L 538 3950 
L 538 4863 
z
" transform="scale(0.015625)"/>
     </defs>
     <use xlink:href="#DejaVuSans-Bold-37"/>
     <use xlink:href="#DejaVuSans-Bold-52" transform="translate(54.9375 0)"/>
     <use xlink:href="#DejaVuSans-Bold-4e" transform="translate(123.640625 0)"/>
     <use xlink:href="#DejaVuSans-Bold-48" transform="translate(187.453125 0)"/>
     <use xlink:href="#DejaVuSans-Bold-51" transform="translate(255.28125 0)"/>
     <use xlink:href="#DejaVuSans-Bold-3" transform="translate(326.46875 0)"/>
     <use xlink:href="#DejaVuSans-Bold-58" transform="translate(361.28125 0)"/>
     <use xlink:href="#DejaVuSans-Bold-56" transform="translate(432.46875 0)"/>
     <use xlink:href="#DejaVuSans-Bold-44" transform="translate(491.984375 0)"/>
     <use xlink:href="#DejaVuSans-Bold-4a" transform="translate(559.46875 0)"/>
     <use xlink:href="#DejaVuSans-Bold-48" transform="translate(631.046875 0)"/>
     <use xlink:href="#DejaVuSans-Bold-3" transform="translate(698.875 0)"/>
     <use xlink:href="#DejaVuSans-Bold-53" transform="translate(733.6875 0)"/>
     <use xlink:href="#DejaVuSans-Bold-48" transform="translate(805.265625 0)"/>
     <use xlink:href="#DejaVuSans-Bold-55" transform="translate(873.09375 0)"/>
     <use xlink:href="#DejaVuSans-Bold-3" transform="translate(922.40625 0)"/>
     <use xlink:href="#DejaVuSans-Bold-53" transform="translate(957.21875 0)"/>
     <use xlink:href="#DejaVuSans-Bold-44" transform="translate(1028.796875 0)"/>
     <use xlink:href="#DejaVuSans-Bold-55" transform="translate(1096.28125 0)"/>
     <use xlink:href="#DejaVuSans-Bold-56" transform="translate(1145.59375 0)"/>
     <use xlink:href="#DejaVuSans-Bold-48" transform="translate(1205.109375 0)"/>
     <use xlink:href="#DejaVuSans-Bold-47" transform="translate(1272.9375 0)"/>
     <use xlink:href="#DejaVuSans-Bold-3" transform="translate(1344.515625 0)"/>
     <use xlink:href="#DejaVuSans-Bold-59" transform="translate(1379.328125 0)"/>
     <use xlink:href="#DejaVuSans-Bold-4c" transform="translate(1444.515625 0)"/>
     <use xlink:href="#DejaVuSans-Bold-56" transform="translate(1478.796875 0)"/>
     <use xlink:href="#DejaVuSans-Bold-4c" transform="translate(1538.3125 0)"/>
     <use xlink:href="#DejaVuSans-Bold-57" transform="translate(1572.59375 0)"/>
    </g>
   </g>
  </g>
  <g id="axes_3">
   <g id="patch_14">
    <path d="M 47.800938 445.68 
L 402.891847 445.68 
L 402.891847 269.28 
L 47.800938 269.28 
z
" style="fill: #ffffff"/>
   </g>
   <g id="patch_15">
    <path d="M 63.941433 445.68 
L 156.172838 445.68 
L 156.172838 445.674911 
L 63.941433 445.674911 
z
" clip-path="url(#p688dbf2071)" style="fill: #3d5a80"/>
   </g>
   <g id="patch_16">
    <path d="M 179.23069 445.68 
L 271.462095 445.68 
L 271.462095 277.68 
L 179.23069 277.68 
z
" clip-path="url(#p688dbf2071)" style="fill: #6b4e9b"/>
   </g>
   <g id="patch_17">
    <path d="M 294.519946 445.68 
L 386.751351 445.68 
L 386.751351 445.448901 
L 294.519946 445.448901 
z
" clip-path="url(#p688dbf2071)" style="fill: #b36b00"/>
   </g>
   <g id="matplotlib.axis_5">
    <g id="xtick_6">
     <g id="line2d_74">
      <g>
       <use xlink:href="#m79f2a528b8" x="110.057136" y="445.68" style="fill: #1f2933; stroke: #1f2933; stroke-width: 0.8"/>
      </g>
     </g>
     <g id="text_19">
      <!-- Elapsed hours -->
      <g style="fill: #1f2933" transform="translate(74.768855 460.278437) scale(0.1 -0.1)">
       <defs>
        <path id="DejaVuSans-47" d="M 2906 2969 
L 2906 4863 
L 3481 4863 
L 3481 0 
L 2906 0 
L 2906 525 
Q 2725 213 2448 61 
Q 2172 -91 1784 -91 
Q 1150 -91 751 415 
Q 353 922 353 1747 
Q 353 2572 751 3078 
Q 1150 3584 1784 3584 
Q 2172 3584 2448 3432 
Q 2725 3281 2906 2969 
z
M 947 1747 
Q 947 1113 1208 752 
Q 1469 391 1925 391 
Q 2381 391 2643 752 
Q 2906 1113 2906 1747 
Q 2906 2381 2643 2742 
Q 2381 3103 1925 3103 
Q 1469 3103 1208 2742 
Q 947 2381 947 1747 
z
" transform="scale(0.015625)"/>
        <path id="DejaVuSans-3" transform="scale(0.015625)"/>
        <path id="DejaVuSans-4b" d="M 3513 2113 
L 3513 0 
L 2938 0 
L 2938 2094 
Q 2938 2591 2744 2837 
Q 2550 3084 2163 3084 
Q 1697 3084 1428 2787 
Q 1159 2491 1159 1978 
L 1159 0 
L 581 0 
L 581 4863 
L 1159 4863 
L 1159 2956 
Q 1366 3272 1645 3428 
Q 1925 3584 2291 3584 
Q 2894 3584 3203 3211 
Q 3513 2838 3513 2113 
z
" transform="scale(0.015625)"/>
       </defs>
       <use xlink:href="#DejaVuSans-28"/>
       <use xlink:href="#DejaVuSans-4f" transform="translate(63.1875 0)"/>
       <use xlink:href="#DejaVuSans-44" transform="translate(90.96875 0)"/>
       <use xlink:href="#DejaVuSans-53" transform="translate(152.25 0)"/>
       <use xlink:href="#DejaVuSans-56" transform="translate(215.734375 0)"/>
       <use xlink:href="#DejaVuSans-48" transform="translate(267.828125 0)"/>
       <use xlink:href="#DejaVuSans-47" transform="translate(329.359375 0)"/>
       <use xlink:href="#DejaVuSans-3" transform="translate(392.84375 0)"/>
       <use xlink:href="#DejaVuSans-4b" transform="translate(424.625 0)"/>
       <use xlink:href="#DejaVuSans-52" transform="translate(488 0)"/>
       <use xlink:href="#DejaVuSans-58" transform="translate(549.1875 0)"/>
       <use xlink:href="#DejaVuSans-55" transform="translate(612.5625 0)"/>
       <use xlink:href="#DejaVuSans-56" transform="translate(653.671875 0)"/>
      </g>
     </g>
    </g>
    <g id="xtick_7">
     <g id="line2d_75">
      <g>
       <use xlink:href="#m79f2a528b8" x="225.346392" y="445.68" style="fill: #1f2933; stroke: #1f2933; stroke-width: 0.8"/>
      </g>
     </g>
     <g id="text_20">
      <!-- Parsed/hour -->
      <g style="fill: #1f2933" transform="translate(195.444048 460.278437) scale(0.1 -0.1)">
       <defs>
        <path id="DejaVuSans-33" d="M 1259 4147 
L 1259 2394 
L 2053 2394 
Q 2494 2394 2734 2622 
Q 2975 2850 2975 3272 
Q 2975 3691 2734 3919 
Q 2494 4147 2053 4147 
L 1259 4147 
z
M 628 4666 
L 2053 4666 
Q 2838 4666 3239 4311 
Q 3641 3956 3641 3272 
Q 3641 2581 3239 2228 
Q 2838 1875 2053 1875 
L 1259 1875 
L 1259 0 
L 628 0 
L 628 4666 
z
" transform="scale(0.015625)"/>
        <path id="DejaVuSans-12" d="M 1625 4666 
L 2156 4666 
L 531 -594 
L 0 -594 
L 1625 4666 
z
" transform="scale(0.015625)"/>
       </defs>
       <use xlink:href="#DejaVuSans-33"/>
       <use xlink:href="#DejaVuSans-44" transform="translate(55.8125 0)"/>
       <use xlink:href="#DejaVuSans-55" transform="translate(117.09375 0)"/>
       <use xlink:href="#DejaVuSans-56" transform="translate(158.203125 0)"/>
       <use xlink:href="#DejaVuSans-48" transform="translate(210.296875 0)"/>
       <use xlink:href="#DejaVuSans-47" transform="translate(271.828125 0)"/>
       <use xlink:href="#DejaVuSans-12" transform="translate(335.3125 0)"/>
       <use xlink:href="#DejaVuSans-4b" transform="translate(369 0)"/>
       <use xlink:href="#DejaVuSans-52" transform="translate(432.375 0)"/>
       <use xlink:href="#DejaVuSans-58" transform="translate(493.5625 0)"/>
       <use xlink:href="#DejaVuSans-55" transform="translate(556.9375 0)"/>
      </g>
     </g>
    </g>
    <g id="xtick_8">
     <g id="line2d_76">
      <g>
       <use xlink:href="#m79f2a528b8" x="340.635648" y="445.68" style="fill: #1f2933; stroke: #1f2933; stroke-width: 0.8"/>
      </g>
     </g>
     <g id="text_21">
      <!-- Workers -->
      <g style="fill: #1f2933" transform="translate(320.416117 460.278437) scale(0.1 -0.1)">
       <defs>
        <path id="DejaVuSans-3a" d="M 213 4666 
L 850 4666 
L 1831 722 
L 2809 4666 
L 3519 4666 
L 4500 722 
L 5478 4666 
L 6119 4666 
L 4947 0 
L 4153 0 
L 3169 4050 
L 2175 0 
L 1381 0 
L 213 4666 
z
" transform="scale(0.015625)"/>
       </defs>
       <use xlink:href="#DejaVuSans-3a"/>
       <use xlink:href="#DejaVuSans-52" transform="translate(93.015625 0)"/>
       <use xlink:href="#DejaVuSans-55" transform="translate(154.203125 0)"/>
       <use xlink:href="#DejaVuSans-4e" transform="translate(195.3125 0)"/>
       <use xlink:href="#DejaVuSans-48" transform="translate(249.65625 0)"/>
       <use xlink:href="#DejaVuSans-55" transform="translate(311.1875 0)"/>
       <use xlink:href="#DejaVuSans-56" transform="translate(352.296875 0)"/>
      </g>
     </g>
    </g>
   </g>
   <g id="matplotlib.axis_6">
    <g id="ytick_51">
     <g id="line2d_77">
      <g>
       <use xlink:href="#ma216cd5810" x="47.800938" y="445.68" style="fill: #1f2933; stroke: #1f2933; stroke-width: 0.8"/>
      </g>
     </g>
     <g id="text_22">
      <!-- 0 -->
      <g style="fill: #1f2933" transform="translate(34.438438 449.478828) scale(0.1 -0.1)">
       <use xlink:href="#DejaVuSans-13"/>
      </g>
     </g>
    </g>
    <g id="ytick_52">
     <g id="line2d_78">
      <g>
       <use xlink:href="#ma216cd5810" x="47.800938" y="422.570099" style="fill: #1f2933; stroke: #1f2933; stroke-width: 0.8"/>
      </g>
     </g>
     <g id="text_23">
      <!-- 10000 -->
      <g style="fill: #1f2933" transform="translate(8.988438 426.368927) scale(0.1 -0.1)">
       <use xlink:href="#DejaVuSans-14"/>
       <use xlink:href="#DejaVuSans-13" transform="translate(63.625 0)"/>
       <use xlink:href="#DejaVuSans-13" transform="translate(127.25 0)"/>
       <use xlink:href="#DejaVuSans-13" transform="translate(190.875 0)"/>
       <use xlink:href="#DejaVuSans-13" transform="translate(254.5 0)"/>
      </g>
     </g>
    </g>
    <g id="ytick_53">
     <g id="line2d_79">
      <g>
       <use xlink:href="#ma216cd5810" x="47.800938" y="399.460199" style="fill: #1f2933; stroke: #1f2933; stroke-width: 0.8"/>
      </g>
     </g>
     <g id="text_24">
      <!-- 20000 -->
      <g style="fill: #1f2933" transform="translate(8.988438 403.259027) scale(0.1 -0.1)">
       <use xlink:href="#DejaVuSans-15"/>
       <use xlink:href="#DejaVuSans-13" transform="translate(63.625 0)"/>
       <use xlink:href="#DejaVuSans-13" transform="translate(127.25 0)"/>
       <use xlink:href="#DejaVuSans-13" transform="translate(190.875 0)"/>
       <use xlink:href="#DejaVuSans-13" transform="translate(254.5 0)"/>
      </g>
     </g>
    </g>
    <g id="ytick_54">
     <g id="line2d_80">
      <g>
       <use xlink:href="#ma216cd5810" x="47.800938" y="376.350298" style="fill: #1f2933; stroke: #1f2933; stroke-width: 0.8"/>
      </g>
     </g>
     <g id="text_25">
      <!-- 30000 -->
      <g style="fill: #1f2933" transform="translate(8.988438 380.149126) scale(0.1 -0.1)">
       <use xlink:href="#DejaVuSans-16"/>
       <use xlink:href="#DejaVuSans-13" transform="translate(63.625 0)"/>
       <use xlink:href="#DejaVuSans-13" transform="translate(127.25 0)"/>
       <use xlink:href="#DejaVuSans-13" transform="translate(190.875 0)"/>
       <use xlink:href="#DejaVuSans-13" transform="translate(254.5 0)"/>
      </g>
     </g>
    </g>
    <g id="ytick_55">
     <g id="line2d_81">
      <g>
       <use xlink:href="#ma216cd5810" x="47.800938" y="353.240397" style="fill: #1f2933; stroke: #1f2933; stroke-width: 0.8"/>
      </g>
     </g>
     <g id="text_26">
      <!-- 40000 -->
      <g style="fill: #1f2933" transform="translate(8.988438 357.039225) scale(0.1 -0.1)">
       <use xlink:href="#DejaVuSans-17"/>
       <use xlink:href="#DejaVuSans-13" transform="translate(63.625 0)"/>
       <use xlink:href="#DejaVuSans-13" transform="translate(127.25 0)"/>
       <use xlink:href="#DejaVuSans-13" transform="translate(190.875 0)"/>
       <use xlink:href="#DejaVuSans-13" transform="translate(254.5 0)"/>
      </g>
     </g>
    </g>
    <g id="ytick_56">
     <g id="line2d_82">
      <g>
       <use xlink:href="#ma216cd5810" x="47.800938" y="330.130496" style="fill: #1f2933; stroke: #1f2933; stroke-width: 0.8"/>
      </g>
     </g>
     <g id="text_27">
      <!-- 50000 -->
      <g style="fill: #1f2933" transform="translate(8.988438 333.929325) scale(0.1 -0.1)">
       <use xlink:href="#DejaVuSans-18"/>
       <use xlink:href="#DejaVuSans-13" transform="translate(63.625 0)"/>
       <use xlink:href="#DejaVuSans-13" transform="translate(127.25 0)"/>
       <use xlink:href="#DejaVuSans-13" transform="translate(190.875 0)"/>
       <use xlink:href="#DejaVuSans-13" transform="translate(254.5 0)"/>
      </g>
     </g>
    </g>
    <g id="ytick_57">
     <g id="line2d_83">
      <g>
       <use xlink:href="#ma216cd5810" x="47.800938" y="307.020596" style="fill: #1f2933; stroke: #1f2933; stroke-width: 0.8"/>
      </g>
     </g>
     <g id="text_28">
      <!-- 60000 -->
      <g style="fill: #1f2933" transform="translate(8.988438 310.819424) scale(0.1 -0.1)">
       <use xlink:href="#DejaVuSans-19"/>
       <use xlink:href="#DejaVuSans-13" transform="translate(63.625 0)"/>
       <use xlink:href="#DejaVuSans-13" transform="translate(127.25 0)"/>
       <use xlink:href="#DejaVuSans-13" transform="translate(190.875 0)"/>
       <use xlink:href="#DejaVuSans-13" transform="translate(254.5 0)"/>
      </g>
     </g>
    </g>
    <g id="ytick_58">
     <g id="line2d_84">
      <g>
       <use xlink:href="#ma216cd5810" x="47.800938" y="283.910695" style="fill: #1f2933; stroke: #1f2933; stroke-width: 0.8"/>
      </g>
     </g>
     <g id="text_29">
      <!-- 70000 -->
      <g style="fill: #1f2933" transform="translate(8.988438 287.709523) scale(0.1 -0.1)">
       <defs>
        <path id="DejaVuSans-1a" d="M 525 4666 
L 3525 4666 
L 3525 4397 
L 1831 0 
L 1172 0 
L 2766 4134 
L 525 4134 
L 525 4666 
z
" transform="scale(0.015625)"/>
       </defs>
       <use xlink:href="#DejaVuSans-1a"/>
       <use xlink:href="#DejaVuSans-13" transform="translate(63.625 0)"/>
       <use xlink:href="#DejaVuSans-13" transform="translate(127.25 0)"/>
       <use xlink:href="#DejaVuSans-13" transform="translate(190.875 0)"/>
       <use xlink:href="#DejaVuSans-13" transform="translate(254.5 0)"/>
      </g>
     </g>
    </g>
   </g>
   <g id="patch_18">
    <path d="M 47.800938 445.68 
L 47.800938 269.28 
" style="fill: none; stroke: #b7c3cf; stroke-width: 0.8; stroke-linejoin: miter; stroke-linecap: square"/>
   </g>
   <g id="patch_19">
    <path d="M 402.891847 445.68 
L 402.891847 269.28 
" style="fill: none; stroke: #b7c3cf; stroke-width: 0.8; stroke-linejoin: miter; stroke-linecap: square"/>
   </g>
   <g id="patch_20">
    <path d="M 47.800938 445.68 
L 402.891847 445.68 
" style="fill: none; stroke: #b7c3cf; stroke-width: 0.8; stroke-linejoin: miter; stroke-linecap: square"/>
   </g>
   <g id="patch_21">
    <path d="M 47.800938 269.28 
L 402.891847 269.28 
" style="fill: none; stroke: #b7c3cf; stroke-width: 0.8; stroke-linejoin: miter; stroke-linecap: square"/>
   </g>
   <g id="text_30">
    <!-- 2.2 -->
    <g style="fill: #1f2933" transform="translate(102.105573 443.272567) scale(0.1 -0.1)">
     <defs>
      <path id="DejaVuSans-11" d="M 684 794 
L 1344 794 
L 1344 0 
L 684 0 
L 684 794 
z
" transform="scale(0.015625)"/>
     </defs>
     <use xlink:href="#DejaVuSans-15"/>
     <use xlink:href="#DejaVuSans-11" transform="translate(63.625 0)"/>
     <use xlink:href="#DejaVuSans-15" transform="translate(95.40625 0)"/>
    </g>
   </g>
   <g id="text_31">
    <!-- 72,696.1 -->
    <g style="fill: #1f2933" transform="translate(203.080767 275.277656) scale(0.1 -0.1)">
     <defs>
      <path id="DejaVuSans-f" d="M 750 794 
L 1409 794 
L 1409 256 
L 897 -744 
L 494 -744 
L 750 256 
L 750 794 
z
" transform="scale(0.015625)"/>
      <path id="DejaVuSans-1c" d="M 703 97 
L 703 672 
Q 941 559 1184 500 
Q 1428 441 1663 441 
Q 2288 441 2617 861 
Q 2947 1281 2994 2138 
Q 2813 1869 2534 1725 
Q 2256 1581 1919 1581 
Q 1219 1581 811 2004 
Q 403 2428 403 3163 
Q 403 3881 828 4315 
Q 1253 4750 1959 4750 
Q 2769 4750 3195 4129 
Q 3622 3509 3622 2328 
Q 3622 1225 3098 567 
Q 2575 -91 1691 -91 
Q 1453 -91 1209 -44 
Q 966 3 703 97 
z
M 1959 2075 
Q 2384 2075 2632 2365 
Q 2881 2656 2881 3163 
Q 2881 3666 2632 3958 
Q 2384 4250 1959 4250 
Q 1534 4250 1286 3958 
Q 1038 3666 1038 3163 
Q 1038 2656 1286 2365 
Q 1534 2075 1959 2075 
z
" transform="scale(0.015625)"/>
     </defs>
     <use xlink:href="#DejaVuSans-1a"/>
     <use xlink:href="#DejaVuSans-15" transform="translate(63.625 0)"/>
     <use xlink:href="#DejaVuSans-f" transform="translate(127.25 0)"/>
     <use xlink:href="#DejaVuSans-19" transform="translate(159.03125 0)"/>
     <use xlink:href="#DejaVuSans-1c" transform="translate(222.65625 0)"/>
     <use xlink:href="#DejaVuSans-19" transform="translate(286.28125 0)"/>
     <use xlink:href="#DejaVuSans-11" transform="translate(349.90625 0)"/>
     <use xlink:href="#DejaVuSans-14" transform="translate(381.6875 0)"/>
    </g>
   </g>
   <g id="text_32">
    <!-- 100.0 -->
    <g style="fill: #1f2933" transform="translate(326.321586 443.046557) scale(0.1 -0.1)">
     <use xlink:href="#DejaVuSans-14"/>
     <use xlink:href="#DejaVuSans-13" transform="translate(63.625 0)"/>
     <use xlink:href="#DejaVuSans-13" transform="translate(127.25 0)"/>
     <use xlink:href="#DejaVuSans-11" transform="translate(190.875 0)"/>
     <use xlink:href="#DejaVuSans-13" transform="translate(222.65625 0)"/>
    </g>
   </g>
   <g id="text_33">
    <!-- Run throughput summary -->
    <g style="fill: #1f2933" transform="translate(94.701548 263.28) scale(0.18 -0.18)">
     <defs>
      <path id="DejaVuSans-Bold-35" d="M 2297 2597 
Q 2675 2597 2839 2737 
Q 3003 2878 3003 3200 
Q 3003 3519 2839 3656 
Q 2675 3794 2297 3794 
L 1791 3794 
L 1791 2597 
L 2297 2597 
z
M 1791 1766 
L 1791 0 
L 588 0 
L 588 4666 
L 2425 4666 
Q 3347 4666 3776 4356 
Q 4206 4047 4206 3378 
Q 4206 2916 3982 2619 
Q 3759 2322 3309 2181 
Q 3556 2125 3751 1926 
Q 3947 1728 4147 1325 
L 4800 0 
L 3519 0 
L 2950 1159 
Q 2778 1509 2601 1637 
Q 2425 1766 2131 1766 
L 1791 1766 
z
" transform="scale(0.015625)"/>
      <path id="DejaVuSans-Bold-4b" d="M 4056 2131 
L 4056 0 
L 2931 0 
L 2931 347 
L 2931 1625 
Q 2931 2084 2911 2256 
Q 2891 2428 2841 2509 
Q 2775 2619 2662 2680 
Q 2550 2741 2406 2741 
Q 2056 2741 1856 2470 
Q 1656 2200 1656 1722 
L 1656 0 
L 538 0 
L 538 4863 
L 1656 4863 
L 1656 2988 
Q 1909 3294 2193 3439 
Q 2478 3584 2822 3584 
Q 3428 3584 3742 3212 
Q 4056 2841 4056 2131 
z
" transform="scale(0.015625)"/>
      <path id="DejaVuSans-Bold-5c" d="M 78 3500 
L 1197 3500 
L 2138 1125 
L 2938 3500 
L 4056 3500 
L 2584 -331 
Q 2363 -916 2067 -1148 
Q 1772 -1381 1288 -1381 
L 641 -1381 
L 641 -647 
L 991 -647 
Q 1275 -647 1404 -556 
Q 1534 -466 1606 -231 
L 1638 -134 
L 78 3500 
z
" transform="scale(0.015625)"/>
     </defs>
     <use xlink:href="#DejaVuSans-Bold-35"/>
     <use xlink:href="#DejaVuSans-Bold-58" transform="translate(77 0)"/>
     <use xlink:href="#DejaVuSans-Bold-51" transform="translate(148.1875 0)"/>
     <use xlink:href="#DejaVuSans-Bold-3" transform="translate(219.375 0)"/>
     <use xlink:href="#DejaVuSans-Bold-57" transform="translate(254.1875 0)"/>
     <use xlink:href="#DejaVuSans-Bold-4b" transform="translate(301.984375 0)"/>
     <use xlink:href="#DejaVuSans-Bold-55" transform="translate(373.171875 0)"/>
     <use xlink:href="#DejaVuSans-Bold-52" transform="translate(422.484375 0)"/>
     <use xlink:href="#DejaVuSans-Bold-58" transform="translate(491.1875 0)"/>
     <use xlink:href="#DejaVuSans-Bold-4a" transform="translate(562.375 0)"/>
     <use xlink:href="#DejaVuSans-Bold-4b" transform="translate(633.953125 0)"/>
     <use xlink:href="#DejaVuSans-Bold-53" transform="translate(705.140625 0)"/>
     <use xlink:href="#DejaVuSans-Bold-58" transform="translate(776.71875 0)"/>
     <use xlink:href="#DejaVuSans-Bold-57" transform="translate(847.90625 0)"/>
     <use xlink:href="#DejaVuSans-Bold-3" transform="translate(895.703125 0)"/>
     <use xlink:href="#DejaVuSans-Bold-56" transform="translate(930.515625 0)"/>
     <use xlink:href="#DejaVuSans-Bold-58" transform="translate(990.03125 0)"/>
     <use xlink:href="#DejaVuSans-Bold-50" transform="translate(1061.21875 0)"/>
     <use xlink:href="#DejaVuSans-Bold-50" transform="translate(1165.421875 0)"/>
     <use xlink:href="#DejaVuSans-Bold-44" transform="translate(1269.625 0)"/>
     <use xlink:href="#DejaVuSans-Bold-55" transform="translate(1337.109375 0)"/>
     <use xlink:href="#DejaVuSans-Bold-5c" transform="translate(1386.421875 0)"/>
    </g>
   </g>
  </g>
  <g id="axes_4">
   <g id="patch_22">
    <path d="M 473.910028 445.68 
L 829.000937 445.68 
L 829.000937 269.28 
L 473.910028 269.28 
z
" style="fill: #ffffff"/>
   </g>
   <g id="patch_23">
    <path d="M 490.050524 445.68 
L 500.810855 445.68 
L 500.810855 277.68 
L 490.050524 277.68 
z
" clip-path="url(#p5a7ece5194)" style="fill: #2c7a7b; opacity: 0.85"/>
   </g>
   <g id="patch_24">
    <path d="M 500.810855 445.68 
L 511.571185 445.68 
L 511.571185 445.68 
L 500.810855 445.68 
z
" clip-path="url(#p5a7ece5194)" style="fill: #2c7a7b; opacity: 0.85"/>
   </g>
   <g id="patch_25">
    <path d="M 511.571185 445.68 
L 522.331516 445.68 
L 522.331516 445.68 
L 511.571185 445.68 
z
" clip-path="url(#p5a7ece5194)" style="fill: #2c7a7b; opacity: 0.85"/>
   </g>
   <g id="patch_26">
    <path d="M 522.331516 445.68 
L 533.091847 445.68 
L 533.091847 445.68 
L 522.331516 445.68 
z
" clip-path="url(#p5a7ece5194)" style="fill: #2c7a7b; opacity: 0.85"/>
   </g>
   <g id="patch_27">
    <path d="M 533.091847 445.68 
L 543.852177 445.68 
L 543.852177 445.68 
L 533.091847 445.68 
z
" clip-path="url(#p5a7ece5194)" style="fill: #2c7a7b; opacity: 0.85"/>
   </g>
   <g id="patch_28">
    <path d="M 543.852177 445.68 
L 554.612508 445.68 
L 554.612508 445.68 
L 543.852177 445.68 
z
" clip-path="url(#p5a7ece5194)" style="fill: #2c7a7b; opacity: 0.85"/>
   </g>
   <g id="patch_29">
    <path d="M 554.612508 445.68 
L 565.372838 445.68 
L 565.372838 445.67895 
L 554.612508 445.67895 
z
" clip-path="url(#p5a7ece5194)" style="fill: #2c7a7b; opacity: 0.85"/>
   </g>
   <g id="patch_30">
    <path d="M 565.372838 445.68 
L 576.133169 445.68 
L 576.133169 445.68 
L 565.372838 445.68 
z
" clip-path="url(#p5a7ece5194)" style="fill: #2c7a7b; opacity: 0.85"/>
   </g>
   <g id="patch_31">
    <path d="M 576.133169 445.68 
L 586.893499 445.68 
L 586.893499 445.68 
L 576.133169 445.68 
z
" clip-path="url(#p5a7ece5194)" style="fill: #2c7a7b; opacity: 0.85"/>
   </g>
   <g id="patch_32">
    <path d="M 586.893499 445.68 
L 597.65383 445.68 
L 597.65383 445.667404 
L 586.893499 445.667404 
z
" clip-path="url(#p5a7ece5194)" style="fill: #2c7a7b; opacity: 0.85"/>
   </g>
   <g id="patch_33">
    <path d="M 597.65383 445.68 
L 608.414161 445.68 
L 608.414161 445.68 
L 597.65383 445.68 
z
" clip-path="url(#p5a7ece5194)" style="fill: #2c7a7b; opacity: 0.85"/>
   </g>
   <g id="patch_34">
    <path d="M 608.414161 445.68 
L 619.174491 445.68 
L 619.174491 445.68 
L 608.414161 445.68 
z
" clip-path="url(#p5a7ece5194)" style="fill: #2c7a7b; opacity: 0.85"/>
   </g>
   <g id="patch_35">
    <path d="M 619.174491 445.68 
L 629.934822 445.68 
L 629.934822 445.662155 
L 619.174491 445.662155 
z
" clip-path="url(#p5a7ece5194)" style="fill: #2c7a7b; opacity: 0.85"/>
   </g>
   <g id="patch_36">
    <path d="M 629.934822 445.68 
L 640.695152 445.68 
L 640.695152 445.68 
L 629.934822 445.68 
z
" clip-path="url(#p5a7ece5194)" style="fill: #2c7a7b; opacity: 0.85"/>
   </g>
   <g id="patch_37">
    <path d="M 640.695152 445.68 
L 651.455483 445.68 
L 651.455483 445.68 
L 640.695152 445.68 
z
" clip-path="url(#p5a7ece5194)" style="fill: #2c7a7b; opacity: 0.85"/>
   </g>
   <g id="patch_38">
    <path d="M 651.455483 445.68 
L 662.215814 445.68 
L 662.215814 445.68 
L 651.455483 445.68 
z
" clip-path="url(#p5a7ece5194)" style="fill: #2c7a7b; opacity: 0.85"/>
   </g>
   <g id="patch_39">
    <path d="M 662.215814 445.68 
L 672.976144 445.68 
L 672.976144 445.671602 
L 662.215814 445.671602 
z
" clip-path="url(#p5a7ece5194)" style="fill: #2c7a7b; opacity: 0.85"/>
   </g>
   <g id="patch_40">
    <path d="M 672.976144 445.68 
L 683.736475 445.68 
L 683.736475 445.68 
L 672.976144 445.68 
z
" clip-path="url(#p5a7ece5194)" style="fill: #2c7a7b; opacity: 0.85"/>
   </g>
   <g id="patch_41">
    <path d="M 683.736475 445.68 
L 694.496805 445.68 
L 694.496805 445.68 
L 683.736475 445.68 
z
" clip-path="url(#p5a7ece5194)" style="fill: #2c7a7b; opacity: 0.85"/>
   </g>
   <g id="patch_42">
    <path d="M 694.496805 445.68 
L 705.257136 445.68 
L 705.257136 445.672652 
L 694.496805 445.672652 
z
" clip-path="url(#p5a7ece5194)" style="fill: #2c7a7b; opacity: 0.85"/>
   </g>
   <g id="patch_43">
    <path d="M 705.257136 445.68 
L 716.017466 445.68 
L 716.017466 445.68 
L 705.257136 445.68 
z
" clip-path="url(#p5a7ece5194)" style="fill: #2c7a7b; opacity: 0.85"/>
   </g>
   <g id="patch_44">
    <path d="M 716.017466 445.68 
L 726.777797 445.68 
L 726.777797 445.68 
L 716.017466 445.68 
z
" clip-path="url(#p5a7ece5194)" style="fill: #2c7a7b; opacity: 0.85"/>
   </g>
   <g id="patch_45">
    <path d="M 726.777797 445.68 
L 737.538128 445.68 
L 737.538128 445.68 
L 726.777797 445.68 
z
" clip-path="url(#p5a7ece5194)" style="fill: #2c7a7b; opacity: 0.85"/>
   </g>
   <g id="patch_46">
    <path d="M 737.538128 445.68 
L 748.298458 445.68 
L 748.298458 445.68 
L 737.538128 445.68 
z
" clip-path="url(#p5a7ece5194)" style="fill: #2c7a7b; opacity: 0.85"/>
   </g>
   <g id="patch_47">
    <path d="M 748.298458 445.68 
L 759.058789 445.68 
L 759.058789 445.68 
L 748.298458 445.68 
z
" clip-path="url(#p5a7ece5194)" style="fill: #2c7a7b; opacity: 0.85"/>
   </g>
   <g id="patch_48">
    <path d="M 759.058789 445.68 
L 769.819119 445.68 
L 769.819119 445.68 
L 759.058789 445.68 
z
" clip-path="url(#p5a7ece5194)" style="fill: #2c7a7b; opacity: 0.85"/>
   </g>
   <g id="patch_49">
    <path d="M 769.819119 445.68 
L 780.57945 445.68 
L 780.57945 445.68 
L 769.819119 445.68 
z
" clip-path="url(#p5a7ece5194)" style="fill: #2c7a7b; opacity: 0.85"/>
   </g>
   <g id="patch_50">
    <path d="M 780.57945 445.68 
L 791.33978 445.68 
L 791.33978 445.68 
L 780.57945 445.68 
z
" clip-path="url(#p5a7ece5194)" style="fill: #2c7a7b; opacity: 0.85"/>
   </g>
   <g id="patch_51">
    <path d="M 791.33978 445.68 
L 802.100111 445.68 
L 802.100111 445.68 
L 791.33978 445.68 
z
" clip-path="url(#p5a7ece5194)" style="fill: #2c7a7b; opacity: 0.85"/>
   </g>
   <g id="patch_52">
    <path d="M 802.100111 445.68 
L 812.860442 445.68 
L 812.860442 445.67895 
L 802.100111 445.67895 
z
" clip-path="url(#p5a7ece5194)" style="fill: #2c7a7b; opacity: 0.85"/>
   </g>
   <g id="matplotlib.axis_7">
    <g id="xtick_9">
     <g id="line2d_85">
      <g>
       <use xlink:href="#m79f2a528b8" x="490.050524" y="445.68" style="fill: #1f2933; stroke: #1f2933; stroke-width: 0.8"/>
      </g>
     </g>
     <g id="text_34">
      <!-- 0 -->
      <g style="fill: #1f2933" transform="translate(486.869274 460.277656) scale(0.1 -0.1)">
       <use xlink:href="#DejaVuSans-13"/>
      </g>
     </g>
    </g>
    <g id="xtick_10">
     <g id="line2d_86">
      <g>
       <use xlink:href="#m79f2a528b8" x="562.106309" y="445.68" style="fill: #1f2933; stroke: #1f2933; stroke-width: 0.8"/>
      </g>
     </g>
     <g id="text_35">
      <!-- 2000 -->
      <g style="fill: #1f2933" transform="translate(549.381309 460.277656) scale(0.1 -0.1)">
       <use xlink:href="#DejaVuSans-15"/>
       <use xlink:href="#DejaVuSans-13" transform="translate(63.625 0)"/>
       <use xlink:href="#DejaVuSans-13" transform="translate(127.25 0)"/>
       <use xlink:href="#DejaVuSans-13" transform="translate(190.875 0)"/>
      </g>
     </g>
    </g>
    <g id="xtick_11">
     <g id="line2d_87">
      <g>
       <use xlink:href="#m79f2a528b8" x="634.162095" y="445.68" style="fill: #1f2933; stroke: #1f2933; stroke-width: 0.8"/>
      </g>
     </g>
     <g id="text_36">
      <!-- 4000 -->
      <g style="fill: #1f2933" transform="translate(621.437095 460.277656) scale(0.1 -0.1)">
       <use xlink:href="#DejaVuSans-17"/>
       <use xlink:href="#DejaVuSans-13" transform="translate(63.625 0)"/>
       <use xlink:href="#DejaVuSans-13" transform="translate(127.25 0)"/>
       <use xlink:href="#DejaVuSans-13" transform="translate(190.875 0)"/>
      </g>
     </g>
    </g>
    <g id="xtick_12">
     <g id="line2d_88">
      <g>
       <use xlink:href="#m79f2a528b8" x="706.21788" y="445.68" style="fill: #1f2933; stroke: #1f2933; stroke-width: 0.8"/>
      </g>
     </g>
     <g id="text_37">
      <!-- 6000 -->
      <g style="fill: #1f2933" transform="translate(693.49288 460.277656) scale(0.1 -0.1)">
       <use xlink:href="#DejaVuSans-19"/>
       <use xlink:href="#DejaVuSans-13" transform="translate(63.625 0)"/>
       <use xlink:href="#DejaVuSans-13" transform="translate(127.25 0)"/>
       <use xlink:href="#DejaVuSans-13" transform="translate(190.875 0)"/>
      </g>
     </g>
    </g>
    <g id="xtick_13">
     <g id="line2d_89">
      <g>
       <use xlink:href="#m79f2a528b8" x="778.273665" y="445.68" style="fill: #1f2933; stroke: #1f2933; stroke-width: 0.8"/>
      </g>
     </g>
     <g id="text_38">
      <!-- 8000 -->
      <g style="fill: #1f2933" transform="translate(765.548665 460.277656) scale(0.1 -0.1)">
       <use xlink:href="#DejaVuSans-1b"/>
       <use xlink:href="#DejaVuSans-13" transform="translate(63.625 0)"/>
       <use xlink:href="#DejaVuSans-13" transform="translate(127.25 0)"/>
       <use xlink:href="#DejaVuSans-13" transform="translate(190.875 0)"/>
      </g>
     </g>
    </g>
    <g id="text_39">
     <!-- Cached tokens -->
     <g style="fill: #1f2933" transform="translate(607.175483 475.798125) scale(0.12 -0.12)">
      <defs>
       <path id="DejaVuSans-26" d="M 4122 4306 
L 4122 3641 
Q 3803 3938 3442 4084 
Q 3081 4231 2675 4231 
Q 1875 4231 1450 3742 
Q 1025 3253 1025 2328 
Q 1025 1406 1450 917 
Q 1875 428 2675 428 
Q 3081 428 3442 575 
Q 3803 722 4122 1019 
L 4122 359 
Q 3791 134 3420 21 
Q 3050 -91 2638 -91 
Q 1578 -91 968 557 
Q 359 1206 359 2328 
Q 359 3453 968 4101 
Q 1578 4750 2638 4750 
Q 3056 4750 3426 4639 
Q 3797 4528 4122 4306 
z
" transform="scale(0.015625)"/>
      </defs>
      <use xlink:href="#DejaVuSans-26"/>
      <use xlink:href="#DejaVuSans-44" transform="translate(69.828125 0)"/>
      <use xlink:href="#DejaVuSans-46" transform="translate(131.109375 0)"/>
      <use xlink:href="#DejaVuSans-4b" transform="translate(186.09375 0)"/>
      <use xlink:href="#DejaVuSans-48" transform="translate(249.46875 0)"/>
      <use xlink:href="#DejaVuSans-47" transform="translate(311 0)"/>
      <use xlink:href="#DejaVuSans-3" transform="translate(374.484375 0)"/>
      <use xlink:href="#DejaVuSans-57" transform="translate(406.265625 0)"/>
      <use xlink:href="#DejaVuSans-52" transform="translate(445.46875 0)"/>
      <use xlink:href="#DejaVuSans-4e" transform="translate(506.65625 0)"/>
      <use xlink:href="#DejaVuSans-48" transform="translate(561 0)"/>
      <use xlink:href="#DejaVuSans-51" transform="translate(622.53125 0)"/>
      <use xlink:href="#DejaVuSans-56" transform="translate(685.90625 0)"/>
     </g>
    </g>
   </g>
   <g id="matplotlib.axis_8">
    <g id="ytick_59">
     <g id="line2d_90">
      <g>
       <use xlink:href="#ma216cd5810" x="473.910028" y="445.68" style="fill: #1f2933; stroke: #1f2933; stroke-width: 0.8"/>
      </g>
     </g>
     <g id="text_40">
      <!-- 0 -->
      <g style="fill: #1f2933" transform="translate(460.547528 449.478828) scale(0.1 -0.1)">
       <use xlink:href="#DejaVuSans-13"/>
      </g>
     </g>
    </g>
    <g id="ytick_60">
     <g id="line2d_91">
      <g>
       <use xlink:href="#ma216cd5810" x="473.910028" y="419.437709" style="fill: #1f2933; stroke: #1f2933; stroke-width: 0.8"/>
      </g>
     </g>
     <g id="text_41">
      <!-- 25000 -->
      <g style="fill: #1f2933" transform="translate(435.097528 423.236537) scale(0.1 -0.1)">
       <use xlink:href="#DejaVuSans-15"/>
       <use xlink:href="#DejaVuSans-18" transform="translate(63.625 0)"/>
       <use xlink:href="#DejaVuSans-13" transform="translate(127.25 0)"/>
       <use xlink:href="#DejaVuSans-13" transform="translate(190.875 0)"/>
       <use xlink:href="#DejaVuSans-13" transform="translate(254.5 0)"/>
      </g>
     </g>
    </g>
    <g id="ytick_61">
     <g id="line2d_92">
      <g>
       <use xlink:href="#ma216cd5810" x="473.910028" y="393.195417" style="fill: #1f2933; stroke: #1f2933; stroke-width: 0.8"/>
      </g>
     </g>
     <g id="text_42">
      <!-- 50000 -->
      <g style="fill: #1f2933" transform="translate(435.097528 396.994245) scale(0.1 -0.1)">
       <use xlink:href="#DejaVuSans-18"/>
       <use xlink:href="#DejaVuSans-13" transform="translate(63.625 0)"/>
       <use xlink:href="#DejaVuSans-13" transform="translate(127.25 0)"/>
       <use xlink:href="#DejaVuSans-13" transform="translate(190.875 0)"/>
       <use xlink:href="#DejaVuSans-13" transform="translate(254.5 0)"/>
      </g>
     </g>
    </g>
    <g id="ytick_62">
     <g id="line2d_93">
      <g>
       <use xlink:href="#ma216cd5810" x="473.910028" y="366.953126" style="fill: #1f2933; stroke: #1f2933; stroke-width: 0.8"/>
      </g>
     </g>
     <g id="text_43">
      <!-- 75000 -->
      <g style="fill: #1f2933" transform="translate(435.097528 370.751954) scale(0.1 -0.1)">
       <use xlink:href="#DejaVuSans-1a"/>
       <use xlink:href="#DejaVuSans-18" transform="translate(63.625 0)"/>
       <use xlink:href="#DejaVuSans-13" transform="translate(127.25 0)"/>
       <use xlink:href="#DejaVuSans-13" transform="translate(190.875 0)"/>
       <use xlink:href="#DejaVuSans-13" transform="translate(254.5 0)"/>
      </g>
     </g>
    </g>
    <g id="ytick_63">
     <g id="line2d_94">
      <g>
       <use xlink:href="#ma216cd5810" x="473.910028" y="340.710835" style="fill: #1f2933; stroke: #1f2933; stroke-width: 0.8"/>
      </g>
     </g>
     <g id="text_44">
      <!-- 100000 -->
      <g style="fill: #1f2933" transform="translate(428.735028 344.509663) scale(0.1 -0.1)">
       <use xlink:href="#DejaVuSans-14"/>
       <use xlink:href="#DejaVuSans-13" transform="translate(63.625 0)"/>
       <use xlink:href="#DejaVuSans-13" transform="translate(127.25 0)"/>
       <use xlink:href="#DejaVuSans-13" transform="translate(190.875 0)"/>
       <use xlink:href="#DejaVuSans-13" transform="translate(254.5 0)"/>
       <use xlink:href="#DejaVuSans-13" transform="translate(318.125 0)"/>
      </g>
     </g>
    </g>
    <g id="ytick_64">
     <g id="line2d_95">
      <g>
       <use xlink:href="#ma216cd5810" x="473.910028" y="314.468543" style="fill: #1f2933; stroke: #1f2933; stroke-width: 0.8"/>
      </g>
     </g>
     <g id="text_45">
      <!-- 125000 -->
      <g style="fill: #1f2933" transform="translate(428.735028 318.267371) scale(0.1 -0.1)">
       <use xlink:href="#DejaVuSans-14"/>
       <use xlink:href="#DejaVuSans-15" transform="translate(63.625 0)"/>
       <use xlink:href="#DejaVuSans-18" transform="translate(127.25 0)"/>
       <use xlink:href="#DejaVuSans-13" transform="translate(190.875 0)"/>
       <use xlink:href="#DejaVuSans-13" transform="translate(254.5 0)"/>
       <use xlink:href="#DejaVuSans-13" transform="translate(318.125 0)"/>
      </g>
     </g>
    </g>
    <g id="ytick_65">
     <g id="line2d_96">
      <g>
       <use xlink:href="#ma216cd5810" x="473.910028" y="288.226252" style="fill: #1f2933; stroke: #1f2933; stroke-width: 0.8"/>
      </g>
     </g>
     <g id="text_46">
      <!-- 150000 -->
      <g style="fill: #1f2933" transform="translate(428.735028 292.02508) scale(0.1 -0.1)">
       <use xlink:href="#DejaVuSans-14"/>
       <use xlink:href="#DejaVuSans-18" transform="translate(63.625 0)"/>
       <use xlink:href="#DejaVuSans-13" transform="translate(127.25 0)"/>
       <use xlink:href="#DejaVuSans-13" transform="translate(190.875 0)"/>
       <use xlink:href="#DejaVuSans-13" transform="translate(254.5 0)"/>
       <use xlink:href="#DejaVuSans-13" transform="translate(318.125 0)"/>
      </g>
     </g>
    </g>
   </g>
   <g id="patch_53">
    <path d="M 473.910028 445.68 
L 473.910028 269.28 
" style="fill: none; stroke: #b7c3cf; stroke-width: 0.8; stroke-linejoin: miter; stroke-linecap: square"/>
   </g>
   <g id="patch_54">
    <path d="M 829.000937 445.68 
L 829.000937 269.28 
" style="fill: none; stroke: #b7c3cf; stroke-width: 0.8; stroke-linejoin: miter; stroke-linecap: square"/>
   </g>
   <g id="patch_55">
    <path d="M 473.910028 445.68 
L 829.000937 445.68 
" style="fill: none; stroke: #b7c3cf; stroke-width: 0.8; stroke-linejoin: miter; stroke-linecap: square"/>
   </g>
   <g id="patch_56">
    <path d="M 473.910028 269.28 
L 829.000937 269.28 
" style="fill: none; stroke: #b7c3cf; stroke-width: 0.8; stroke-linejoin: miter; stroke-linecap: square"/>
   </g>
   <g id="text_47">
    <!-- Cached input tokens -->
    <g style="fill: #1f2933" transform="translate(547.482983 263.28) scale(0.18 -0.18)">
     <defs>
      <path id="DejaVuSans-Bold-26" d="M 4288 256 
Q 3956 84 3597 -3 
Q 3238 -91 2847 -91 
Q 1681 -91 1000 561 
Q 319 1213 319 2328 
Q 319 3447 1000 4098 
Q 1681 4750 2847 4750 
Q 3238 4750 3597 4662 
Q 3956 4575 4288 4403 
L 4288 3438 
Q 3953 3666 3628 3772 
Q 3303 3878 2944 3878 
Q 2300 3878 1931 3465 
Q 1563 3053 1563 2328 
Q 1563 1606 1931 1193 
Q 2300 781 2944 781 
Q 3303 781 3628 887 
Q 3953 994 4288 1222 
L 4288 256 
z
" transform="scale(0.015625)"/>
     </defs>
     <use xlink:href="#DejaVuSans-Bold-26"/>
     <use xlink:href="#DejaVuSans-Bold-44" transform="translate(73.390625 0)"/>
     <use xlink:href="#DejaVuSans-Bold-46" transform="translate(140.875 0)"/>
     <use xlink:href="#DejaVuSans-Bold-4b" transform="translate(200.15625 0)"/>
     <use xlink:href="#DejaVuSans-Bold-48" transform="translate(271.34375 0)"/>
     <use xlink:href="#DejaVuSans-Bold-47" transform="translate(339.171875 0)"/>
     <use xlink:href="#DejaVuSans-Bold-3" transform="translate(410.75 0)"/>
     <use xlink:href="#DejaVuSans-Bold-4c" transform="translate(445.5625 0)"/>
     <use xlink:href="#DejaVuSans-Bold-51" transform="translate(479.84375 0)"/>
     <use xlink:href="#DejaVuSans-Bold-53" transform="translate(551.03125 0)"/>
     <use xlink:href="#DejaVuSans-Bold-58" transform="translate(622.609375 0)"/>
     <use xlink:href="#DejaVuSans-Bold-57" transform="translate(693.796875 0)"/>
     <use xlink:href="#DejaVuSans-Bold-3" transform="translate(741.59375 0)"/>
     <use xlink:href="#DejaVuSans-Bold-57" transform="translate(776.40625 0)"/>
     <use xlink:href="#DejaVuSans-Bold-52" transform="translate(824.203125 0)"/>
     <use xlink:href="#DejaVuSans-Bold-4e" transform="translate(892.90625 0)"/>
     <use xlink:href="#DejaVuSans-Bold-48" transform="translate(956.71875 0)"/>
     <use xlink:href="#DejaVuSans-Bold-51" transform="translate(1024.546875 0)"/>
     <use xlink:href="#DejaVuSans-Bold-56" transform="translate(1095.734375 0)"/>
    </g>
   </g>
  </g>
  <g id="text_48">
   <!-- Parser operations and QC -->
   <g style="fill: #1f2933" transform="translate(339.188125 16.318125) scale(0.12 -0.12)">
    <defs>
     <path id="DejaVuSans-Bold-34" d="M 2847 -84 
L 2753 -84 
Q 1600 -84 959 553 
Q 319 1191 319 2328 
Q 319 3463 958 4106 
Q 1597 4750 2719 4750 
Q 3853 4750 4486 4112 
Q 5119 3475 5119 2328 
Q 5119 1541 4783 972 
Q 4447 403 3816 116 
L 4756 -934 
L 3609 -934 
L 2847 -84 
z
M 2719 3878 
Q 2169 3878 1866 3472 
Q 1563 3066 1563 2328 
Q 1563 1578 1859 1179 
Q 2156 781 2719 781 
Q 3272 781 3575 1187 
Q 3878 1594 3878 2328 
Q 3878 3066 3575 3472 
Q 3272 3878 2719 3878 
z
" transform="scale(0.015625)"/>
    </defs>
    <use xlink:href="#DejaVuSans-Bold-33"/>
    <use xlink:href="#DejaVuSans-Bold-44" transform="translate(70.609375 0)"/>
    <use xlink:href="#DejaVuSans-Bold-55" transform="translate(138.09375 0)"/>
    <use xlink:href="#DejaVuSans-Bold-56" transform="translate(187.40625 0)"/>
    <use xlink:href="#DejaVuSans-Bold-48" transform="translate(246.921875 0)"/>
    <use xlink:href="#DejaVuSans-Bold-55" transform="translate(314.75 0)"/>
    <use xlink:href="#DejaVuSans-Bold-3" transform="translate(364.0625 0)"/>
    <use xlink:href="#DejaVuSans-Bold-52" transform="translate(398.875 0)"/>
    <use xlink:href="#DejaVuSans-Bold-53" transform="translate(467.578125 0)"/>
    <use xlink:href="#DejaVuSans-Bold-48" transform="translate(539.15625 0)"/>
    <use xlink:href="#DejaVuSans-Bold-55" transform="translate(606.984375 0)"/>
    <use xlink:href="#DejaVuSans-Bold-44" transform="translate(656.296875 0)"/>
    <use xlink:href="#DejaVuSans-Bold-57" transform="translate(723.78125 0)"/>
    <use xlink:href="#DejaVuSans-Bold-4c" transform="translate(771.578125 0)"/>
    <use xlink:href="#DejaVuSans-Bold-52" transform="translate(805.859375 0)"/>
    <use xlink:href="#DejaVuSans-Bold-51" transform="translate(874.5625 0)"/>
    <use xlink:href="#DejaVuSans-Bold-56" transform="translate(945.75 0)"/>
    <use xlink:href="#DejaVuSans-Bold-3" transform="translate(1005.265625 0)"/>
    <use xlink:href="#DejaVuSans-Bold-44" transform="translate(1040.078125 0)"/>
    <use xlink:href="#DejaVuSans-Bold-51" transform="translate(1107.5625 0)"/>
    <use xlink:href="#DejaVuSans-Bold-47" transform="translate(1178.75 0)"/>
    <use xlink:href="#DejaVuSans-Bold-3" transform="translate(1250.328125 0)"/>
    <use xlink:href="#DejaVuSans-Bold-34" transform="translate(1285.140625 0)"/>
    <use xlink:href="#DejaVuSans-Bold-26" transform="translate(1370.15625 0)"/>
   </g>
  </g>
 </g>
 <defs>
  <clipPath id="pa467145941">
   <rect x="47.800938" y="57.6" width="355.090909" height="176.4"/>
  </clipPath>
  <clipPath id="pf892ca98f9">
   <rect x="473.910028" y="57.6" width="355.090909" height="176.4"/>
  </clipPath>
  <clipPath id="p688dbf2071">
   <rect x="47.800938" y="269.28" width="355.090909" height="176.4"/>
  </clipPath>
  <clipPath id="p5a7ece5194">
   <rect x="473.910028" y="269.28" width="355.090909" height="176.4"/>
  </clipPath>
 </defs>
</svg>
