<svg xmlns="http://www.w3.org/2000/svg" width="1600" height="900" viewBox="0 0 1600 900" role="img">
<rect width="100%" height="100%" fill="#FFFFFF"/>

  <defs>
    <marker id="arrow" markerWidth="12" markerHeight="12" refX="10" refY="6"
            orient="auto" markerUnits="strokeWidth">
      <path d="M2,2 L10,6 L2,10 Z" fill="#596B7A"/>
    </marker>
    <style>
      text {
        font-family: Arial, Helvetica, sans-serif;
        dominant-baseline: alphabetic;
      }
    </style>
  </defs>

<text x="70.0" y="70.0" font-size="36" font-weight="800" fill="#1F2933" text-anchor="start">ICD-Based ECG-Complete Cohort</text>
<text x="70.0" y="107.0" font-size="18" fill="#596B7A" text-anchor="start">Standard demographics + first-ECG all-controls run; counts are admission-row counts after adult cohort</text>
<text x="70.0" y="129.0" font-size="18" fill="#596B7A" text-anchor="start">construction unless noted.</text>
<rect x="80.0" y="215.0" width="300.0" height="160.0" rx="8" ry="8" fill="#FCEEEE" stroke="#A43E3E" stroke-width="2"/>
<text x="230.0" y="263.0" font-size="46" font-weight="800" fill="#1F2933" text-anchor="middle">879</text>
<text x="230.0" y="297.0" font-size="21" fill="#1F2933" text-anchor="middle">exact ICD target</text>
<text x="230.0" y="322.0" font-size="21" fill="#1F2933" text-anchor="middle">admissions</text>
<text x="230.0" y="345.0" font-size="17" fill="#596B7A" text-anchor="middle">before subject/adult filters</text>
<rect x="515.0" y="205.0" width="360.0" height="180.0" rx="8" ry="8" fill="#F3F6FA" stroke="#3D5A80" stroke-width="2"/>
<text x="695.0" y="253.0" font-size="50" font-weight="800" fill="#1F2933" text-anchor="middle">223,452</text>
<text x="695.0" y="287.0" font-size="21" fill="#1F2933" text-anchor="middle">adult cohort rows</text>
<text x="695.0" y="355.0" font-size="17" fill="#596B7A" text-anchor="middle">622 targets | 222,830</text>
<text x="695.0" y="375.0" font-size="17" fill="#596B7A" text-anchor="middle">controls</text>
<rect x="1015.0" y="205.0" width="360.0" height="180.0" rx="8" ry="8" fill="#EEF8EE" stroke="#3A7D44" stroke-width="2"/>
<text x="1195.0" y="253.0" font-size="50" font-weight="800" fill="#1F2933" text-anchor="middle">70,094</text>
<text x="1195.0" y="287.0" font-size="21" fill="#1F2933" text-anchor="middle">ECG-complete rows</text>
<text x="1195.0" y="355.0" font-size="17" fill="#596B7A" text-anchor="middle">31.4% retained | 355 targets</text>
<line x1="380.0" y1="295.0" x2="515.0" y2="295.0" stroke="#596B7A" stroke-width="2.5" stroke-linecap="round" marker-end="url(#arrow)"/>
<text x="447.5" y="281.0" font-size="17" font-weight="400" fill="#596B7A" text-anchor="middle">target/control spine</text>
<line x1="875.0" y1="295.0" x2="1015.0" y2="295.0" stroke="#596B7A" stroke-width="2.5" stroke-linecap="round" marker-end="url(#arrow)"/>
<text x="945.0" y="281.0" font-size="17" font-weight="400" fill="#596B7A" text-anchor="middle">24h ECG filter</text>
<rect x="505.0" y="520.0" width="250.0" height="120.0" rx="8" ry="8" fill="#FFF6E6" stroke="#B36B00" stroke-width="2"/>
<text x="630.0" y="562.0" font-size="29" font-weight="800" fill="#1F2933" text-anchor="middle">56,116</text>
<text x="630.0" y="588.0" font-size="16" fill="#596B7A" text-anchor="middle">train rows</text>
<text x="630.0" y="606.0" font-size="16" fill="#596B7A" text-anchor="middle">285 targets</text>
<rect x="800.0" y="520.0" width="250.0" height="120.0" rx="8" ry="8" fill="#FFF6E6" stroke="#B36B00" stroke-width="2"/>
<text x="925.0" y="562.0" font-size="29" font-weight="800" fill="#1F2933" text-anchor="middle">13,978</text>
<text x="925.0" y="588.0" font-size="16" fill="#596B7A" text-anchor="middle">holdout rows</text>
<text x="925.0" y="606.0" font-size="16" fill="#596B7A" text-anchor="middle">70 targets</text>
<rect x="1095.0" y="520.0" width="250.0" height="120.0" rx="8" ry="8" fill="#EEF6F5" stroke="#2C7A7B" stroke-width="2"/>
<text x="1220.0" y="562.0" font-size="29" font-weight="800" fill="#1F2933" text-anchor="middle">16</text>
<text x="1220.0" y="588.0" font-size="16" fill="#596B7A" text-anchor="middle">active features</text>
<text x="1220.0" y="606.0" font-size="16" fill="#596B7A" text-anchor="middle">5 demo + 11 ECG</text>
<path d="M1195,385 C1195,455 630,455 630,520" fill="none" stroke="#596B7A" stroke-width="2.5" stroke-linecap="round" stroke-linejoin="round" marker-end="url(#arrow)"/>
<path d="M1195,385 C1195,455 925,455 925,520" fill="none" stroke="#596B7A" stroke-width="2.5" stroke-linecap="round" stroke-linejoin="round" marker-end="url(#arrow)"/>
<path d="M1195,385 C1195,455 1220,455 1220,520" fill="none" stroke="#596B7A" stroke-width="2.5" stroke-linecap="round" stroke-linejoin="round" marker-end="url(#arrow)"/>
<text x="1015.0" y="430.0" font-size="22" font-weight="700" fill="#1F2933" text-anchor="start">ECG-complete target prevalence: 0.51%</text>
<text x="80.0" y="810.0" font-size="18" font-weight="400" fill="#596B7A" text-anchor="start">Source: demographics_ecg_runs/20260708_151834 run log and manifest.</text>
</svg>
